<?xml version="1.0" standalone="no"?>
<!DOCTYPE svg PUBLIC "-//W3C//DTD SVG 1.1//EN" "http://www.w3.org/Graphics/SVG/1.1/DTD/svg11.dtd" >
<svg xmlns="http://www.w3.org/2000/svg">
<metadata></metadata>
<defs>
<font id="petra_script_ef_regular" horiz-adv-x="512" >
<font-face units-per-em="2048" ascent="1638" descent="-410" />
<missing-glyph horiz-adv-x="500" />
<glyph horiz-adv-x="2048" />
<glyph horiz-adv-x="2048" />
<glyph unicode="&#xd;" />
<glyph unicode=" " />
<glyph unicode="!" horiz-adv-x="288" d="M80 29q2 4 14 9t10 17q10 2 31 19.5t31 17.5q12 0 22 -16q-8 -43 -65 -72q-2 0 -19 -4q-12 -2 -18 0q-6 4 -6 29zM96 444q6 74 6 88v175q12 12 29 36q4 2 29 19q14 8 26 4q19 0 23 -8q0 -18 -6 -59.5t-6 -61.5q10 -2 0 -16q0 -23 -7 -64q6 -16 -8 -39q0 6 4 -20 q2 -12 -6 -16.5t-6 -10.5q4 -10 4 -12q14 -31 -4 -51q-8 -4 -6 -5q8 -4 8 -14l-2 -18q6 -10 0 -37q-6 2 -18.5 -7.5t-18.5 -9.5q-8 0 -14 4.5t-9 19.5t-16 15q-6 35 -2 88z" />
<glyph unicode="&#x22;" horiz-adv-x="194" d="M20 -147q20 72 29 127q0 41 0 40q-4 10 0 31q10 10 14 10q15 2 19 -14q8 -37 -4 -104q0 -12 -8 -33q0 -12 -17 -62q-4 -14 -22 -32h-6q0 4 -1 17t-4 20zM96 -78q0 4 10 55q6 33 -2 54q14 25 23 22q8 8 12 8q18 0 17 -6q4 8 4 -10q6 -29 -6 -70q-2 -12 -15 -32 q4 -8 -12 -31q-18 0 -22.5 1t-8.5 9z" />
<glyph unicode="#" />
<glyph unicode="$" horiz-adv-x="866" d="M25 186q0 8 2 25v20q10 10 16 21l18 18q12 8 21 2q12 0 29 -32q6 -76 90 -136q70 -47 153 -57l8 -4q16 -4 25 0q8 8 4 25v6q0 10 4 16q-4 4 0 29v8q6 16 4 38.5t2 29.5q-2 16 -2 28q0 14 2 27q2 16 -4 47q10 31 4 39q-4 20 -4 63q-2 20 -2 62q-4 6 -12 10t-8 10 q6 16 2 23q-37 -2 -111 -10q-115 0 -166 26q-2 2 -20 19q-12 10 -20.5 20t-8.5 25q-2 2 -2 6v6q0 8 -6 12q2 4 5 12.5t3 12.5l6 10q2 4 4 10q57 219 234 361l65 39q0 51 -6 77q4 20 0 68q-2 45 6 72q4 16 29 37q10 10 35 26q8 2 18 -6q6 -8 -2 -20l-2 -7q-2 -4 -2 -10 q0 -4 2 -10q-8 -37 -10 -92q-4 -84 -4 -94q-2 -18 10 -21q2 0 25 4q10 0 14 -2q57 0 82 -20q29 -2 43 -29q6 -6 13 -21.5t12 -23.5q4 -27 8 -51q0 -33 -25 -43q-18 2 -51 -6q-6 0 -23 20q-4 8 -10 10q-6 14 -12 46t-25 47q-8 0 -12 4l-2 2q-12 8 -18 4q-14 -27 -15 -72 q0 -23 -4 -70q0 -6 2 -18v-20q0 -20 -8 -35q-2 -59 2 -183v-32q-4 -20 -2 -35l8 -4h53q35 0 54 -4q84 4 194 -62q2 -8 17 -18l6 -4q6 -4 12 -15q39 -53 39 -123q0 -69 -39 -126q-61 -109 -154 -146q-35 -33 -131 -53q-10 -6 -33.5 -8t-29.5 -19q0 -2 -6 -20q-4 -14 0 -25 q-2 -10 -4 -30.5t-6 -28.5q-6 -41 -15 -131q0 -25 -6 -74q-6 -57 -4 -107q4 -23 -4 -67q0 8 -4 27q6 12 -6 20l-4 4q-6 6 -5 14q-2 18 -10 56q0 59 -4 172l8 86q0 41 -8 123q-35 4 -106 20q-29 18 -58 19q-37 20 -112 63q-14 16 -33 53q-12 14 -12 45zM131 625q2 -6 6 -15 q2 -4 0 -10q8 -6 14.5 -21.5t22.5 -21.5q63 -31 188 -22q14 8 11 45q0 10 2 14q2 13 0 31l-2 14q-2 6 -2 14q4 10 4 23q0 14 -4 22q2 8 2 24.5t2 25.5l-6 59q0 12 -2 18l-11 154l-4 8q-33 -12 -60.5 -46t-53.5 -64q-12 -16 -31 -52q-10 -18 -33 -53l-8 -4q-18 -61 -35 -102 q2 10 2 -33q0 -6 -2 -8zM412 156l2 -2q2 -6 1 -7.5t-1 -78.5v-29q14 2 24 0q12 -2 23 2q33 -10 88 10q82 16 141.5 97t59.5 165q0 70 -60 125q-10 4 -12 8l-4 5q-8 12 -15 12q-16 6 -45 31q-14 0 -38.5 8t-36.5 8q-47 0 -72 4q-14 0 -37 -14q0 -88 -2 -76q2 -16 -8 -51 q8 -10 4 -25l-2 -8q-2 -10 2 -18q0 -2 -6 -11q-6 -8 0 -12q6 -25 2 -63q-4 -49 -2 -66q-10 -4 -6 -14z" />
<glyph unicode="%" horiz-adv-x="712" d="M-8 -344q-4 14 6 21.5t20 13.5q20 37 58 112q4 4 14 11q-8 6 -4 16q2 8 6 16q12 8 15.5 26.5t13.5 25.5q0 16 11 43.5t13 33.5q10 29 33 84q14 16 21 37q-2 2 -2 6t7 14.5t5 14.5q12 31 10 35q6 8 13.5 17.5t0.5 17.5q2 4 5.5 13t5.5 11q18 37 21 57.5t22 49.5q-2 8 6 16 t8 10q0 4 -4 9q6 18 20.5 52t14.5 25q0 6 -4 11q2 4 28 69q0 2 4 11q4 6 0 10q6 10 13.5 21.5t3.5 21.5q10 6 9 17t5 18q-2 8 4 24.5t7 24.5t12 24q6 2 12 11q-10 8 -6 24l6 25q18 25 18 59q4 29 5 127q14 45 38 137q10 23 25 68q12 0 27.5 2t17.5 18q4 0 17.5 5.5t19.5 5.5 q12 0 18 -15v-14q0 -45 -6 -62q2 -4 0 -10q-4 -10 -5 -13t-13.5 -6t-12.5 -11.5t-7 -17.5t-7 -15q0 -4 2 -8q-2 -4 -15 -13.5t-9 -21.5q-12 -27 -31 -82q-10 -8 -14.5 -33t-10.5 -33q-10 -35 -34 -102q-2 -16 -19 -45q4 -4 2 -10q-6 -10 -6 -13q-2 -10 -14.5 -41.5 t-12.5 -52.5q-16 -45 -57 -133q-12 -29 -31 -94q-27 -74 -84 -223q-27 -68 -82 -203q-14 -41 -53 -119q-18 -43 -49 -131q-25 -25 -41 -25zM61 627q-18 94 11 137q14 12 23 51t28 53q29 23 86 43q18 0 39 -22q0 -4 12 -25t4 -76q2 -29 -14 -96q0 -16 -25 -100 q-2 -12 -24 -33q-18 -12 -49 -16q-16 6 -31 12q-20 8 -25 23q-12 6 -22.5 25.5t-12.5 23.5zM133 694q4 -29 4 -41t15 -26l8 2q2 45 12 92q0 10 2 32.5t2 34.5q-2 10 -6 11q-4 0 -13.5 -11.5t-11.5 -13.5q-8 -10 -10 -39q-8 -16 -2 -41zM422 150q0 2 8 63q4 39 27 53 q33 33 118 64q45 0 58 -23q-2 -10 9 -19.5t11 -19.5q-4 -27 -4 -86q-2 -6 -3 -18t-3 -19q0 -20 -25 -69q-8 -14 -34 -39q-2 -14 -19.5 -19.5t-34.5 -9.5l-49 4q-55 25 -59 138zM506 133q0 -43 24 -61l11 8q16 57 24 143l-14 33q-6 2 -10 2q-10 0 -17.5 -20.5t-11.5 -24.5 q0 -12 -3 -39t-3 -41z" />
<glyph unicode="&#x26;" horiz-adv-x="724" d="M98 115q10 121 97 202q2 8 -6.5 14.5t-10.5 12.5q-18 20 -18 51t20 84q29 76 144 125q63 16 96 -18q14 2 24.5 -9.5t10.5 -23.5q2 -10 0 -29q-2 -20 -4 -27.5t-11 -9.5l-4 -2q-12 -4 -14 -12q-33 -8 -43 10q-4 31 -47 66q-33 12 -47 4q-43 -51 -43 -96q-12 -18 2 -56 l4 -10q10 -14 24 -24q8 0 21.5 7t25.5 3q2 8 13 6h6q18 4 26.5 -9.5t2.5 -21.5q-59 -43 -99 -43q-12 0 -22 2q-57 -66 -68 -161q-6 -63 43 -87q49 -43 125 -16q96 33 125 146q0 51 -29 65h-10q-18 0 -20 10q8 16 49 35l18 12q14 6 39 1t37 -1q86 12 107 17q61 12 104 30 l94 41l205 107l143 61q19 7 54 15q2 -4 -7 -13q-18 -14 -53 -28q-47 -16 -57 -23q-39 -12 -94 -43q-72 -41 -93 -51q-12 -6 -34 -20v2q-6 -2 -74 -41q-43 -16 -127 -56q2 0 -59 -18h-9q-6 -2 -10 -2q-12 -2 -37.5 -12.5t-40.5 -12.5l-6 -6q2 -74 -65 -139q-6 -6 -99 -76 q-59 -33 -112 -47q-20 -8 -41 -8q-29 0 -113 35q-25 27 -33 88z" />
<glyph unicode="'" horiz-adv-x="96" d="M14 -78q0 4 11 55q6 33 -2 54q14 25 22 22q8 8 12 8q18 0 17 -6q4 8 4 -10q6 -29 -6 -70q-2 -12 -15 -32q4 -8 -12 -31q-18 0 -22.5 1t-8.5 9z" />
<glyph unicode="(" horiz-adv-x="294" d="M4 315q-6 55 6 156v49q0 20 4 25q2 29 15 80q0 8 16 102q0 23 12 41q0 6 4 16q14 37 35 113q33 72 107 217q31 55 45 76q27 43 55.5 69.5t61.5 18.5q4 -2 -3 -8l-2 -4q-84 -104 -127 -199q-10 -20 -22 -39q0 -10 -6 -24q-8 -20 -12.5 -28.5t-12.5 -32t-14 -36.5 q-8 -31 -27 -90q-14 -47 -39 -145l-24 -189q2 -39 -8 -116q0 -152 26 -271q12 -57 49 -168q31 -68 74 -139q16 -12 47 -39q-2 -2 -5 -3t-9 -1h-10q-29 -23 -43 -14q-49 31 -119 170q-18 37 -27.5 67.5t-21.5 93.5q-29 160 -25 252z" />
<glyph unicode=")" horiz-adv-x="288" d="M-119 -274q-4 2 2 8l2 4q84 104 127 199q10 20 23 38q0 10 7 27.5t11 27t12.5 33t14.5 33.5q8 31 26 90q14 47 39 146q8 63 25 188q-2 39 8 117q0 152 -26 270q-12 57 -50 168q-31 68 -73 139q-16 12 -47 39q2 2 5 3t9 1h10q29 23 43 15q49 -31 119 -170 q18 -37 27.5 -67.5t21.5 -94.5q29 -160 25 -252q6 -55 -6 -156v-49q0 -20 -5 -24q0 -27 -14 -80q0 -6 -16 -103q0 -23 -13 -40q0 -6 -4 -17q-14 -37 -34 -113q-33 -72 -107 -217q-31 -55 -45 -75q-27 -43 -55.5 -70t-61.5 -18z" />
<glyph unicode="*" horiz-adv-x="571" d="M123 678q-4 8 5 11t9 5q33 16 39 13q14 0 41 4q14 2 19 12l-52 51q-10 14 -39 31q0 2 -8 9t-6 13q29 29 51 21q23 -18 64 -60h6q4 18 12 60q-2 10 12 35q6 4 18.5 7t18.5 5q10 0 17 -6q4 -4 -2 -21q-4 -2 -10.5 -26.5t-16.5 -81.5q0 -6 -6 -21l2 -4q18 -2 49 6 q29 2 76 17l43 8q12 6 27 2q6 -6 8 -6v-2l-2 -2l-2 2q-8 -10 -27 -15q-25 -6 -31 -10q-37 -6 -102 -28q-6 -4 0 -21l33 -33q-4 -6 3 -12t7 -8t-8 -6q-35 -10 -56 20q-6 8 -26 21q-10 -10 -15.5 -36t-11.5 -34q2 -12 -5 -33.5t-8 -30t-18 -22.5q-8 6 -18 11t-6 18q4 33 14 94 q8 33 8 53q-8 4 -23.5 -3t-25.5 -5q-25 -10 -57 -2z" />
<glyph unicode="+" horiz-adv-x="354" d="M14 125v4q4 4 19.5 8t15.5 17q4 2 25 18q14 10 24 10q-4 0 7.5 -4t21.5 -4q6 0 14 2h15v33q-6 12 -6 27q-1 30 32 75h17q4 0 8 -2q2 -14 2 -41q0 2 -6 -84l4 -4l6 -4q82 14 106 14h19q0 -8 2 -24q-41 -37 -76 -37q-16 0 -22 4q-25 -4 -33 -4v-12q-2 -8 -2 -13 q0 -16 10 -26q2 -12 2 -10q0 -10 -11 -26.5t-13 -23.5q-12 -2 -15.5 -19t-11.5 -17h-6q-4 2 -5 4t-3 10t-2 12q0 10 6 17q-6 23 -6 41q0 10 3 29.5t3 29.5q-10 0 -33 -5t-35 -5q-10 0 -31 4q-6 -8 -20 -8t-17.5 2t-5.5 6t-2 6zM156 176q0 -8 2 -24v-27q16 2 51 4 q-6 25 -6 21q0 4 2 12t2 12v6h-4q-2 0 -11.5 -4t-15.5 -4q-2 0 -8 2t-10 2h-2z" />
<glyph unicode="," horiz-adv-x="348" d="M123 -96q4 20 16 61q0 10 7.5 27.5t7.5 25.5q0 16 4 50q16 16 32 14q3 -12 19 -8q0 -43 -6 -60l4 -2q-2 2 -8 -4q-8 -20 -19 -65q-4 -8 -10 -19.5t-23 -25.5q-18 0 -24 6z" />
<glyph unicode="-" horiz-adv-x="657" d="M172 162q-2 4 0 8q4 6 19.5 9t15.5 16q14 10 28.5 20t28.5 6q12 -8 33 -6q23 4 33 0q14 6 41 2q88 18 125 14q0 -8 2 -24q-43 -37 -76 -37q-12 0 -23 4q-37 -2 -110 -10q-33 -12 -72 -4q-4 -6 -41 -6q0 2 -4 8z" />
<glyph unicode="." horiz-adv-x="348" d="M127 35q14 4 37 18q10 -6 35 -12q12 -4 18 -10q0 -7 6 -17q-4 -20 -22 -26q-25 -8 -33 -6q-35 31 -33 43q0 2 -8 10z" />
<glyph unicode="/" horiz-adv-x="460" d="M-100 -162q0 8 9 22.5t9 22.5q33 96 62 160q0 8 11 25.5t11 27.5q6 18 23 49q41 76 102 234q16 31 53 90q4 10 6 29q4 12 27 69q16 43 29 70q18 37 39 65q-6 20 14 54.5t20 52.5q2 4 8.5 16.5t4.5 18.5q14 16 25.5 49t19.5 45q0 10 24 68q20 49 95 249q6 23 26 62 q-4 8 6.5 20.5t5.5 24.5q20 47 41 47q9 0 17 -12q6 -61 -25 -144q-51 -137 -53 -141q-6 -23 -31 -68q-16 -39 -45 -124q-10 -8 -16 -31t-15 -31q-14 -33 -38 -100q6 -6 0 -10q-10 -6 -11 -9q-18 -45 -57 -129q-16 -45 -61 -135q-2 -10 -12.5 -28.5t-10.5 -32.5 q-29 -57 -78 -172q-25 -53 -74 -164q-10 -12 -30 -82q-12 -20 -6 -27q16 -4 12 -18q-2 -12 -6 -25q-10 -6 -9 -20.5t-8 -18.5q-4 -10 -22 -28q18 6 20 -13q-6 -4 -14 -2q-6 6 -16 0q0 -2 -5 -10q-4 -6 0 -10q-39 -12 -73 4q-4 6 -4 10z" />
<glyph unicode="0" horiz-adv-x="262" d="M33 66q-2 20 2 53q8 43 8 55v16q8 31 18 95q2 12 9 32q29 20 82 64q12 8 38 8l5 -12q14 -2 30 -19q-6 -8 0 -20q6 -14 4 -21q7 -22 19 -71q-2 -35 -2 -111q2 -10 -4 -33q2 -2 2 -24q0 -37 -15 -88q-2 -10 -9 -29.5t-7 -30.5q-4 -18 -21.5 -43.5t-21.5 -36.5q-2 0 -20 -12 q-10 -6 -21 -2q-20 0 -55 14q-14 18 -33 91q2 8 -1 25.5t-3 23.5q-4 14 4 22q-2 4 -8 54zM90 51q0 -27 8 -84q-4 -4 0 -12q6 -10 5 -14t6.5 -8.5t3.5 -10.5q23 -33 34 -33q10 14 19 56l12 24q0 20 15 62q-2 12 4 28.5t6 22.5q0 18 2 49q2 12 2 35q-2 12 0 35q0 57 -21 104 q-4 14 -14 14q-4 0 -14.5 -4t-16.5 -2q-10 -4 -10 -26q-6 -6 -7 -16.5t-5 -14.5q-8 -16 -13 -53q-2 -2 -8 -60q4 -10 -6 -26q0 -20 -2 -66z" />
<glyph unicode="1" horiz-adv-x="256" d="M33 197q25 35 71 96q12 16 31 49q4 2 12.5 12.5t18.5 19.5t18 7q12 16 31 16q6 -3 6 -26q-2 -43 -14 -127q-2 -8 -2 -29q0 -35 -6 -49q6 -29 -4 -53q4 0 4 -13q2 -14 -9 -34q14 -18 0 -52q-2 -2 -17 -16t-28 -14q-4 0 -8 -3.5t-8 -0.5l-12 8q0 6 2 16v16v41q6 25 10 82 q0 25 6 72v37v2q-2 0 -2 2q-8 -12 -37 -33q-14 -14 -45 -35q-16 0 -14 -2q0 6 -4 11z" />
<glyph unicode="2" horiz-adv-x="438" d="M20 0v12q6 2 24.5 19.5t33.5 15.5q68 76 110 172q12 57 13 60q0 23 -17 34q-14 2 -37.5 -8t-33.5 -10t-19.5 6t-3.5 16q39 43 88 45q16 14 39 15q33 0 57 -21q16 -35 11 -43q2 -10 2 -22q0 -27 -29 -88q-10 -14 -27 -47q-6 -14 -30 -37q-2 -6 -8.5 -19.5t-8.5 -19.5 q33 -8 86 -37q12 -2 39 -9t41 -7t27 6q23 6 41 -4q-6 -16 -25.5 -24.5t-38.5 -14.5q-6 2 -18 -4t-19 -6q-53 -2 -116 20q-47 16 -76 16q-31 0 -51 -16q-2 0 -29 -4q-14 -2 -25 4z" />
<glyph unicode="3" horiz-adv-x="327" d="M-20 -8q41 53 75 47q10 -2 8 -23.5t15 -23.5q29 -8 92 4q27 23 37 33q18 18 24 41q2 0 2 18q4 27 -8 57q-20 55 -82 60q12 0 -34 -2q-23 -2 -29 12q0 8 26 29q31 8 66 61q0 31 -2 33q-4 4 -35 -2q-20 -10 -41 4q-8 4 -2 14q47 29 101 35q37 0 55 -16q4 -4 8 -27 q-10 -49 -47 -78q-6 -2 -6 -12q2 0 11 -9t19 -7q4 -4 35 -25q2 -4 14.5 -19.5t12.5 -25.5q31 -68 0 -115q0 -2 -19 -20q-20 -29 -67 -53q-6 -2 -20.5 -13.5t-26.5 -11.5q-14 -10 -41 -12q-35 0 -45 -4q-23 2 -45 4q-29 4 -43.5 21.5t-7.5 25.5z" />
<glyph unicode="4" horiz-adv-x="473" d="M10 94q6 4 16.5 15.5t26.5 17.5q68 68 90 129q4 2 16.5 37t53.5 86q6 8 20 12q4 -6 21 -2q6 4 6 10q10 0 12 -9t2 -17q2 -18 -4 -54q2 -14 -4 -49q0 -12 2 -34q-4 -4 -2 -12.5t-4 -12.5q4 -8 -2 -21q6 -8 0 -18t0 -16q-6 -14 4 -16.5t129 -2.5h45q17 4 17 -10 q-23 -20 -52 -21q-14 -8 -42.5 -8t-38.5 -4q-18 0 -56 -2q-8 -8 -8 -29q-2 -2 -6 -47q0 -10 -2 -34q0 -4 -8 -21q6 -8 9 -26.5t9 -24.5q-2 -4 5 -12.5t3 -14.5q-8 -4 -18 -16q-14 -12 -55 2q-8 10 -7 31q4 23 2 30q6 20 7 60q4 2 0 8t-4 8q0 41 10 78q0 4 -15 8 q-72 -10 -129 -10q-6 2 -24.5 2t-24.5 10zM119 133h74q14 0 10 19q6 37 2 43q4 20 0 61q-2 -10 -19 -31q-2 -2 -3 -8t-9 -6q2 -8 -7 -15.5t-11 -15.5t-19 -22q-8 -8 -18 -25z" />
<glyph unicode="5" horiz-adv-x="317" d="M-20 -31q8 18 8 27q10 16 26 20q14 2 37 -26q0 -8 11.5 -12.5t13.5 -10.5q12 -4 33 0q29 8 32 8q14 6 56 64q-2 8 2 20.5t4 16.5q6 25 -13 90q-16 39 -63 35q-33 -2 -98 -19q-14 4 -17 11q4 23 11 63q0 12 6 33q2 2 4 30q0 16 16 25q16 16 51 21q43 4 58 12q10 2 41 10 q25 8 43 6q20 6 59 8l2 -4q2 -8 -5 -12t-13 -6t-12.5 -7t-10.5 -5q-12 -2 -39 -15q-43 -8 -125 -41q-6 -23 -14 -71q10 -2 28.5 3t28.5 5q61 0 86 -19q10 -14 31 -41q10 -78 10 -84q-10 -68 -55 -104q-8 -14 -29 -29q-29 -18 -34 -22q-59 -35 -95 -35q-12 0 -26 4 q-31 4 -49 25q-4 10 0 26z" />
<glyph unicode="6" horiz-adv-x="292" d="M6 49q-16 68 19 135q4 18 38 105q16 41 17 41q10 25 35 65q0 4 4 2h4q16 14 29 17q2 -8 14 -23q0 -8 -7 -23.5t-5 -25.5q-8 -27 -39 -72q-10 -35 -27 -108q-2 -4 0 -12.5t-10 -26.5l55 33q27 14 47 12q10 16 33 16h12q14 -6 30.5 -13t20.5 -21q9 -83 -65 -146 q-53 -35 -102 -35q-35 0 -64 19q-33 37 -39 61zM113 43q4 -20 28 -33q35 27 47 56q23 25 13 71q-54 -32 -68 -55q-2 0 -14 -31q0 -2 -6 -8z" />
<glyph unicode="7" horiz-adv-x="348" d="M41 346q6 12 26.5 17.5t26.5 9.5q66 -6 133 26q29 12 43 -2q2 -4 2 -8q0 -6 -11 -16.5t-10 -15.5t-4 -9t-5 -8q-6 -25 -29 -68q-4 -25 -8 -41q10 -10 78 -4q25 10 39 2q14 -4 2 -16q-25 -6 -70 -27q-8 -4 -39 -4q-20 0 -31 -6q-2 -12 -16 -31q0 -18 -8 -44.5t-8 -39.5 q0 -20 -11 -59q0 -35 2 -41q0 -8 -12 -20q-35 -8 -51 -2q-4 6 -8 36q6 27 5 34t21 91q6 25 21 70q-4 12 -24.5 12t-24.5 11q6 10 34 24q18 0 37 23q23 68 27 100q-2 6 -6 6q-18 -8 -60 -8q-10 -6 -51 -6q-10 10 -10 14z" />
<glyph unicode="8" horiz-adv-x="260" d="M16 20q0 20 39 89l9 13q8 13 24 28q-2 -2 -6 28q-4 14 -21 39q0 12 -8 12l-12 29q-10 25 -10 47q20 20 65 43q0 -2 2 -2q2 6 4 19q16 25 39 28q2 4 27 17q68 0 82 -37q4 -23 -8 -49q-23 -43 -23 -45q-10 -12 -23.5 -34t-39.5 -63q2 -8 6 -20q8 -20 22 -60q6 -4 2 -20 q6 -6 17 -55v-35q-31 -31 -49 -45q-14 -6 -64 -2q0 6 -6 6t-8 2q-61 35 -60 67zM82 57q4 -6 4 -22q18 -31 57 -41q8 6 4 12q-8 8 -8 10q2 12 -3 31t-5 25q-6 6 -12 22.5t-13 22.5q-12 -18 -24 -60zM109 299l6 -27q0 -18 4 -10q8 -10 18 -35q2 2 25 35q20 45 22 76 q-16 20 -32 10l-27 -20q-4 -2 -8 -13.5t-8 -15.5z" />
<glyph unicode="9" horiz-adv-x="329" d="M23 215q-6 14 0 33q8 29 8 28q25 51 123 107q12 6 28 10q29 14 51 -4q8 -8 11 -8q26 18 51 10q-6 -8 -10 -31q4 -23 -9 -34q2 -12 -3 -31t-5 -23q2 -20 -7 -53t-9 -49l-6 -14q-6 -13 -2 -21l-8 -4q0 -49 -11 -70q-4 -4 -6 -18q-8 -10 -9 -24.5t-3 -28.5q-8 -14 -11 -46 t-12 -46q-12 -123 -12 -99q-2 -2 -3 -10t-7 -8q4 10 -6 29q-2 4 -2 15t-2 15q-2 14 10 64q0 2 -3 12t-1 16q4 23 12 68q0 35 18 160q0 51 2 45v45q-27 -12 -38 -29q-6 0 -17 -10q-51 -27 -65 -27q-10 0 -21 4q-16 10 -26 27zM102 266q0 -6 11 -20q-2 2 18 2q24 25 57 78h-24 q-6 0 -10 10q-14 4 -19 0q-18 -31 -18 -33q-10 -12 -15 -37z" />
<glyph unicode=":" horiz-adv-x="348" d="M127 35q14 4 37 18q10 -6 35 -12q12 -4 18 -10q0 -7 6 -17q-4 -20 -22 -26q-25 -8 -33 -6q-35 31 -33 43q0 2 -8 10zM129 207q14 4 39 18q8 2 17.5 -5t16.5 -8t19 -9q0 -7 4 -17q-4 -20 -22 -24q-18 -14 -33 -6q-37 27 -33 43q0 4 -8 8z" />
<glyph unicode=";" horiz-adv-x="346" d="M102 -119q-4 6 2.5 15.5t6.5 11.5q14 20 43 98q2 8 10 25q0 14 4 43q37 14 53 10l6 -6q0 -8 -4 -10q-2 -8 -4 -29q-4 -8 -9 -20.5t-20 -28.5q-4 -16 -7 -23.5t-13 -21.5q-2 -2 -4 -7.5t-5 -8.5t-5 -15q-8 -14 -35 -35q-16 0 -19 2zM197 180q0 25 10 31q43 6 49 2 q4 -6 -2 -16.5t-8 -16.5t-23 -10q-10 0 -26 10z" />
<glyph unicode="&#x3c;" horiz-adv-x="339" d="M41 96q-2 2 6 19q47 35 117 127q14 18 47 37q10 10 25 12q16 2 22 -8q-8 -8 -25 -29q-31 -43 -77 -90q-4 -6 -13 -21q-8 -2 -14 -14q-4 -16 16.5 -34.5t20.5 -28.5q16 -16 41 -54q14 -4 24.5 -24.5t18.5 -23.5t22 -13q4 -14 -19.5 -23.5t-26.5 -9.5h-29q-10 20 -41 55 q-16 18 -52 56q-2 6 -10 13t-10 13q-16 12 -43 41z" />
<glyph unicode="=" horiz-adv-x="409" d="M35 80q43 37 76 37q12 0 22 -4q39 2 111 10q33 12 71 4q4 6 41 6q0 -2 4 -8q2 -4 0 -8q-4 -6 -19 -9.5t-15 -15.5q-14 -10 -28.5 -20.5t-29.5 -5.5q-12 8 -32 6q-23 -4 -33 0q-14 -6 -41 -2q-88 -18 -125 -15q0 9 -2 25zM49 162q-2 4 0 8q4 6 19.5 9t15.5 16 q14 10 28.5 20t28.5 6q12 -8 33 -6q23 4 33 0q14 6 41 2q88 18 125 14q0 -8 2 -24q-43 -37 -76 -37q-12 0 -23 4q-37 -2 -110 -10q-33 -12 -72 -4q-4 -6 -41 -6q0 2 -4 8z" />
<glyph unicode="&#x3e;" horiz-adv-x="358" d="M55 -49q-4 -14 19.5 -23.5t27.5 -9.5h29q10 20 41 55q16 18 51 56q2 6 10.5 13t10.5 13q16 12 43 41q2 2 -6 19q-47 35 -117 127q-14 18 -47 37q-10 10 -25 12q-16 2 -22 -8q8 -8 24 -29q31 -43 78 -90q6 -6 12 -21q8 -2 15 -14q4 -16 -16.5 -34.5t-20.5 -28.5 q-14 -16 -41 -54q-14 -4 -24.5 -24.5t-19 -23.5t-22.5 -13z" />
<glyph unicode="?" horiz-adv-x="358" d="M20 672q0 16 15 24q6 12 22 31q8 8 31 11t33 14q2 0 53 16q18 8 43 4q20 -4 41 -8q16 6 43 -27q2 -20 -10 -47q-14 -33 -16.5 -45t-20.5 -35q-10 -20 -39 -61q-2 -10 -17.5 -41t-15.5 -47q0 -18 13 -33q10 0 30 -12q8 0 37 6q23 4 37 0q6 10 23 0v-16q-47 -31 -119 -50 q-37 -14 -90 4q-23 12 -27 35q0 14 8 37t8 31q10 23 39 65q4 12 37 78q25 45 21 82q-4 6 -9 12q-8 6 -16 0q-14 0 -28.5 -2t-18.5 -16q10 -18 -10 -31q-8 -12 -29 -6q-25 6 -33 2q-12 4 -35 25zM172 6q-6 16 11.5 29.5t19.5 19.5q6 0 25.5 9.5t29.5 9.5q13 -1 21 -13 q-12 -49 -74 -61q-33 0 -33 6z" />
<glyph unicode="@" />
<glyph unicode="A" horiz-adv-x="788" d="M55 100v4q0 10 2 17v12l2 6q-4 2 -4 15q0 10 4 26q-4 6 2 13q1 14 1 32.5t-1 42.5q4 12 7 15q0 8 -5 20q2 18 7 53l6 54l4 2v2q0 6 1 11t4 17.5t3 17.5t1 11t1 8q-2 6 0 13q2 4 2 10h2q0 14 1 16l5 10h2q0 2 -4 4q2 8 8 27q-6 12 7 25q-2 6 2 14l2 2l-4 4q8 10 8 27 q2 10 10 28q-2 6 0 13.5t6 11.5l2 4l2 2q0 2 -4 4q4 6 6 11.5t7 11.5v10q10 27 10 31q6 14 14 45q6 4 6 6q-2 4 -2 8t2 8l2 6q6 4 8.5 16.5t12.5 33.5q-2 8 3 17t8 14.5t5 15.5t6 14v2l-2 4q2 6 10 17q2 4 3 14q8 4 9 12t5 16.5t17.5 35t39.5 69.5q2 12 19 29v6q14 20 41 55 q25 29 112 86q28 12 57 12q27 0 54 -10l16 -4q37 -27 60 -59q20 -20 26 -41q2 -2 8 -15v-4q0 -4 7 -8q0 -2 2 -6v-2q0 -2 4 -2q8 -23 22 -66q31 -109 31 -176v-8v1q-2 0 -2 -89q-4 -37 -14 -61q0 -6 -4.5 -17.5t-4.5 -15.5q-10 -16 -30 -53q-16 -20 -62 -25q-10 0 -20 16 q-2 16 11 38t18.5 30t19.5 2q2 10 10 27q0 -2 6 59q4 4 4 12l-2 8v117q-2 27 -5 44.5t-11 47.5q-2 12 0 19q-10 10 -12 25.5t-9 21.5q-2 16 -20 45q0 6 -2 8l-2 2q-10 10 -29 47q-16 18 -57 39q-31 10 -53 4q-2 2 -9 -2h-4q-4 -2 -8 -3t-37 -23q-12 -16 -26 -25 q-2 -2 -41 -47q-2 -8 -15 -21q-4 -2 -4 -8q-8 -10 -20.5 -31.5t-20.5 -31.5q-10 -16 -24 -53q-2 -2 -6 -11l-2 -6l-1 -2l-4 -4q-4 -4 -4 -8l-2 -2q2 -4 17 -19l-23 4q0 -10 -4 -14q-8 -18 -22 -61q-2 -10 -17 -33q-2 -10 -8 -31.5t-23 -56.5q0 -2 -4 -21q-2 -2 -4 -7t-6 -23 q0 -4 -2 -10.5t-7 -22.5t-5 -23q-6 -4 -6 -11t-1 -14t-3 -12q-2 -12 -11 -36q-2 -16 -10 -39q-6 -33 -16 -103l-4 -4v-6q0 -23 -9 -70l-6 -43q2 -6 -2 -18v-20q0 -10 -2 -17q2 -8 0 -24t-2 -25q0 -25 -4 -76q2 -18 2 -54t10 -93q4 -10 4 -29q8 -25 11.5 -36t9.5 -31.5 t12 -28.5v-2q0 2 2 0q6 -6 6 -13q8 -8 6 -12q12 -16 54 -39q10 -2 20 -2q49 0 82 47q8 12 31 37q6 14 19.5 41t29.5 49q14 31 37 90q2 8 10 25q0 4 6 14.5t6 16.5q6 16 19 47q6 12 14 37q2 2 2 6v6q12 35 35 102q0 6 5 13.5t4 12.5t3 9v2q4 0 0 4q0 8 2 15q0 -2 -2 0 q-2 16 29 39q6 2 15.5 8t23.5 6q14 -10 8 -25q-4 -4 -4 -16q0 -20 -6 -64q0 -8 -4 -26q0 -25 -13 -76q2 -4 -2 -18l-2 -2l2 -2q8 -23 -2 -41q-2 -16 2 -50q2 8 2 -26q2 -2 5.5 -8.5t3.5 -10.5q4 -12 16 -34q20 -18 53 -18q9 0 19 1q2 0 51 25q8 4 27 8q4 -10 -7 -31 q-6 -2 -18 -12q-45 -27 -86 -33h-51h-4q-2 2 -4 2l-3 4l-4 2q-2 2 -8 0q-2 4 -6 7l-6 6q-14 6 -22.5 24.5t-12.5 22.5q-9 32 -9 73q0 23 3 50v2q-6 -14 -10 -27q-8 -25 -29 -68q-8 -23 -31 -69q0 -6 -5 -14.5t-7 -12.5q-6 -14 -22 -41q-33 -59 -58 -82q-2 -6 -10 -14l-2 -2 q-2 -2 -6 -8q-20 -20 -33 -27q-38 -33 -85 -33q-12 0 -24 2q-20 12 -55 43q-12 16 -22 41q-4 10 -15 27q-4 4 -4 12v4q0 4 -3 9.5t-8 17.5t-5 21q0 2 -1 5t-3 7v18q0 8 -2 13q-8 29 -7.5 39t-2.5 32.5t-3 32.5v12z" />
<glyph unicode="B" horiz-adv-x="950" d="M63 59q6 4 5 15q-4 10 0 14q-2 20 2 57q2 7 2 23t-2 41q2 4 8 57q0 27 10 78t10 74q4 12 11 35q4 12 6 39q6 6 2 12q7 64 8 64v-1q4 4 10 39q-2 12 8.5 34t10.5 32q4 6 -2 28q-8 47 -19 148q0 6 -6 12q-5 94 -7 94l-1 -2q-4 10 0 19q2 0 8 6t14 6v8q33 25 49 13 q8 -18 9 -60q4 -20 -6 -45q0 -4 6 -12q0 2 6 9t6 13t6 17q-4 10 6 21t6 18q4 10 9.5 28.5t19.5 53.5q-4 16 10 16q10 23 27 70q6 12 20 38q31 57 74 95q2 4 64 53q31 18 72 18q12 0 26 -2q43 -14 59 -37q10 -16 31 -47q0 -14 10.5 -44.5t10.5 -45.5q7 -32 7 -89 q0 -23 -1 -50q2 -6 0 -21q-2 -23 -15 -69q0 -12 -6 -36t-6 -38q-14 -43 -45 -129q-4 -16 -18.5 -44t-40.5 -77q0 -6 -9.5 -16t-10.5 -17.5t-13 -25.5q10 0 33.5 5t37.5 3q31 -4 113 -27q25 -12 70 -47q29 -18 39 -28q20 -18 26 -37q18 -16 37 -58q16 -20 14 -32 q18 -18 23 -58q4 -8 8 -27.5t8 -29.5q0 -33 -2 -49q2 -12 0 -29q-2 -23 -4 -45q-2 -29 -14 -41q-14 -68 -70.5 -124t-126.5 -83q-29 -4 -84 -16q-98 0 -127 4l-30 12q-33 12 -68 27.5t-53 42.5q-27 29 -27 71v11q-6 6 -2 18q-4 10 0 19q8 6 9 21.5t10 19.5q-2 10 8 25.5 t12 21.5q2 0 21 16q10 10 20 8q8 -6 4 -37q-2 -4 -4 -16q-9 -30 -9 -53q0 -26 11 -43q-2 -10 6 -23.5t8 -19.5q23 -23 72 -55q25 -6 72 -23q29 0 41 -8q51 4 88 12q23 6 69 17q29 16 43 30q2 10 15.5 17.5t17.5 13.5t10.5 16.5t8.5 16.5t11 17t9 17.5t12 47.5q2 10 9 28 q-8 10 -7 27q2 27 2 29q-2 25 -16 61l6 8q-8 4 -12 17q-6 23 -6 22q-8 25 -8 37q-14 18 -21 43q-35 51 -94 107q-37 23 -117 51q-34 4 -60 4q-54 0 -75 -17q-14 -2 -43 -23.5t-51 -14.5q-6 -4 -15 0q-2 10 14.5 19t18.5 15q14 14 47 31q8 14 29 33q14 20 18 35q4 0 13 16 q18 6 16 16q4 -4 4 19q6 10 27 49q4 6 8 18q8 23 27 66q0 6 6 18.5t6 17.5t2 13q0 2 8 14q6 10 0 19q2 4 9.5 14t6.5 19.5t3 30t14 55.5q-4 4 -4 10q0 2 6 16q4 8 0 17q6 6 2 10q-2 10 -10 35q-2 10 -3 29.5t-7 54.5q-8 20 -21 65q-6 12 -22 37q-4 4 -25 31q-14 18 -33 22 q-6 6 -33 6q-37 -6 -69 -43q-6 -6 -49 -67q-10 -20 -33 -62q0 -6 -5 -12t-3 -12q-29 -57 -64 -162q-4 -18 -18 -57q-4 -33 -19 -47q0 -12 -1 -23.5t-5 -32t-4 -34t-6 -37.5q-6 -31 -6 -41q2 -6 0 -23v-82q2 -12 2 -73q0 -35 2 -54v-26q-4 -8 0 -29q2 -18 -4 -51 q-1 -8 -1 -18q0 -21 3 -52q-2 -38 -7 -114q-3 -42 -3 -69q0 -22 2 -34q0 -12 -6 -39q-6 -74 -15 -219q2 -10 -6 -25q4 -23 -10 -38q-9 -8 -20.5 -8t-26.5 8q-37 20 -37 63q-4 4 -4 41l-6 45q6 10 2 12q-4 23 -2 39q-4 25 0 41v94h-7zM119 102q0 -2 6 -61q0 -5 -1 -14 q0 -26 5 -86q4 -29 14 -80q0 -14 17 -35q0 8 10 20l-6 7q0 6 2 18v20q6 14 8 50l-4 2q6 20 2 26q-4 14 4 43q-4 4 0 21q-1 14 -1 26q0 30 7 47q-12 31 0 60q2 14 0 45q-2 10 6 35q-12 14 0 30q2 4 2 8q0 8 -6 19q0 2 4 14q-6 12 0 35q2 9 2 16q0 12 -6 21q0 8 -4 29 q6 6 2 20q-6 16 -6 21q0 25 8 71q0 14 -8 39q16 8 0 13l-6 -43q-4 -4 -4 -17.5t-6 -17.5q-2 -2 4 -12q-12 -14 -8 -46q-2 -8 -8.5 -26.5t-6.5 -67.5q-2 -4 -8 -18q-2 -14 0 -45q-2 -25 -8 -78q0 -27 -6 -49v-60z" />
<glyph unicode="C" horiz-adv-x="1091" d="M49 291q-1 9 -1 22q0 25 5 64q-4 14 5.5 38.5t7.5 37.5q16 96 63 198q8 16 23 49q16 23 41 68q8 20 32 53q20 27 58 80q14 12 34 41q119 141 285 211q80 33 127 35h15q57 0 77 -14q84 -57 90 -136q1 -17 1 -35q0 -77 -29 -149q-6 -16 -31 -31.5t-33 -25.5 q-6 0 -20.5 -4.5t-22.5 -1.5q0 2 -5 7t-3 9q18 41 18 43q18 70 19 108q8 10 4 31q-6 20 -5 28.5t-8.5 20t-4.5 19.5l-50 63q-14 0 -36 10h-6q-33 0 -91 -20q-16 2 -35.5 -13.5t-32 -17.5t-35 -21.5t-36.5 -19.5q-25 -25 -74 -77q-27 -27 -76 -89q-16 -23 -43 -69 q-8 -2 -12 -14.5t-10 -14.5q-6 -14 -23 -45q-2 -10 -18 -29q-4 -16 -23 -36q-8 -55 -28 -80q2 -8 -1 -18.5t-16 -28.5q-2 -39 -22 -115q0 -31 -6 -39q2 -61 28 -184q12 -47 35 -76q2 -16 19.5 -28.5t21.5 -18.5q14 -14 41 -35q68 -39 225 -61q31 -5 59 -5q17 0 32 2 q158 23 288 95q18 14 60 32q23 8 61 31q10 2 28.5 17.5t31.5 15.5q14 18 45 31v-29q-16 -14 -54 -31q-25 -18 -80 -47q-59 -45 -120 -63q-16 -14 -50 -27q-43 -12 -53 -18q-27 -14 -104 -29q-16 0 -47 -12q-8 0 -41 -6q-14 -3 -25 -3t-20 3q-36 -6 -65 -6q-33 0 -56 8 q-25 0 -66 12q-10 -2 -24.5 6t-24.5 8q-20 4 -53 29q-45 16 -62 41q-14 10 -53 65q0 16 -16 33q-2 25 -19 66q0 33 -10 92z" />
<glyph unicode="D" horiz-adv-x="1060" d="M45 918q33 12 37 12q12 12 27 6h2l2 2q12 6 26 2q14 -76 13 -96q4 -29 0 -60q0 -14 2 -43v-45v-61q-4 -6 0 -19q2 -6 4 -16q-10 -2 -13 0l-4 -2q0 6 6 20q0 6 4.5 16.5t4.5 15.5t6 22.5t6 27.5q8 35 33 99q4 6 4 28q8 6 8 11l2 4q0 14 10 22q4 23 15 39q16 41 59 113 q8 14 25 41q78 104 192 176q43 27 117 45q25 4 52 4q52 0 108 -16q14 -4 43 -17l34 -24q47 -33 68 -64q57 -53 129 -188l-4 4q-10 14 -10 16l4 -4h2l4 -12q4 -12 18 -37q4 -14 12.5 -46t22.5 -99q4 -12 2 -39q2 -16 2 -27t-2 -16q2 -5 2 -13q0 2 0 -10q-2 -14 -2 -39 q-10 33 -4 33q0 -4 2 -18q0 -16 -6 -23q4 -12 0 -37q-4 -23 -13.5 -63.5t-31.5 -93.5q-8 -37 -41 -103q-12 -20 -39 -63q-8 -16 -35 -47q-8 -18 -63 -74q-39 -39 -92 -80q-4 0 -9 -4l-2 -2l-12 -6q-18 -23 -84.5 -46.5t-142.5 -23.5q-55 0 -105 14q-84 23 -106 131 q-2 2 -2 11q0 41 10 53l12 12t19 4q16 -8 18 -25.5t2 -33.5q2 0 3 -3t1 -5v-8q0 -4 9 -11q2 -12 12 -22q16 -16 19 -18.5t3 -6.5l4 -4h7q6 -2 10 -6l8 -4q10 -10 29 -12q27 -4 32 -9q49 -4 74 -4q18 2 53 10q18 8 39 11q68 31 109 63q63 53 145 160l60 117q12 41 24 57 q-4 16 4 25q0 4 6 16l3 8l2 4q-2 6 6 23l2 2q2 18 10 55v14v23q2 18 0 53q-3 17 -3 45q0 14 1 31q0 8 -10 27q0 6 -11 82q4 6 0 12q-8 8 -10 14l-4 4q-8 31 -31 76q2 10 -5 18.5t-10 12.5t-4 8t-13 12q-16 39 -35 51q-2 12 -21 27q-31 39 -77 76q-4 0 -15.5 8t-17.5 9 t-18.5 9.5t-27 8.5t-46.5 10q-25 0 -72 -2q-135 -20 -252 -170q-4 -8 -15.5 -22.5t-17.5 -22.5q-8 -18 -30 -53q-29 -53 -41 -84q-4 -18 -23 -54q-6 -18 -18 -57q-4 -14 -19 -43q-4 -18 -12 -61q-2 -14 -14 -41q4 -8 -1.5 -30t-19.5 -69q0 -4 -10 -53v-8q-2 -10 -2 -23v2 q0 -2 -2 -6q-2 -33 -8 -96v-29l2 -6q-4 -25 -7 -114q1 -20 1 -48.5t-1 -66.5q-1 -12 -1 -25q0 -34 4 -82q4 -80 4 -108q2 -18 6 -56q4 -10 -8 -22l-5 -2v2l-2 -12q-22 -15 -37 -15h-2l-16 23q-2 10 -4 35l-6 18q-10 49 -10 92q0 18 2 35q2 20 2 62q-2 14 -2 33.5t2 45.5 q0 2 4 17q-4 20 0 59q0 20 4 29q0 29 2 33q0 53 2 43q4 6 4 21t4 22q4 20 4 50v21q2 12 6 41q0 12 -6 37q4 8 4 21v20q2 8 2 27.5t2 27.5q2 10 -6 35q-2 12 2 39v2l-4 4q-10 10 -12 22.5t-2 43.5q2 10 -6 26q-6 49 -21 142v6q-4 10 2 24l2 3h-16z" />
<glyph unicode="E" horiz-adv-x="1036" d="M39 389q0 33 6 100q2 8 8 41q6 25 6 39q4 39 23 115q6 12 8 41q8 10 12 38t17 38q0 23 18 57q2 4 13 47q6 20 30 53q16 45 37 84q14 12 32.5 43t35.5 41q102 127 295 185q55 -2 71 -6q41 -6 62 -31q10 0 28 -23q37 -45 37 -91v-9q12 -31 13 -66q0 -53 -27 -92 q-14 -25 -51 -73q-44 -35 -63 -35h-3q-6 10 0 20t12 21l25 73q-6 8 0 21q6 16 6 22q-2 25 -4 72l-29 74q-12 4 -36 31q-18 20 -37 18q-25 4 -47 4q-82 0 -136 -53q-23 -12 -47 -37q-37 -39 -43 -45q-20 -29 -57 -92q-8 0 -8 -9.5t-2 -11.5q-8 -25 -41 -71q-12 -66 -43 -121 q2 -6 -5.5 -16.5t-4.5 -16.5q-8 -23 -21 -74q4 -2 4 -6t-7 -10t-7 -10q-4 -31 -17 -99q0 2 4 -16q2 -10 -6 -14q0 -4 -6 -21q-4 -12 2 -22q38 25 53 25q3 0 5 -1q0 2 22 2q47 -12 125 -18q109 -12 127 -15q41 0 98 13q49 8 97 18q10 6 61 17q25 6 70 22l12 -3t8 -13 q-6 -18 -43 -23q-31 -16 -92 -24q-18 -4 -55 -17q-23 -2 -72 -16q-104 -17 -188 -17q-37 0 -70 3q-31 0 -88 6q-10 -4 -29.5 2t-25.5 6q-12 0 -21 -14v-15q2 -8 10 -8v-16q-8 0 -10 -9q2 -6 6 -10q-6 -10 1 -29.5t3 -29.5q6 -4 4 -12.5t2 -12.5q4 -41 21 -80q8 -23 33 -67 q16 -18 41 -64q4 -2 5 -9t7 -7q10 -20 45 -43q45 -51 176 -94q11 -1 23 -1q87 0 256 38q33 8 92 36q4 0 69 31q27 14 84 37q20 14 42 28.5t42 16.5q-2 2 -6 -16q-20 -4 -20 -17q-23 -14 -68 -47q-39 -20 -117.5 -56t-164.5 -59q-10 2 -27 -8q-79 -17 -148 -17q-65 0 -120 15 q-6 10 -21.5 8t-21.5 2q-18 8 -54 35l-53 33q-18 18 -45 53q-16 8 -29 31q-18 33 -20 37q-35 61 -49 92q-23 53 -25 100q0 12 -7 36t-7 38z" />
<glyph unicode="F" horiz-adv-x="813" d="M43 514q2 6 2 18q-2 4 -2 11q0 4 2 8q2 20 8 27l5 4t16 10l10 6q14 10 27 12q14 -12 22 -24l6 -11q35 -47 43 -86q10 -12 15 -36q4 -14 10 -38t12 -71q4 -10 4 -29q0 -2 2 -4v-6q2 -2 13 -55v-4l2 -2l2 6h-4l-27 2q6 6 10 20q2 8 8 25l7 12l2 6q0 2 2 4q0 12 5 32t5 28 q14 41 18 72q0 12 13 41q0 6 2 14v14q2 8 8 25q0 6 6 19.5t8 20.5t5 23.5t7 22.5q8 33 31 96q6 14 12 41q14 35 37 106q6 18 25 52q2 10 10 26q2 6 5 16.5t7.5 17.5t6.5 9l2 2q2 4 0 7q4 4 6 10v2l2 2v4q2 2 4 5t6 11q10 25 37 70q0 2 2 4v4q2 4 8 8q0 23 12 27q10 16 31 49 q8 23 21 35q6 6 14 22q25 33 72 70q61 47 112 47q55 0 105 -59q27 -31 53 -94q0 -4 4 -14.5t4 -18.5q4 -14 12 -45q0 -6 3 -23v-22v-45q2 -6 -3 -27q-2 -4 3 -8q0 -23 -7 -45q2 -4 -2 -12q-2 -18 -4 -62q-2 -2 -4 -5l-2 -3q2 -18 -4 -35q0 -6 -4 -14q0 -16 -12 -49 q0 -10 -7 -31q0 -2 -4 -17q-10 -35 -22 -57q0 -12 -12 -24q-6 -37 -41 -52q-27 -8 -27 21q0 6 5 15t5 11.5t21 42.5q14 25 32 80q2 10 11 31q2 4 4 12.5t4 12.5q-8 10 0 22q2 10 6 25q-2 10 4 16q4 12 -2 19q0 14 10 22l-2 6q0 4 -6 10q0 37 6 76q10 -10 23 -26l2 -2v4 l-14 -15l8 -12q-16 10 -17 23q-4 2 -4 18l-4 6q2 2 2 8l2 9q-2 2 -2 6v4l2 4v4l-2 4v33q-4 8 -4 21.5t-2 19.5q-2 14 -6 35q-4 4 -4 14v2q0 4 -4 8q-12 37 -25 51q-2 8 -8 15q-31 47 -74 53h-8q-32 0 -68 -29q-74 -61 -151 -198q-10 -18 -29 -58q-4 -8 -4 -12 q-16 -37 -55 -113q-4 -14 -19 -45q-2 -10 -10 -28.5t-59 -165.5q0 12 -8 -29q-2 -2 -3 -8q-8 -33 -28 -98q-2 -6 -8 -21q-6 -25 -17 -74q0 -8 -6 -18q-2 -6 0 -10q-2 -2 -10 -43q-18 -80 -27 -125q0 -4 -2 -16.5t-6 -36.5q-2 -2 0 -11q0 -10 -4 -16l-2 -6q16 0 49 2t49 2 q18 -1 32 -1q29 0 44 3l41 2q41 4 121 16l276 19q8 8 17 2q70 4 90 4t61 2q41 4 51 -23q-4 -18 -24 -18h-10q-14 0 -47 -4t-53.5 -3t-63.5 -3l-90 -8q-82 -8 -154 -11q-51 -6 -154 -16q-8 0 -33.5 -4t-37.5 -4q-35 0 -103 -13h-8l-26 -2l-19 -2h-4q-10 0 -12 -8q6 -8 5 -15 t-1 -9v-7q0 -4 4 -12q0 4 -2 -8l-2 -8q4 -16 8 -43v-6q4 -14 2 -21q-2 6 -2 -45q0 -10 6 -27v-2l4 -2q-8 -16 -2 -30q-4 -10 0 -35q2 -12 0 -39q4 -8 0 -27q0 -23 4 -30q-6 -18 4 -39l-8 -6q0 -63 1 -63l1 3v-16q4 -18 -4 -29q4 -20 2 -27q4 -23 0 -28q4 -6 3 -14.5 t-3 -22.5t-1 -34.5t-3 -59.5v-11q4 -4 -2 -12q0 -41 -27 -53l-2 -2q-3 -2 -8 -2t-12 2l-6 4q4 4 28 2l7 -2v-4q-41 0 -48 6l-4 4v8l-2 -4q2 2 2 0l2 -4l13 10h-11q-8 -2 -15 10.5t-17 49.5q-2 4 -6 18v2v2q-8 25 -15 172q2 14 0 54q2 4 13 53q-2 4 6 16v8q-4 8 0 21 q2 16 4 51q2 18 10 59q0 18 4 48t4 41v4v6q0 2 -2 10q2 18 8 53q0 6 4 27q2 16 0 26v25q-7 -4 -30 -4q-15 0 -37 2q-2 2 -10 2h-11q-10 0 -16 8q-23 6 -16 29q12 8 30.5 21.5t38.5 7.5h45q0 14 -1 22t-4 26.5t-5 26t-2 18.5t-2 15v4q-4 12 -4 19.5t-3 23t-6 22.5t-4 21.5 t-14 38.5q2 4 2 10v2q0 2 -4 3l-4 2q-6 20 -20 57q-4 2 -9 10q10 -4 13 -8l4 -8l2 4h-4l-4 -2q4 -2 6 -4q-4 -31 -17 -72q-16 -25 -36 -14q-2 4 -13 61q-4 4 -7 22.5t-1 22.5q-2 18 -2 37zM186 -59l45 8q-8 -31 -8 -47q-2 -31 -10 -88q0 -33 -8 -95q2 -10 0 -30 q-2 -18 -2 -29q-2 -10 0 -29.5t0 -27.5q6 -86 6 -82v-15q2 -2 2 -4q4 -10 8 -28.5t6 -24.5l4 -12l7 -6h-3l3 -4q0 -10 -5 -13q-2 -1 -4 -1q-9 0 -18 14q4 8 2 18q-4 14 -4 25q0 2 2 4v6q6 18 6 31l18 6l3 2h2q4 0 4 -4v-7q0 -2 -2 -6q-14 -6 -31 11v157v35q-4 4 0 10v37 q-4 49 -4 86q0 -6 -8 53q-2 6 -2 35q0 4 -9 15zM211 -205l18 -37v60q-20 -9 -20 -18q0 -3 2 -5z" />
<glyph unicode="G" horiz-adv-x="782" d="M-444 -586v-2q2 0 2 99q18 96 45 159q25 57 88 158q8 12 26 35q2 10 15 12q8 -6 -2 -25q-10 -10 -58 -88q-10 -18 -26 -57q-12 -12 -17 -53q-2 -6 -24 -86q0 -8 -2 -25q-2 -4 -13 -71q0 -20 4 -58q4 -10 3 -28q-2 -10 6 -23q2 -4 11 -19.5t9 -23.5q0 -14 7.5 -33.5 t10.5 -27t17 -45.5q18 -29 59 -82q2 -16 25 -39q-2 -8 10 -17.5t12 -17.5q4 0 9.5 -8.5t11.5 -5.5q8 -16 37 -33q2 -12 31 -31q18 -18 60 -41.5t58 -40.5q27 -12 80 -41q10 4 24.5 -4t22.5 -8q8 -6 28.5 -9t29.5 -10q18 -2 51 -10q8 0 10 4q16 -8 23 -10q4 2 4 4l-6 4l6 2 l2 -2q20 -15 41 -15q12 0 24 5q4 -10 25 -4q33 -4 45 6q6 -4 12 -4q8 0 20.5 7t18.5 7q78 37 119 99q10 10 78 141q0 8 8 23.5t6 23.5q0 2 8 18q6 10 2 21q18 69 21 69v-1q4 8 4 32q0 14 6 23q0 18 8 53q0 12 6 37v20q-2 12 2 29q6 27 7 31v12q0 6 4 64q0 29 2 94v31 q-2 8 0 24q0 20 -2 31q6 16 -2 28q6 10 1 30t-1 28q0 20 -3.5 62t-11.5 126v13q-4 20 -2 57q-8 0 -8 6q-2 2 0 10t2 10q-6 6 -5 19.5t0 20t-7 44.5q0 10 -10 25q4 4 -5 10q2 12 -14 62q-10 76 -47 223q-8 47 -31 113q-4 2 -8 0q-4 -4 -8 -6.5t-16 -14.5q-76 -66 -148 -103.5 t-133 -41.5q-8 4 -31 0q-12 2 -33 12l-25 10t-34 27q-8 -2 -11 8t-9 10q-8 25 -25 70v70q-4 13 -4 27q0 24 12 50q0 20 23 88q0 33 30 103q2 37 29 78q-4 4 0 8t4 6q12 14 27 45q14 25 41 72q27 37 54.5 74.5t59.5 60.5q16 20 72 50q36 20 83 20q23 0 48 -5q61 -33 68 -71 q8 -12 24 -72q8 -35 2 -49q4 -29 5 -62q0 -49 -11 -94q2 -10 -10 -35q-23 -17 -43 -17q-11 0 -22 5q-8 8 -7 23q2 20 2 24q2 33 13 94q0 20 -4 64q-4 37 0 47q-8 25 -33 72q-6 8 -43 35l-47 2q-29 -25 -88 -70q-12 -14 -37 -45q-8 -16 -33 -47q2 -10 -11.5 -21.5 t-14.5 -18.5t-13 -22q0 -12 -12 -24q-4 -14 -25 -37q0 -18 -7 -24.5t-9 -28.5q-8 -12 -17.5 -41t-19.5 -41q0 -8 -10 -25q-6 -35 -21 -106q0 -37 -4 -25q-2 -10 -2 -24q0 -21 4 -52q-2 -4 -2 -10t7.5 -21.5t2.5 -25.5q4 -16 21 -45q10 -10 27 -31q6 0 28 -18q25 -8 51 -8 q70 0 146 55q23 16 49 43l55 55q10 14 25 43q-4 14 -2 19q2 2 18 12q34 20 55 20q6 0 11 -2q4 -4 5 -14t5 -16t2 -29q2 -2 12 -45q18 -72 23 -117q8 -31 8 -94q8 -18 10 -59t9 -62q0 -16 6 -49q-2 -8 2 -41q6 -39 4 -47q6 -14 2 -43t0 -45q4 -8 2 -23q8 -8 6 -30.5t2 -30.5 q-2 -14 4 -43q0 -14 4 -16v-48q4 -6 0 -22q4 -4 3 -13.5t1 -13.5q-6 -6 -6 -12q0 -4 6 -18q4 -12 -2 -19q0 -20 2 -18q4 -6 -2 -19q2 -3 6 -30q-4 -2 -4 -15q2 -4 2 -37q0 -2 2 -12q1 -1 1 -2q0 -3 -4 -4q-5 -2 -5 -21q-2 -14 4 -36q0 -20 2 -19q-2 -4 -2 -13t-4 -14.5 t0 -19.5q6 -14 4 -20q0 -14 -8 -41q0 -8 -6 -21q4 -16 -4 -39q-6 -20 2 -39q-10 -39 -9 -49t-1 -10q-8 -33 -17 -49q-4 -6 0 -17q-4 -33 -20 -98q0 -2 -8 -12q-4 -6 0 -15q-4 -14 -21 -39q0 -12 -4 -18q-25 -72 -61 -111q-2 -8 -15 -20q-45 -43 -65 -59q-41 -31 -78 -45 q-16 -4 -51 -19q-53 -13 -104 -13q-58 0 -115 17q-27 8 -80 23q-190 68 -301 174q-33 37 -64 71q-39 45 -53 80q-4 0 -6 6.5t-6 8.5l2 6q-41 45 -80 178q-12 92 -12 96z" />
<glyph unicode="H" horiz-adv-x="657" d="M-43 332q14 12 49 28q2 2 5 22.5t14 20.5q6 0 16 -4q0 -8 7 -18t5 -14q23 -6 43 -7q0 6 1 13.5t3 11.5q-2 6 -2 21q4 10 0 18q2 14 2 45q-2 29 0 43q2 10 -4 29q-2 12 0 22q0 14 -2 23q2 10 2 30.5t2 30.5q-4 4 -4 19l2 4q2 4 -2 12q10 14 -4 20q4 6 4 18.5t4 18.5 q-4 4 -4 17v6q4 12 -6 14l-6 25q0 10 -12 20l4 2l-2 2q-2 0 -2 4q0 25 -2 82q-3 33 -3 57q0 12 1 23l6 166q0 33 -2 98v5l-2 6q-2 6 0 14q-4 35 14 41q10 4 18 6q12 4 17 -6q4 0 16 -25q4 -18 2 -59q4 -19 4 -41q0 -15 -2 -31v-61l2 -4l-4 -193q-8 -10 0 -35q0 -49 -4 -69 v-10q0 -22 6 -56q4 -18 -6 -49q4 -20 2 -63l-8 -17q0 -14 6 -41q1 -10 1 -24q0 -28 -3 -70q2 -8 0 -27q6 -20 2 -45v-20q-2 -12 -2 -21q6 -10 28.5 -13t30.5 -11h17q62 0 170 -12q2 0 43 6q2 12 2 30t-2 41q4 8 4 21q-2 20 4 63q0 10 1 27.5t-1 26.5q7 26 7 74q0 24 -2 53 q-1 26 -1 48q0 52 8 81q4 18 -2 49q0 49 -4 63q2 16 8 45l-2 2q-6 4 -6 9q0 8 2 21t2 20q4 20 -8 34v6l-2 9v16v16q0 36 -6 95q6 6 2 14q-4 10 -4 12q-4 59 -4 174q4 2 12 11q2 0 7 4t9 6q6 -8 13 -10l6 -2q8 -4 18 -21q0 -74 13 -108q-4 -8 2 -56q2 -4 -5 -10l-2 -2 q0 -35 -4 -207q4 -12 0 -31l-2 -8q0 -14 4 -20q0 -27 -4 -80q4 -12 -4 -35q6 -14 4 -39q-2 -33 -2 -39q-6 -4 -6 -18v-6l6 -13l-4 -73q0 -10 -2 -29v-37q0 -10 -6 -35q6 -8 -2 -22q-4 -12 2 -21q-12 -12 -10 -26q4 -12 8 -27q0 -14 -4 -20q-2 10 -2 -58l2 -6q20 -6 51 -2 q8 -6 20 0q12 -3 33 -3t53 3q33 0 95 8h14l14 2q20 0 29 -4q16 6 49 8q59 4 76.5 4t48.5 11q8 1 19 1q22 0 53 -3q14 4 41 12v-14l-13 2l-2 -23l-28 2v-8q-29 -4 -78 -8q-4 -2 -53 -6q-174 -16 -197 -17q-33 0 -47 -4q-106 -10 -125.5 -11t-56.5 -9q-2 -2 -2 -11l2 -6 q0 -16 -4 -22q4 -10 0 -17v-6q-2 -6 -2 -10q0 -6 2 -10v-88v-35q0 -23 2 -35q-4 -8 -2 -29.5t-2 -29.5q0 -14 2 -41q1 -11 1 -26q0 -29 -3 -73q-2 -10 4 -30q-5 -18 -5 -45q0 -13 1 -29q2 -61 2 -72q-4 -4 -10.5 -21.5t-22.5 -21.5q-16 2 -29 23q0 2 -4 12q-16 12 -6 21 l-12 67q-2 -4 -4.5 25.5t-10.5 81.5v12q0 38 -10 80q4 16 -4 41q-10 39 -10 41q2 20 -15 59q0 16 -22 51q-2 6 -10 19q-6 6 -18.5 15t-12.5 24q-37 51 -70 73h-53q-8 -12 2 -32q0 -20 -4 -64q0 -12 4 -43q-2 -6 -2 -15.5t-8 -19.5q2 -14 10 -37q-2 -10 -8 -28q-6 -12 2 -23 q-1 -10 -1 -22q0 -26 3 -64q-4 -4 -2 -10v-6q0 -2 -2 -4q-4 -14 -6 -41q-6 -14 -1 -35t1 -31q1 -13 1 -24q0 -28 -7 -41q0 -31 4 -92q-6 -4 -6 -19q6 -12 2 -29v-49q0 -10 -5 -22q4 -6 5 -13q0 -6 -4.5 -17t-4.5 -15q0 -8 7 -13q0 -41 -3 -43q6 -27 6.5 -81t4.5 -78v-21 q0 -14 -11 -18q2 -14 -14 -35h-3q-7 0 -15 8q-2 2 -6 2q-9 23 -9 40q0 20 13 30q-4 48 -4 108.5t4 134.5q4 4 2 9v16q0 18 2 53q4 61 4 181q6 45 6 90q1 1 1 26q0 20 7 60q-8 8 -4 22q4 16 0 23v59q2 49 6 148q1 12 1 31t-1 44q-18 0 -55 2q-20 2 -55 19h-25q-6 8 2 10l2 2 q0 2 -2 4l-4 6q-5 5 -5 10q0 4 3 9zM287 270q10 -20 32 -63q-2 -23 19 -72q8 -4 18 -22l4 -7q2 -10 15 -18q6 -18 26 -51q2 0 2 -4v28q5 77 7 222q-14 0 -23 -2q-16 -4 -29 -2q-23 -2 -71 -9z" />
<glyph unicode="I" horiz-adv-x="829" d="M-55 199q-10 26 -10 59q0 46 20 104q4 12 14 37q6 2 8 13l3 8q4 8 4 10q20 27 67 74l19 12q23 33 73 62q20 -10 15 -29q-6 -6 -21 -6q-6 -2 -6 -13q-16 -12 -45 -45q-33 -43 -41 -55q-20 -33 -25 -63q-4 -4 -10 -21l-2 -12q0 -4 -4 -12q-2 -20 5 -62.5t7 -60.5l11 -27 q8 -27 39 -78q2 -14 18 -34.5t20 -30.5q14 -2 21 -21q6 -2 22 -12l13 -8q2 -4 10 -8q6 -10 33 -25q20 -10 59 -23q14 -18 33 -12q23 -10 117 -10q96 37 161 129q6 8 23.5 35.5t60.5 138.5q8 45 21 68q2 8 0 26q6 43 20 127q4 25 4 72q0 16 5 47q2 -12 2 33v45q4 25 -9 39 q-4 16 -2 47q-10 8 -6 20v6q0 6 -6 15v-1q-2 0 -2 64l-4 29q-4 18 4 29q2 8 -2 16l-2 6q-6 16 -2 29q-2 39 -10 114q-2 -2 -2 23q-2 35 -17 100q-6 0 -16 -7t-16.5 -10t-12.5 -17q-10 0 -24.5 -8.5t-20.5 -8.5q-12 -10 -49 -24q-16 -6 -49 -23q-4 0 -21 -8q-83 -11 -124 -11 q-21 0 -31 3q-16 -4 -34 3t-36 17t-6 21q8 2 16 16l2 6q8 12 16.5 13t20.5 8q23 -14 70 -39q26 -3 49 -3q118 0 192 74q66 27 80 68q-1 10 -1 24q0 27 5 66q0 8 5 21q2 6 14 14h6q6 4 14 14l39 19q12 0 37 -11q12 -24 12 -57q-2 -8 -10 -29q-6 -8 -20 -24q0 -8 -3 -23.5 t-3 -21.5q2 -10 4 -37q-1 -5 -1 -31.5t1 -73.5l2 -143q0 -61 1 -78.5t-7 -52.5q0 -2 2 -10v-10q0 -6 -4 -19q-2 -14 0 -47q-2 -8 -7 -25q4 -12 4 -20v-10q-2 -6 -2 -10q4 -14 0 -40t0 -38q2 -16 -6 -49q1 -7 1 -16q0 -19 -3 -51q-4 -46 -6 -73q0 -12 -8 -35q2 -8 -2 -22 l-2 -4q-2 -8 0 -15q-12 -79 -14 -79l-1 2q-4 -2 -4 -6.5t-1 -8.5t-9 -18t-4 -23q-6 -20 -25 -63q-12 -20 -32 -68q-8 -14 -31 -35q0 -2 -23 -30q-20 -18 -59 -58q-25 -23 -86 -51q-23 -8 -68 -18q-22 -2 -40 -2q-44 0 -74 10q-23 8 -66 27q-33 20 -43 18q-14 18 -50 50 t-52 50q-29 49 -47 74q0 -6 -8 19q-4 4 -5.5 10t-17.5 39q-14 23 -12 41z" />
<glyph unicode="J" horiz-adv-x="790" d="M-113 -57q0 14 4.5 43.5t7.5 47t18 56.5t52 109q0 8 10.5 22.5t10.5 24.5q16 27 57 76q16 20 55 57q154 160 359 268q2 -2 8 -2q6 -6 4 -12q-41 -27 -121 -86q-8 0 -16 -8l-8 -9l-3 -2l-6 -4q-14 -8 -81 -59q-25 -25 -78 -74q-84 -94 -140 -192q-4 -18 -28 -52 q-12 -31 -27 -92q-8 -29 -8 -96v-37q0 -20 8 -33q4 -20 15 -63q6 -4 10 -19v-6q12 -25 39 -71q12 -4 45 -49q20 -18 67 -46q4 -2 19 -16q8 -8 16 -8q27 -25 92 -37q6 2 11 -2l4 -2q2 -2 12 -2q27 0 76 -4q78 2 141 84q12 16 39 49l8 16q18 35 43 109q8 10 8 24l2 11 q2 31 23 84q-2 10 5 29.5t7 29.5q4 35 12 109q2 20 9 57v33q6 84 16 250v36q2 48 2 79.5t-2 45.5q4 12 -3 35t-7 31q-10 10 -10 33.5t-1 33t-8 45.5q-6 31 -2 52q0 14 -2 57q-4 37 -2 57q-6 43 -4 47q0 12 -10 84q-2 -8 -2 60q2 16 -4 43q-4 0 -13.5 -7t-13.5 -7 q-39 -16 -123 -37q-39 -3 -66 -3q-14 0 -24 1q-8 0 -35 -2q-23 -2 -37 0q-18 2 -30 10q-2 4 -2 8q0 14 24 14q8 2 8 11q12 16 45 6h7q4 -2 6 -2q32 -3 62 -3q93 0 163 33q25 8 33 56q0 29 8 84q-4 12 8 20q6 2 22.5 12.5t26.5 10.5q6 0 13 -2l20 -5q9 -11 23 -79 q-2 -4 -23 -50q-14 -29 -6 -49q0 -23 -8 -69v-56q1 -19 1 -35q0 -32 -5 -51q2 -6 -2 -45l6 -123q2 -10 -4 -32q0 -90 6 -273v-49q-2 -27 -2 -117q-2 -14 -10 -45q0 -29 -5 -75q-6 -55 -6 -80q-2 -8 0 -19q-2 -33 -14 -102q4 -6 0 -17l-4 -4q-4 -49 -15.5 -87t-25.5 -113 q-2 -10 -12 -29q-4 -2 -4 -6v-4q0 -2 -3 -6q-10 -43 -47 -99q-8 -16 -16 -24l-10 -13q0 -2 -3 -6t-5 -6q-63 -68 -127 -88q-52 -24 -111 -24q-42 0 -88 12q-4 4 -14.5 4t-14.5 4q-33 10 -73 29q-14 4 -23 12l-6 6q-6 6 -27 16q-18 18 -63 58q-18 20 -47 65q-16 23 -31 64 q-20 61 -21.5 70.5t-3.5 44.5v47z" />
<glyph unicode="K" horiz-adv-x="1265" d="M70 -674q0 23 12 66q0 -8 -8 24q0 12 10 33q-6 10 2 29q-2 12 2 53l6 43v27q0 8 8 20q-2 22 -2 37q0 23 4 31q-2 12 2.5 33.5t3.5 29.5t3 23q2 16 0 51q10 10 4 29.5t2 29.5q-6 2 -4 11l2 8q-2 14 6 41q2 18 -8 51q10 16 4 45q6 10 0 22q-1 8 -1 16q0 24 5 48q-4 2 -2 8 l4 8q-4 8 0 23q6 12 -2 22q6 4 2 21q-4 10 0 26.5t0 24.5q4 39 2 57q-8 6 -4 17l4 16q-6 10 -2 45q8 8 4 27q-6 20 -2 27q2 14 -4 40q8 14 8 46q-2 2 0 12q4 6 -6 6q6 12 0 35q0 31 8 86q-5 29 -5 56q0 9 1 18q12 2 2 12q-6 4 -4 12q4 6 0 8q-2 18 -16 43q-6 14 4 43 q-2 18 -9 54q-4 45 -4 196q0 20 -6 58q0 18 2 51q8 12 16.5 12t19.5 10t16 13q27 -18 30 -35v-45q2 -6 4 -93q0 -25 -2 -69.5t-2 -61.5q0 2 8 -6q-16 -43 -14 -53q-2 -23 -8 -59q0 -16 10 -45q-6 -10 -3 -29t-3 -27q6 -16 0 -51q2 -18 0 -57q0 -2 6 -8q4 -4 0 -9 q-4 -12 0 -28q0 -4 -3 -20.5t-1 -22.5q6 -20 -4 -62q4 -10 -4 -28q4 -10 0 -13q4 -8 4 -16q0 -10 -4 -19q-2 -10 2 -34q2 -6 -4 -19q-2 -8 4 -22q-6 -10 -2 -27q6 -25 6 -29q0 -10 -6 -16t-2 -20q4 -18 2 -23q-2 -18 0 -35v1q-2 0 -2 -79q-2 -8 -1 -23.5t-3 -25.5v-13 q0 -21 4 -54q0 -18 -4 -54q0 -2 4 -16q2 -12 -8 -16q4 -41 -4 -58q6 -6 4 -20q-4 -18 -2 -25q6 -20 -5 -55q1 -7 1 -15q0 -25 -9 -65q6 -6 2 -17.5t2 -15.5q0 -27 -2 -22q0 -14 -6 -39q2 -11 2 -25q0 -24 -6 -59q8 -8 2 -29q-6 -20 0 -28q-2 -12 -2 -41q-2 -6 4 -14.5 t6 -12.5l-4 -8q-10 -14 -37 -35q-6 0 -30 12zM297 545q0 23 14 51q66 37 82 37q8 0 17 -2q4 -23 24 -70q80 39 213 170q49 57 148 162q12 29 12 25q16 25 53 65q18 29 68 74l33 14q2 -2 16 -11t12 -20q-12 -33 -47 -102q2 -10 -6 -20q-10 -18 -12 -23q4 -10 -4.5 -28.5 t-8.5 -24.5q-2 -16 -18 -45l-2 -13q-29 0 -31 2q-14 12 -12 33q4 14 8 31q-8 10 -16 4t-60 -57q-12 -10 -35 -35l-108 -107q-31 -31 -94 -73q-2 -6 -12.5 -12.5t-86.5 -47.5q-2 -6 2 -41q12 -12 13 -14q-4 -6 -4 -14q0 -10 13 -33t18.5 -32t14.5 -27.5t15 -24.5 q14 -4 25 -21q16 -29 16 -28q12 -8 29 -31q12 -6 29.5 -28.5t29.5 -28.5q76 -76 191 -121q55 -29 176 -70q37 -14 108 -22q8 0 58 -13q35 -8 55 -6t61 0l-4 -41q-8 0 -37 4q-25 2 -39 0q-39 8 -122 21q-41 10 -127 26q-70 25 -107 35q-109 47 -170 82q-25 14 -74 51 q-16 12 -53 39q-10 2 -24.5 19.5t-26.5 19.5q-20 16 -51 60q-37 18 -72 98q-10 18 -27 29q-10 29 -30 86q-10 8 -21.5 18t-9.5 25z" />
<glyph unicode="L" horiz-adv-x="688" d="M18 127q0 8 9 12l10 11q10 4 24 14q12 4 37 -17q2 0 5 -2t2 -3t10 -7q6 8 6 29q2 4 2 10v12q0 12 6 21v6q4 25 4 33q4 23 8 67q2 8 6 21v16q4 8 3 12v7l2 4q2 6 -2 10q2 12 8 39q4 10 4 33q-2 14 4 37q-2 8 2 22q0 6 4 21.5t2 23.5q4 29 10 84q0 18 6 27q0 2 -2 2v2h-2 l-2 2q2 4 2 11t2 11q-2 10 0 25q4 18 4.5 22.5t2.5 8.5l2 4l6 43v14l12 86q0 4 4 8q0 4 -6 9q10 4 10 16v18q6 51 27 135q-6 4 -2 9l4 4q6 31 24 88q4 12 17 35q20 29 42.5 58.5t55.5 35.5q18 8 55 16q4 -4 13 -2h22q41 -6 84 -28q0 -8 6 -9l4 -2q6 0 13 -10l16 -10 q2 -4 14 -15l9 -6q2 0 5 -3t5 -9l4 -8q4 -6 12 -12q0 -2 4.5 -5.5t6.5 -7.5q4 -10 20 -28q2 0 3 -2t1 -5l2 -4q0 -8 4 -8q8 -12 21 -37q0 -6 7 -16t7 -16q18 -25 19 -54q6 -6 6 -10l2 -6q2 0 2 -4q4 -18 10 -55q0 -4 4 -25q-6 -16 -2 -27q0 -35 4 -45q-4 -37 -5 -57.5 t-13 -65.5q-2 -16 -13 -47q-4 -12 -14 -37q-8 -8 -8 -12q-12 -23 -27.5 -45t-36.5 -33q0 -4 -4 -4l-4 -2l-2 -2q-6 0 -10 -6q-16 -14 -39 -21q-2 -4 -8 -4l-6 2h-4q-10 10 -7 21q14 16 29.5 19t18.5 5l4 5q4 4 12 8q4 12 14 16q0 8 11 17q6 20 26 59q2 12 12 31q-2 8 4.5 19 t6.5 15.5t2 6.5v4q0 8 2 12q2 18 8 53q0 39 6 51q-4 14 2 41v9q-2 4 1 9t-5 15l-2 6q-2 8 0 17q-4 6 -4 22q-10 27 -10 33q-6 6 0 12v4h2q-10 12 -10.5 17.5t-8.5 11.5q2 6 -6 16l-2 2q0 2 -2 6.5t-5 13.5t-7 13v17q-2 6 -13 18q0 6 -10 10q-4 12 -28 29q-6 10 -23 20 q-4 4 -9 11.5t-11 7.5q-6 14 -20.5 23.5t-20 12.5t-5.5 9l-4 4q-10 0 -31.5 6t-29.5 6q-57 0 -64 -2q-2 2 -8 2h-4l-4 -2q0 -4 -4 -4h-2q-4 0 -4 -4q-12 -16 -41 -51q2 -10 -4 -20.5t-8 -13.5t-2 -6t-3 -7q-4 -20 -18 -62q-12 -49 -12 -45q-6 -12 -7 -25.5t-8 -37.5v-2v-4 q0 -8 -6 -19v-18q0 -14 -1 -21.5t-7 -17.5l-2 -4q2 -10 -8 -62q-6 0 -6 -6q4 -6 0 -16q4 -8 0 -23l-2 -4q-2 -8 2 -16q-2 -14 -11 -29q-4 -10 3 -16q-4 -29 -5 -39q4 0 -6 -2v-2h-2q4 -12 -2 -58q0 -10 -4 -32q2 -6 0 -15q-4 -10 -4 -12q-2 -2 2 -10q-2 -6 -3 -20.5 t-5 -20.5v-10l-2 -5v-4q2 -8 -4 -18q2 -6 0 -21q0 -8 -4 -25.5t-4 -27.5q-2 -2 -1 -9t-4 -11q-2 -16 -4 -54q0 -2 -2 -4l-2 -2q-2 -2 2 -6q-2 -2 -2 -4l2 -4q0 -8 -6 -10v-6q0 -2 -2 -11q2 -4 2 -12v-16l-6 -4q2 -12 -6 -35q-2 -12 -4 -39v-12q0 -2 -2 -4q0 -23 -1 -29 t-4 -23.5t-3 -23.5t6 -19q0 -2 9 -11t22.5 -26.5t33.5 -31.5q-2 -6 6.5 -10.5t12.5 -8.5t69 -53q6 0 13.5 -5t12.5 -7t7 -4l10 -7q12 -8 20.5 -8t18.5 -3t31 -11q2 0 6 -2h6q6 0 23 -6q24 -2 42 -2q28 0 46 4q51 2 82 16q8 -2 8 -6q-10 -14 -47 -18q-8 -2 -27 -13 q-10 -4 -33 -10h-30q-20 -8 -54 -4q-51 4 -53 4q-12 0 -37 10h-8t-16.5 5.5t-15.5 8.5t-21.5 8t-25.5 11t-29 21q-49 27 -60 47l-6 6t-3 4t-5 2t-8 4l-4 4q0 2 -3.5 6t-13.5 6q-2 -2 -2 -8t-4 -10q-2 6 -2 -53q0 -10 -3 -24.5t-11 -33.5q4 -8 -2.5 -23.5t-6.5 -23.5 q-6 -10 -4 -14q-4 -12 -17 -20.5t-17 -14.5q-1 -2 -4.5 -2t-10.5 2q-10 10 -18 47q0 10 4 13q-8 8 -4 22l2 2q-4 8 -4 12l-2 7v2q-2 2 -2 4q0 6 4 14t4 12q-4 6 -4 19v16q4 10 0 31q8 14 2 20q4 10 0 43q4 10 0 29q-2 2 -2 6l2 6q0 4 -6 8q4 8 0 13l-4 4zM72 -27q2 8 2 29 q4 29 2 37q0 2 2 4l2 6q0 10 -2 10q0 14 2 17q-4 0 14 -10q2 -7 8 -9q-10 -53 -12 -96v-12q-4 -8 -3 -13.5t-5 -19.5q0 -4 -2 -11t-2 -9q-4 16 -4 24v10q0 6 -2 11v32z" />
<glyph unicode="M" horiz-adv-x="1673" d="M45 766q0 14 5 33.5t7 35t17 50.5q2 10 10 28q0 8 6 15l2 2q0 2 2 4v2q8 27 29 76q6 23 27 59q0 6 5 14.5t5 13.5t2 14t12 17.5t4 18.5q10 12 15.5 26.5t13.5 20.5q-2 8 10 25q4 8 4 12q12 20 58 88l10 10q18 18 35 23q14 18 34 20l50 -18q20 -20 34 -115v-82 q0 -27 -2 -82q-2 -35 -10 -98q0 -12 -3 -33.5t-3 -32t-4 -37t-4 -40.5l-4 -5q2 -2 2 -10l-2 -6q0 -2 2 -8q-6 -2 -2 -8q-2 -39 -13 -119q-4 -2 -5 -17.5t-7 -48.5q6 -16 -6 -28q2 -4 2 -13l-2 -4q-2 -8 2 -16q-4 -4 0 -14q0 -12 -8 -15q8 -14 2 -28q1 -11 1 -22 q0 -27 -7 -52q4 -6 3 -20.5t1 -22.5q-6 -14 -2 -27q-4 -18 0 -49q0 -10 -2 -28.5t-2 -26.5q0 -20 2 -64q-4 -2 0 -8v-6q-2 -23 0 -43q-2 -10 2 -35v-35q2 -2 2 -10v-43q-2 -8 4 -39v-14q-2 -6 2 -10q-4 -4 2 -15v-6l2 -6q0 -12 6 -12q8 8 19 30l6 7q0 10 4 14t4 6v4 q0 10 6 12q18 33 39 107q14 14 14 37q31 66 31 96q20 20 23 37q16 31 22 65q2 8 8 23q0 6 7.5 18.5t5.5 20.5q6 23 24 61q2 10 12 27q0 6 5.5 20.5t6.5 24.5t13 31q8 8 4 30l29 78q2 0 6 11q0 2 2 6q12 33 29 100q12 4 30 14q6 10 17 4l4 -2q6 -6 8 0q10 -2 23 -26 q-2 -2 -2 -6l2 -4q6 -4 0 -11q0 -70 -7.5 -148.5t-23.5 -238.5q0 -10 -4 -33v2q0 -18 2 -20q-6 -25 -4 -39q10 -10 -6 -16q-4 0 -5 -4q0 -4 5 -9q8 -10 0 -18q4 -4 4 -16.5t4 -16.5q0 -12 4 -49q-2 -4 10 -61q2 -12 14 -29q14 18 31 59q4 12 14 31q4 6 9 29q0 4 3 14t17 43 q10 27 10 43q12 29 13 59q8 27 18 82q8 4 8 25q-2 10 4 16q0 12 9 21l4 24q2 14 14 19q4 0 7 2t7 5t13 3q16 0 34 -14q-4 -29 -26 -109q-4 -2 -4 -6l2 -2q0 -2 -1 -8t-3 -8v-2q-2 -4 0 -7q-10 -55 -11 -100q2 -12 4.5 -34.5t8.5 -30.5q2 0 3 -3.5t1 -5.5v-8q4 -8 8 -12 q-4 -4 0 -8l2 -2q4 -8 4 -11q4 -12 21 -30q6 -6 19 -19.5t22.5 -20.5t25.5 -26q59 -23 113 -29q53 6 156 27q47 14 137 41q8 2 24.5 8t44.5 15q10 10 35 15t35 15q2 2 6 2t8 4q1 -5 1 -9l-1 -11q-2 -4 -2 -8q-18 -8 -57 -21q-8 -2 -27 -14q-31 -10 -36 -11t-15 -5.5 t-14 -8.5q-16 0 -43 -14q-8 0 -29 -10q-4 0 -10 -4q-12 -2 -37 -10.5t-41 -10.5q-2 -2 -8 -2h-8q-33 -6 -37 -4l-8 -8q-42 -5 -88 -5q-23 0 -48 1q-57 4 -122 37q-27 12 -37 24q-16 10 -64 68q0 4 -4 8l-4 6v2q-4 -14 -20 -39q-2 -12 -19 -37q0 -6 -6 -16t-6 -16 q-8 -14 -35 -33t-33 -25q-4 4 -10 0v-8q-4 10 -12 11t-19.5 3.5t-9.5 14.5q-18 20 -22 78q-8 16 -5 55q-4 4 0 10v6q2 2 2 6q-6 10 -8 43v25q0 48 6 86v2h-2v6q0 20 4 60q-2 8 3 20q4 14 0 21q4 8 4 28.5t4 28.5q-4 12 0 47q-2 12 0 35.5t0 36.5q2 4 2 8l-2 6v2 q-2 -12 -19 -39q0 -8 -6 -14l-2 -4q-6 -6 -4 -17q-4 -6 -7 -20t-7 -21q-4 -29 -27 -69q-4 -27 -29 -74q4 -20 -6 -47q-16 -37 -16 -44t-9.5 -25.5t-27.5 -55.5q4 -6 -2 -12l-2 -4q-2 -2 0 -6q-6 -10 -10 -29t-11 -27v-16q-4 -14 -10 -21q2 -4 -4 -10l-2 -2q-4 -8 -2 -12 q-6 -18 -6 -21q-10 -16 -25 -47q2 -10 -5 -23.5t-7 -21.5q-8 -2 -9 -12t-5 -12l-19 -29q-16 -16 -57 -39l-31 10q-6 23 -10 60q0 25 -6 53q8 8 2 16v6q-4 6 0 15q0 2 2 6v8q4 8 -2 10v17q-2 10 -3 17t-1 28q2 12 2 10q4 4 -2 6q0 6 2 19v16q4 16 0 31q0 25 2 67v39 q-4 23 4 39q-6 2 -2 10q-6 6 -2 17q4 12 2 18q-4 31 2 53q-4 6 0 19l2 6q0 6 -2 10v6l2 2q0 2 -2 4q0 16 2 27q0 18 -2 23q2 18 12 55q-2 8 -2 16q0 10 2 17q-4 16 6 55q0 8 6 35q4 20 0 33q0 43 5 51q-2 4 -3 12l3 4q4 8 0 12q2 6 2 15l2 16q0 16 6 29q0 10 3 30.5t2 31 t4 32t3 33.5q-4 4 -3 11t-7 7q4 6 4 21q-4 12 0 18q0 12 5 13t1 10q-2 2 -2 8q2 4 2 12l-2 4q-4 12 2 19q-2 4 -2 8t-4 8q-2 18 2 53v6l-2 7q-2 8 2 16q-2 4 -2 12l2 8q0 2 -2 7v6q-2 4 -2 6l-2 14q-2 16 -10 27q0 25 -19 45q-8 2 -12 -6t-13.5 -20.5t-21.5 -41.5 q-2 0 -10 -12v-2q-2 -2 -2 -4q-39 -68 -60 -121q-6 -6 -16 -45l-12 -16q-10 -25 -29 -80q-10 -29 -33 -84q-2 -6 -18 -58q-10 -27 -27 -84q-4 -8 -16 -20q-14 2 -20.5 15.5t-12.5 25.5z" />
<glyph unicode="N" horiz-adv-x="1126" d="M-63 598q0 18 10 49q0 29 8 37q0 33 6 47q0 14 6 23q8 43 25 125q4 33 26 92q8 29 23 88q8 6 8 18l2 6q0 23 10 31q-2 6 7 10q2 25 43 117q16 37 16 39q12 8 37 33q2 0 18 16q10 8 23 8q20 -2 41.5 -7t29.5 -23q74 -115 91 -291q8 -92 8 -105q6 -23 2 -55q0 -53 2 -55 t-2 -10v-5q-4 -8 4 -10v-35q-4 -16 2 -30q-2 -4 -8 -13q6 -4 6 -28l-8 -15q4 -4 4 -28q0 -6 4 -11q-6 -4 -4 -10l2 -2q0 -8 -2 -10q0 -100 -1 -140t-7 -114v-51q4 -12 -2 -41q0 -23 6 -68q0 -25 2 -80v-82q0 -12 6 -41q10 12 20 46q2 8 11 26q4 8 30 90q6 8 9 19l2 8v10t4 8 l4 4q0 2 2 2v3q0 4 41 147q6 4 8 15.5t6 15.5q-2 14 8 28q0 25 13 43q0 31 12 41q-2 10 12 47q2 6 4 17q12 6 11 14l6 23q0 -12 8 20v6q4 2 4 8v7q0 2 2 6q8 12 15.5 52t21.5 54q4 16 16 45q0 10 6.5 25.5t6.5 23t7 20.5t7 21q6 2 6 7v6q10 51 33 61v2q-2 4 2 4q10 4 37 -8 q2 -2 10 -2q4 -23 -4 -53q-25 -82 -41 -199q-4 -12 -4 -39q0 -2 -1 -7t-4 -8t-1 -9v-2q4 -6 0 -11l-6 -43v-6l-3 -6q4 -23 -4 -59q6 -14 7 -31v-16q-2 -12 -3 -17q6 -12 11 -57q-4 -4 0 -8l2 -4q4 -10 0 -15q4 -25 2 -28q8 -27 31 -80q2 -10 2 -35q0 -4 6 -10l2 -2 q8 -4 6 -8.5t6 -15.5t4 -21q8 -6 19.5 -24.5t50.5 -47.5q6 -10 24.5 -17.5t22.5 -9.5q38 -20 89 -21q32 0 69 9l30 12v-35q-44 -16 -60 -16h-3q-18 -8 -41 -8q-20 0 -43 6v2l-37 6q-2 0 -6 2h-8q-6 8 -17 6h-8q-16 8 -47 29q-4 2 -12 10l-4 4q-8 10 -19 9q-4 6 -11 13t-7 13 q-16 8 -29.5 33t-21.5 31q-6 14 -21 45q0 8 -9 22.5t-8 22.5t-5.5 24.5t-6.5 22.5t-1 14t-3 13q0 12 -8 32v6l-2 2q-2 2 -2 5q0 12 -10 77q-1 8 -1 17q0 19 3 47q-6 14 2 41q2 23 2 65q-16 -45 -17 -71q-4 -14 -16 -41q2 -4 -2 -9.5t-4 -9.5q-6 -18 -18 -57q4 -6 2 -12 q-6 -10 -7 -15q-10 -31 -28 -94q-10 -31 -13 -63q-6 -20 -18 -64q-18 -63 -72 -188q0 -8 -6 -15l-4 -4q-8 -6 -6 -18q-47 -68 -57 -68h-7q-6 -2 -18 -8q-14 4 -18 21q-6 29 -7 28q-2 6 3 17q0 8 -5 12q-2 4 2 14l3 2q-2 6 2 19q0 2 4 10q0 2 -6 8q12 39 -5 58q10 8 11 18 q0 12 -6 37q8 8 0 24q-4 10 0 17v49l-3 2q-2 0 -2 6q8 8 5 27v59q2 4 2 13.5t4 13.5q-2 6 2 30q-2 8 -1 24.5t-3 25.5q4 4 4 10l-2 4q0 10 4 14v33v16q4 10 -2 15q2 28 2 46t-2 25q4 45 0 56q4 18 -4 51q4 8 2 16l-2 7q-4 12 2 20v10q0 8 -4 29v8v57.5t-7 61.5q2 14 -6 41 q0 47 -14 133q-8 6 -8 22v7q0 10 -6 12q-2 25 -23 65q2 4 -2 13.5t-16.5 28t-12.5 32.5q-8 29 -34 29q-2 -2 -17 -29q-8 -18 -28 -57q0 -8 -6.5 -23.5t-8.5 -23.5q-6 -31 -29 -86q-2 -16 -20 -80q-4 -2 -4 -4q2 -2 2 -6q-6 -20 -16 -62q0 -4 -5.5 -17.5t-5.5 -19.5 q-6 -37 -4 -45q-10 -8 -10 -24q0 -23 -4 -29q-18 -35 -19 -86q0 -8 -3 -19.5t-3 -17.5v-4q0 -14 -2 -18q0 -12 2 -39q2 -47 23 -76q0 -6 5 -12.5t1 -14.5q-13 -13 -35 -13q-19 0 -45 9l-4 6q-6 10 -4 19q-14 16 -14 63q-6 8 -2 17v4q2 4 -2 12z" />
<glyph unicode="O" horiz-adv-x="1185" d="M39 477q1 13 1 38v27v18q0 33 3 52q2 51 12 82q-2 10 2 56q-4 4 0 16t4 14q6 29 23 86q10 12 2 17q12 12 27 53q10 35 32 47q8 4 12.5 -3t8.5 -13q-6 -25 -29 -72q-12 -55 -28 -168q-4 -23 -9 -96v-4v-13v-120q-2 -14 13 -39l-7 -6q10 -51 25 -154q14 -47 51 -141 q8 -10 33 -64q20 -41 45 -57l70 -70q10 -8 92 -57q76 -24 127 -24q11 0 20 1q18 -2 47 2q45 10 50 11q84 27 147 92q27 27 68 80q14 14 12 16l22 22q0 10 10.5 24.5t12.5 21.5q8 0 8 24q2 10 16.5 16.5t12.5 18.5q14 23 33 68q12 31 34 92q20 39 27 78q6 25 25 69q-2 8 4 21 q6 10 0 18q6 23 6 68t6 67q2 2 2 6t-4 12.5t-4 10.5q0 6 6 8v9q0 20 -6 56q-5 30 -5 49q0 10 1 17q10 0 10 10q-10 4 -23 48q-8 37 -40 100q-2 4 -9.5 14t-7.5 21q-6 6 -14 22.5t-11.5 24.5t-15.5 16t-14 12q-25 16 -72 50q-25 18 -82 39q-18 8 -116 14q-10 0 -95 -29 q-57 -41 -127 -149q0 -12 -10 -13q0 -14 -13.5 -33.5t-15.5 -32.5t-18 -36q2 -4 2 -8t-9 -8t-9 -13q4 -8 4 -16q0 -10 -8.5 -29.5t-8.5 -31t-12 -31.5q-4 -41 -23 -123q4 -8 -3 -20.5t-7 -16.5t4 -10q6 -16 -4 -45q-6 -12 -2 -35q4 -27 2 -41q4 -16 0 -53q-4 -35 4 -54 q-6 -6 0 -16q4 -12 2 -18q0 -2 -6 -8.5t-4 -10.5q6 -4 7 -15t7 -16q4 -31 -14 -59q-2 0 -5 11.5t-13 11.5q-12 12 -16.5 40.5t-12.5 38.5q-5 38 -5 64t5 39q-6 8 -3 23.5t-3 21.5q-2 14 6 41q-4 6 -4 24v58q2 23 10 67q0 10 11.5 57.5t39.5 135.5q10 27 33 76q43 100 92 153 q2 10 18.5 25.5t20.5 23.5q45 53 115 82q16 14 52 18.5t46 10.5q16 1 31 1q138 0 252 -112q82 -82 121 -239q6 -12 16 -68q0 -8 6 -41q4 -27 0 -43l4 -12q0 -123 -10 -178q0 -10 -6 -33q0 -12 -8 -34.5t-8 -35.5q-4 -18 -16.5 -53t-31.5 -104q-6 -23 -32 -58q-8 -35 -27 -53 q4 -8 -4 -15l-8 -7q-2 -8 -45 -78q-12 -4 -18.5 -20.5t-12.5 -20.5q-16 -18 -51 -62q-70 -76 -142 -125q-8 0 -19 -12t-21 -10q-18 -8 -58 -29q-57 -17 -97 -17q-18 0 -32 3q-19 -4 -36 -4q-21 0 -38 6q-29 0 -98 33q-84 39 -166 159q-119 174 -141 457z" />
<glyph unicode="P" horiz-adv-x="727" d="M96 -459q4 23 3 30t1 9l2 8q4 6 -2 13v47q2 2 2 8t4 10q0 14 -4 47q12 23 4 33q0 8 5 8h2q-4 4 -2 8v5q0 2 -5 6q6 12 7 20v23q-4 18 2 37q0 18 6 51q-2 4 4 37q-4 10 2 24v51q2 10 3 31t1 31t6 26q-6 8 0 21q6 14 6 25.5t2 37t9 45.5q0 6 3 18.5t4 22t5 34t4 34.5 q4 4 0 8q4 10 6 26.5t4 24t4 19.5t2 18q8 10 2 31q0 2 7 8q2 0 4 2v39q8 29 -4 47q2 12 0 37q-10 18 -2 37q-2 2 -3 8q-4 4 0 10q-2 4 3 11q2 2 0 8q-6 23 -3 33q0 23 -6 59q0 12 2 35q-4 18 0 28q2 10 -4 25q2 16 -4 37q-2 16 0 37q0 16 -8 47q-4 39 -12 115q2 4 0 6l-4 4 v2q-2 0 -2 2q-12 14 -16.5 61t-22.5 140q-4 27 12 39q25 14 31 12v2q6 10 12 10q16 -6 17 -10t12 -39q8 -27 8 -43q4 -37 10 -57q2 6 2 -37q2 -23 6 -67t2 -54q6 -90 6 -96v-31q2 -4 2 -25q-2 -4 0.5 -10t-0.5 -20q2 -30 2 -52.5t-2 -37.5q4 -33 0 -43q0 -8 -2 -13 q0 -2 2 -8q4 -14 0 -47l3 -2q2 0 4 13.5t14 35.5q0 2 4 16q0 8 6 19q-2 6 2 14l2 4q8 8 2 17q2 2 6 10v4q2 6 6.5 14.5t14.5 34.5q10 20 8 35q4 4 21 37q0 10 6 12l4 6q0 2 2 2v2q-2 6 2 15l10 10q0 10 10.5 25.5t15.5 25.5t20.5 31.5t21.5 34.5q82 94 153 118q25 4 35 11 q6 -4 33 -4q45 -8 88 -35q37 -31 47 -82q17 -30 17 -71v-13q4 -6 4 -19v-8q0 -8 2 -10q0 4 -6 -82l2 -3t-2 -7q0 -23 -12.5 -64t-16.5 -59t-21 -53q-2 -18 -16 -43q-4 -8 -4 -15q-10 -18 -31 -53q-14 -25 -37 -57q-55 -61 -73 -78q-49 -41 -99 -43q-25 6 -30 8q-16 6 -21 23 q-6 2 -10 10l-2 4q-4 14 0 41q2 12 14 29q12 25 19 30q12 16 30 19q8 -14 0 -49v-9q-2 -4 -2 -8v2l4 -20l6 -10q12 -18 23 -15q14 -8 33 -2q33 18 104 119q37 61 56 123q8 6 8 20.5t2 18.5q8 18 22 90v20l2 11q0 2 2 4v4q-2 14 2 37t0 32l-8 70v4q-2 2 -2 4l-2 8 q0 8 -3 15.5t-7 20t-4 20.5q-4 0 -8 6v4q-53 61 -95 72q-20 0 -55 -6q-96 -33 -174 -191q-6 -2 -6 -10l-2 -6v-2q-2 -2 -2 -4q-14 -25 -35 -80q-6 -12 -12 -35t-25 -66q-12 -57 -27 -84q-2 -16 -12 -50t-16 -75q4 -4 0 -8v-4q-4 -4 2 -6q0 -4 -6 -10t-2 -13q4 -18 0 -49 q-6 -41 -6 -52t-9 -19q4 -41 2 -52v-4q2 -2 4 -6q0 -4 -3 -7t-3 -9v-4q4 -12 0 -17q-2 6 -2 -30v-11q0 -12 -4 -39q6 -6 2 -12l-2 -2q-4 -8 0 -14q-2 -4 2 -12q0 -12 -4 -15q2 -2 2 -6v-10q-6 -6 0 -29q-2 -12 0 -45q2 -6 -4 -22q2 -8 -2 -37q0 -2 2 -13q-4 -4 -2 -6v-2 q4 -8 0 -8t-4 -25q6 0 6 -6l-2 -4q0 -2 2 -2v-2q-4 -4 -4 -8l2 -4q0 -6 -2 -10v-11q4 -29 0 -57v-18q-2 -4 2 -13q-4 -4 -4 -12l2 -4q0 -16 1 -19.5t-5 -13.5q0 -2 2 -4l-8 -8l4 -4q6 -6 5 -8.5t-1 -8.5l-2 -2q0 -6 4 -10q-2 -2 -2 -4v-4q0 -6 -2 -8q10 -29 -2 -39v-33 q6 -12 2 -35q-4 -25 0 -35q0 -4 -2 -10t-2 -10t2 -12v-13q4 -12 -2 -26q4 -27 -2 -45v-27q2 -12 1 -37.5t-1 -36.5q0 -27 -13 -76h-2q0 -10 7 -30q-8 -16 -33 -41q-4 0 -11.5 4t-13.5 4q-16 16 -20 41q-6 12 -6 45q-4 6 -4.5 16.5t-1.5 15.5t-7 44q0 2 2 4v20q-2 14 -2 21 q0 27 0 26q0 51 -2 76zM135 -262q-2 -2 -2 -4t2 -4q-2 -3 -2 -7.5t2 -11.5v-4q4 -6 0 -12q6 -8 4 -19q-2 -16 -2 -18q6 -10 5 -32.5t3 -31.5q0 -2 -2 -8q0 -2 7 -4q-8 -4 -5 -10l2 -2q2 -6 0 -10q2 -8 3.5 -25.5t3.5 -26.5q-6 -20 0 -51q4 -27 10 -51q0 -2 2 -4v-4l2 -4v2h2 l-2 2q4 49 4 72q0 2 6 41q0 10 -6 30q4 6 4 19v18v51q2 8 2 82q0 18 3 29.5t3 40.5q2 4 1 12t-1 12v29q0 20 2 29q4 16 -2 53v55q-2 16 9 45q0 23 -5 68q-2 18 7 53v94q4 10 2 29v62l4 -3l-2 -2q-4 -25 -17 -75l-12 -99l-2 -4q-2 -6 2 -10q-6 -12 -5 -32.5t-3 -30.5 q0 -27 -5 -49.5t-5 -65.5q-7 -31 -7 -51q0 -10 2 -17q0 -8 -6 -26v-29v-37l-4 -51z" />
<glyph unicode="Q" horiz-adv-x="1103" d="M72 336q-1 7 -1 16q0 18 3 47q-4 17 -4 42t4 59q-4 4 -4 9q0 4 2 9q4 12 2 17q0 41 0 40q6 10 2 29q2 10 8 33q2 4 2 12v15q2 25 16 69v25q10 41 11.5 46t3.5 11v12q0 2 18 64q6 23 17 65q18 45 57 131q18 27 38.5 54.5t51.5 32.5q6 2 10 -7l2 -2h8l-6 -6l-4 -2 q-2 0 -4 -4q-10 -14 -26 -47q-2 -4 -7 -12l-4 -11q-6 -14 -12 -20q-12 -37 -12 -29q-4 -2 -4 -14v-6q-18 -43 -19.5 -44t-2.5 -10.5t-15 -29.5q-2 -2 0 -4v-4q2 0 2 -4q-10 -41 -29 -64q0 -8 -16 -82q0 -4 -10 -57q4 -6 -3 -13l-2 -4q-4 -6 0 -10q0 -4 -10 -31q0 -16 -8 -57 q-10 -6 -2 -20v-11q0 -35 -8 -43q6 -27 2 -30q-4 -2 -2 -7l2 -4q2 -2 2 -16q0 -18 -2 -23v-8q0 -2 -2 -6q0 -4 4 -12q0 -8 -4 -14q7 -16 7 -40q0 -16 -3 -36q10 -18 10 -45q2 -2 2 -11v-10q-4 -10 4 -16q12 -12 2 -25q6 -25 25 -71q-2 -6 3 -16.5t4 -15.5t6 -10.5t7 -11.5 q12 -16 27 -59q16 -23 16 -25q29 -20 49 -49q-2 -4 5 -10l2 -4q2 -2 2 -4q8 -4 24 -13q25 -10 74 -32q18 -2 57 -8q18 -6 45 10q18 8 60 8q37 18 133 100q39 41 106 131q8 6 18.5 23.5t18.5 23.5q18 20 37 66q8 14 25.5 40t23.5 38q0 10 11.5 25.5t11.5 25.5q8 8 15 23.5 t13 21.5q0 -6 15 51q8 23 26 64q4 2 9 16q0 2 2 4v2q10 27 22 80q2 31 17 90q-4 6 0 17l2 4q0 8 -2 12q10 4 6 16v7q-2 10 2 14q2 18 -6 49q-6 25 -7 72q-4 41 -18 63q-10 43 -45 119q-6 18 -27 49q0 2 -10 12l-10 11l-6 6q-8 8 -13 14q-16 14 -55 31q-20 16 -57 14 q-26 6 -47 6q-28 0 -49 -10q-12 0 -25 -6q-20 -4 -25 -4q-8 -10 -28.5 -16.5t-26.5 -11.5t-16.5 -13t-16.5 -8q-72 -49 -100 -111q-8 0 -12 -14q-16 -16 -35 -64q-8 -2 -8 -10v-4q0 -6 -11 -16q0 -14 -10 -37l-2 -4v-6q0 -6 -6 -13q6 -10 0 -26q-6 -18 -4 -27 q-2 -23 -19 -70q6 -20 -4 -30v-35q0 -14 -2 -21h-2q0 -2 -2 -2h-2v-2q10 -8 2 -16q8 -31 -2 -45q0 -2 2 -6t2 -9q4 -8 -4 -16q-2 -12 6 -33q-4 -14 0 -37q6 -29 6 -38q-2 -33 6.5 -46.5t8.5 -42.5q10 -25 10 -38q0 -2 12 -23q6 -14 2 -27q8 -6 9 -43q-2 -2 -6.5 -10 t-14.5 -6q-14 6 -31 31q2 8 -5 17t-8 13.5t-1 6.5v2l-2 2q0 4 -3 9t-34 138q8 27 2 45q-5 37 -5 58q0 11 1 18q4 18 4 33q0 88 8 104q2 12 -4 37q6 16 19 51q-4 10 -2 25q4 20 4 24q12 57 39 101q-2 2 4 28q14 29 49 82q20 35 94 109q6 0 13.5 6t9.5 8q117 74 196 90 q117 0 160 -24q16 0 25 -6q20 -16 57 -58q59 -82 84 -168q0 -6 6 -18t2 -23q10 -20 14 -57q5 -20 13 -63q-8 -10 -4 -27q4 -20 0 -33q0 3 -1 3q-2 0 -8 -118q-6 -31 -6 -30q-16 -57 -51 -174l-1 -2t-3 -4l-2 -9q-4 -8 -8 -10t-4 -12t-11.5 -26.5t-11.5 -28.5q-4 -18 -29 -54 q-2 -14 -15 -32.5t-15 -26.5q-14 -25 -39 -74v-4q-20 -10 -41 -53q-2 -2 -7 -8.5t-7 -10.5q-12 -10 -19 -20l-4 -8q-10 -18 -25 -27q-4 -12 -24 -33q-25 -31 -80 -84q-23 -23 -115 -88q23 -33 68 -76q12 -6 12 -16l35 -35q6 -2 14 -14l2 -4q2 -6 13 -10q14 -12 28 -41 q6 2 13 -11q4 -4 6 -4q-6 -12 0 -18q10 -10 12 -14.5t29 -34.5q20 -10 53 -49q4 0 10 -7l2 -2q8 -8 10 -8q18 -23 66 -51q0 -4 14 -29q2 -4 7 -12q-10 -4 -19 -4q-6 0 -14 4q-10 -4 -19 4l-2 2l-4 2q-2 2 -6 3t-10 12q-4 4 -10 2q-29 33 -62 43q-12 14 -31 49q-16 4 -36 20 q-10 8 -17 21q-12 12 -17 14t-7 10.5t-11 3.5q-4 8 -15 19.5t-52 46.5q-2 8 -15 16l-8 4q-8 4 -20 25q-4 2 -49 35q-6 6 -19 14q-2 4 -6 6h-4q-10 4 -10 11q-2 0 -5.5 3t-5.5 5t-12 6q-16 20 -55 20q-53 0 -66 4q-92 29 -139 93q-6 2 -14 14l-2 6q-4 6 -19 16q-14 25 -45 74 q-2 25 -22 64q-18 51 -25 92q2 18 -10 53q2 6 -4 55q-2 8 -2 21z" />
<glyph unicode="R" horiz-adv-x="1531" d="M66 283q0 10 6 10l2 -2q4 0 8 -10zM70 387v14l2 5q4 0 4 4l-4 4q2 2 2 8q0 4 -2 12t-2 12t2 9v6q-2 2 -2 4q0 4 4 18q4 12 0 19q4 4 2 8v4q0 8 4 12v9q2 -10 2 28q10 31 10 64q0 4 4 19.5t3 15.5t5 18q2 4 7.5 36t4.5 39t9 25q0 8 5 23.5t5 23.5q8 8 8 17v4q-2 0 -2 2 q2 14 13 39q-2 2 -2 4l2 2v2h2q4 10 9 32.5t7 33t10 24.5v4q0 8 7.5 22.5t9.5 18.5t2 11.5t4 9.5q4 16 33.5 84.5t30.5 68.5t10 15q18 33 69 90q53 37 68 37q14 0 30.5 -12.5t30.5 -22.5q27 -35 68 -156q-2 -2 -2 -8q0 -8 6 -14q0 -2 -2 -5q0 -2 2 -4q4 -8 4 -10t-4 -6 q12 -131 12 -197v-24q2 -10 -2 -31q4 -4 4 -8q0 -27 -2 -23q-4 -4 -4 -6t2 -6v-6v-43q-2 -29 -2 -43q-2 -2 -2 -18.5t-3 -48t-3 -48.5v-22q0 -20 -1 -28.5t-4 -30t-5 -33.5l-2 -2l2 -3v-2q0 -2 2 -2v-4q0 -8 -4.5 -31.5t-1.5 -35.5q-4 -8 -5 -13q0 -2 2 -6q-4 -20 -7 -64 t-9 -67v-10v1q-1 0 -14 -132q2 -2 2 -6t-3 -7.5t-3 -5.5q0 -23 -9 -71v-31l3 2q2 10 7 28.5t5 28.5q8 16 20 50q0 4 2 10t4 11t7.5 18.5t7.5 19.5q0 16 12 41q0 2 2 8v6q6 4 6 15q2 4 4 6q2 25 17 67q0 6 6 21.5t6 23.5q0 12 -20.5 23.5t-26.5 21.5v3q0 2 -4 8q-2 4 0 6 q-2 2 -2 10q0 12 33 27q25 10 43 12q2 -2 8 -10q6 10 12 30.5t10 28.5v4q0 4 17 39q2 14 12 39v8q16 29 33 86q8 0 10 11.5t6 13.5v4q0 6 4 15.5t4 13.5q25 66 37 75v4q0 8 4 11.5t6 11.5q0 2 18.5 40t22.5 48q4 0 4 8q6 23 21 33q2 4 6 10q-2 10 35 74q4 4 7 10t5 8 q6 18 39 31q6 10 16 10h3q35 -8 43 -39l8 -36l-6 -9q-4 -37 -23 -108q-4 -2 -2 -4v-4q-6 -10 -15.5 -42t-39.5 -91q-31 -66 -47 -82q0 -2 -3.5 -8.5t-5.5 -10.5t-2 -8l-8 -8q-18 -49 -119 -178h-2l-6 -6q-16 -25 -28 -33q-2 -6 -29 -33q0 -6 -5 -10t-5 -8q0 -8 9 -20.5 t7 -20.5q8 -2 9 -11.5t18.5 -49.5t17.5 -42q20 -20 21 -43q10 -4 16 -19.5t12 -19.5v-6l4 -4t4 -12q8 -10 19 -33q2 -2 4 -7t6 -5q0 -8 10 -13l2 -6l2 -2q20 -20 43 -53q8 -2 4 -6v-2l3 -2h2q23 -23 30 -23q2 -2 6 -8h3l6 -6q4 -20 39 -33q8 -8 10 -8q6 -12 19.5 -18.5 t18.5 -10.5t12 -12t15 -8q12 -10 35 -31q6 0 18.5 -6t18.5 -6q8 -6 61 -27q4 -8 23 -8q8 0 42 -9.5t56 -6.5q8 -4 15 -5q100 0 143 54q30 37 30 76q0 7 -1 14q4 4 4 6q0 4 -2 10t-8 21q-12 12 -14.5 20t-16.5 19q-4 0 -12.5 4t-12.5 4q-16 4 -51 16q-20 2 -57 19q0 10 8 10 l4 2q6 12 22 12q4 -2 20.5 -2t56.5 -13.5t55 -23.5q6 0 15 -5t13 -7q29 -33 29 -78q0 -25 -8 -43q2 -2 2 -6t-4 -11t-2 -14q-27 -49 -85.5 -80.5t-115.5 -31.5q-27 0 -39 4h-4q-2 0 -6 -2h-8q-10 0 -26.5 5t-27 6t-34.5 13q-2 0 -3 -2h-4l-4 2l-4 4l-4 3h-8q-10 0 -26.5 9 t-26.5 9q-6 8 -54 29q0 6 -6 6q-29 14 -41 28q-4 2 -12 11q-20 6 -72.5 53t-68.5 72q-8 4 -11.5 11t-17.5 15q0 12 -12 17q-4 6 -10.5 17t-26.5 22l-8 16h-2q-6 0 -13 16q-10 4 -17 18.5t-13 18.5q-14 14 -33 49l-60 101l-2 -2l2 -2l-2 -2l-2 -5q-10 -35 -10 -41t-1 -10 t-11 -35.5t-8 -35.5q-8 -29 -17 -45q0 -12 -6 -33t-6 -31q-8 -25 -18 -74v-6l2 -6q-16 -23 -17 -70q0 -14 -12 -39q-8 -59 -29 -98h-4q-8 -8 -14 -10q-27 4 -17 51l-2 2q6 70 27 207q2 41 12 111v6q4 14 2 43q8 74 23 188q0 14 2 43q4 2 2 6v13q0 12 3 33.5t3 31.5 q0 -16 8 57v11q-2 8 -2 10q0 4 4 12q2 23 6 68q2 23 -4 47q2 27 7 80q-2 6 -3 16q0 8 3 21v18v6q-4 2 -5 10q0 4 2 9v8v51q0 8 -6 21l-8 34q-2 4 1 12.5t3 12.5q0 14 -6 18q-4 23 -8 68t-8 68q0 4 -8 8q0 29 -33 78t-62 49h-4q-27 -16 -37 -33q0 -6 -6 -12t-6 -9 q-12 -23 -41 -67q-4 -8 -12 -25q-14 -35 -39 -106q-12 -39 -21 -62q-8 -49 -38 -143q2 -2 2 -6q0 -6 -4.5 -13.5t-6.5 -11.5t0 -12q0 -14 -10 -43v-8q-6 -18 -8 -58q-4 -8 -10 -43q0 -2 2 -8q0 -12 -8 -41v-20q0 -35 -9 -55q0 -6 -2 -17.5t-2 -17.5q0 -8 2 -13 q-4 -12 -4 -61v-8q-2 -4 -2 -8q0 -12 6 -36t6 -36q4 -2 5.5 -10.5t6.5 -10.5t3 -4v-2q0 -2 7 -14t5 -23q6 -2 6 -10v-2q-2 2 -6 4q-10 -12 -14 -12q-6 0 -19.5 3t-19.5 3q-4 10 -7 12t-6.5 6.5t-5.5 6.5l-20 2q8 6 8 16l-12 21q-6 33 -6 53v10zM651 440h2q6 6 9 6 q10 8 26 29q8 8 56.5 72.5t48.5 68.5q31 51 84 158q2 6 10 14q2 8 10 29t8 33q10 8 16.5 30.5t10.5 30.5v4q0 2 2 7.5t2 7.5q22 27 22 121v8q-2 2 -5 14t-7 12q-6 -6 -18 -16q-10 -16 -31 -53v-2l-6 -4q-4 -14 -35 -64q0 -8 -7 -15t-9 -12.5t-6.5 -14.5t-6.5 -12t-26 -65 q-4 -2 -8 -18q-6 -37 -43 -96q2 -2 2 -8q0 -4 -6.5 -9.5t-7.5 -8.5t-3 -12t-6 -13q0 4 -14 -39l-4 -5q0 -6 -2 -8q-57 -143 -58 -170z" />
<glyph unicode="S" horiz-adv-x="1226" d="M41 72q0 68 29 121q25 47 65 88q25 31 70 61q37 25 74 49q8 -4 19 4t15 8t9 -4v-8q-18 -10 -54 -35q-14 -10 -41 -24q-14 -10 -18 -10q-86 -86 -103 -140q-12 -14 -14 -32q-6 -39 -2 -52q-3 -11 -3 -24q0 -23 9 -51q14 -20 39 -64q14 -10 37 -33.5t80 -52.5 q14 -8 125 -35l67 -6h12q46 0 124 12q12 -4 33.5 3.5t32.5 10.5t36 7t35 10q4 0 10 3t8 3q18 6 60 19q74 31 159 100q8 6 23 18q74 78 106 154q2 10 9 27q23 35 30 147q-2 14 -14 37q4 12 -6 27l-2 14q-14 31 -56 80q-10 16 -36 39q-43 37 -123 78q-10 2 -30.5 13t-31.5 13 q-27 10 -78 29q-29 4 -45 14q-10 -2 -24 3t-19 5q-14 4 -41 13q-12 0 -31.5 8t-26.5 8t-17 6q-14 0 -42 7.5t-40 7.5q-14 10 -54 20t-57 27q-8 2 -57 39q0 4 -27 28q-35 41 -35 105q0 39 17 69q25 82 65 138q96 131 279 157q10 0 31.5 -3t31.5 -3q23 -6 64 -31q23 -8 39 -37 q23 -37 30 -45q20 -37 21 -94q0 -45 -12 -100q-33 -80 -93 -90q-16 10 -2 24q23 95 23 141q0 13 -2 21q-10 59 -62 125q-12 8 -32 25q-61 16 -88 16q-41 -2 -76 -25q-20 -6 -66 -43q-12 -23 -30 -36q-16 -25 -41 -80q-6 0 -7.5 -12.5t-3.5 -14.5q-6 -10 -16 -55l-8 -8 q-4 -8 4 -13q-2 -2 0 -22q2 -18 31 -78q2 -8 14 -19.5t10 -23.5q14 -4 37 -18.5t117 -51.5q35 -8 96 -32q8 0 22.5 -5.5t22.5 -5.5q20 -8 64 -20q25 -2 69.5 -18.5t65.5 -20.5q29 -8 80 -31q18 -6 47 -31q12 -2 27.5 -14t21.5 -14q2 -10 17.5 -18.5t19.5 -12.5 q55 -47 80 -94q8 -10 22 -35q0 -6 6 -21.5t6 -25.5v-53q4 -4 2.5 -12.5t2.5 -12.5q2 -8 -5 -27q-2 -2 -6 -26q-10 -29 -39 -84q0 -8 -12 -20.5t-12 -22.5q-6 -12 -29 -35q-2 -10 -12 -20l-21 -21q-33 -47 -98 -80q-33 -37 -76 -59q-16 -8 -49 -27q-23 -8 -69 -33 q-43 -16 -134 -34q-10 2 -24.5 -5.5t-22.5 -7.5q-79 -13 -144 -13q-48 0 -89 7q-47 8 -107 29q-12 2 -30 12q-59 25 -113 94q-4 8 -14 23q-29 51 -29 119z" />
<glyph unicode="T" horiz-adv-x="935" d="M-219 1143v22q0 27 12 41q29 47 92 80q92 49 123 49h2q20 8 43 8q20 0 57 -8t58 -8q33 -6 80 -31q63 -35 76 -39q25 -18 53.5 -40.5t36.5 -45.5q12 -2 20 -13t15 -15q8 -23 28 -39q4 -12 19 -33q8 -18 16 -22q6 -12 20.5 -34t14.5 -44q18 -14 31 -45q4 -16 14 -58 l117 -10q10 6 6 14q0 4 -2 8.5t-2 6.5q-4 23 0 59q1 5 1 14q0 24 -7 80q2 4 6 17q0 14 -4.5 20t-14.5 56q-4 12 -6 16q0 37 21 45q0 10 10 10q29 -8 37 -41t12 -63q0 -8 4 -51q4 -35 0 -50q0 -18 10 -53q-3 -17 -3 -32q0 -26 9 -46h11q30 0 80 -8q43 4 116 4q8 4 21 8 q12 4 18 0q23 0 63 8.5t54 10.5q23 -2 61 12q100 16 299 47q14 10 49 12.5t52 10.5q25 8 112 26q6 6 16.5 2t16.5 3q41 10 117 32q10 0 30.5 6.5t32.5 4.5l129 38q16 -6 47 2h7q-12 -4 -37 -10q-8 2 -19 -4l-6 -2q-12 -8 -26 -4q-8 -12 -21.5 -12t-34.5 -11q-8 2 -18 -4 q-6 -4 -19 2q-8 -8 -39 -16q-4 0 -12 -4q-20 0 -36.5 -4t-45.5 -10q-16 -8 -51 -23q-16 0 -88 -20q-4 -6 -16.5 -2t-20.5 -5q-6 0 -16 -4t-14.5 -4t-36.5 -6q-23 -4 -39 0q-8 -10 -38 -14t-40 -21l-2 2q-2 2 -8 2q-82 -18 -142 -18q-25 -4 -78 -18q-12 2 -36.5 -5.5 t-40.5 -5.5q-10 -4 -68 -14q-12 0 -25 -6q-84 -8 -258 -21l-10 -10v-233q-4 -12 0 -29q0 -20 -2 -31q0 -27 -3 -75t-13 -142q4 -14 -1 -40.5t-4 -42t-5 -38.5v-71q0 -47 -5 -74q8 -6 5 -23q-2 -6 -3 -10q0 -6 3 -10v-66q6 -2 4 -8l-4 -4q4 -12 -3 -31q-6 -27 -2 -37 q-4 -8 -30 -30q-6 -4 -11 -10q-4 2 -14 -5h-1l-3 5h-18q-6 0 -7 4q-4 6 3 51q2 6 2 20q-4 8 -5 17q0 6 5.5 21.5t5.5 23.5q0 10 -6 20v103q0 6 6 36q4 23 0 39q4 14 -4 39v33q4 18 -2 37q0 4 2 12v10q0 18 -7 27q0 61 -4 72v43q4 27 -8 43q-2 25 -10 51q-8 49 -8 74 q-10 57 -29 98q8 8 -2 23q-8 10 0 20q-6 8 -10 23q-2 8 -10 20q0 4 4 12q4 10 -4 19q-18 25 -46 24q-111 0 -262 33q-49 12 -151 33q-4 4 -41 14q-25 8 -33 21q-12 0 -29 6q-4 2 -15 5t-15 3q-43 18 -111 74q-20 10 -61 55q-4 10 -15.5 26.5t-13.5 23.5t-4 24zM-137 1235 l4 -14q-6 -4 -6 -15q0 -9 4 -22q4 -4 4 -8q0 -2 -2 -5q0 -2 2 -6q0 -10 14 -35q6 -6 7 -12t6 -10l4 -2l-2 -6q53 -72 125 -105q14 -2 34.5 -16t32.5 -16q2 0 7 -1t10.5 -2.5t7.5 -9.5q14 -4 46 -22.5t52 -18.5q25 -14 37 -14q4 -4 24 -8q12 -4 19 -10q27 -2 80 -17q2 0 6 2 h6t8 -4q18 -2 58 -2q33 4 55 -2q-8 0 22 -4q15 0 23 8q-12 10 -15.5 22.5t-7.5 16.5q-2 14 -20 41l-6 23q-2 2 -2 8q-18 10 -38 40.5t-30 41.5q-12 27 -57 71q-12 4 -19 19q-12 16 -24 18q-31 43 -105 64l-4 4q-23 12 -67 37q-4 2 -13.5 3t-11.5 9q-9 -2 -31 7q-13 5 -25 5 q-8 0 -14 -2q-13 1 -26 1q-78 0 -152 -32q-2 -2 -4 -7t-4 -9t-12 -4zM623 805q-4 -8 -4 -15q0 -9 8 -14q-4 -12 10 -31q4 -12 29 -94q0 -6 6 -15t6 -15.5t7 -20.5t7 -25q4 -2 9.5 -9t17.5 -7v27q0 33 -4 98q2 12 2 30t-2 40q1 5 1 11q0 21 -11 52h-43q-25 0 -39 -12z" />
<glyph unicode="U" horiz-adv-x="1550" d="M68 524q4 12 0 41q2 10 6 31.5t16 65.5q0 8 5 26.5t5 28.5l37 123q6 12 15 39q4 2 5 6t5 8q-2 6 2 15.5t4 13.5q14 14 10 20q6 25 25 57q8 16 22 60q6 10 15 33q2 10 14 26q0 12 11 27.5t11 25.5q8 2 9 9v4q2 6 10 12q-2 10 10 18q4 27 25 39q6 20 26 45q27 33 31 41 q12 12 37 33q57 27 59 27q10 0 20.5 -3t35.5 -20l12 -2q16 -18 45 -37q4 -14 14 -20q14 -25 41 -78q12 -23 43 -137q4 -33 13 -98q5 -85 7 -85l1 3q2 -2 2 -17v-2q-2 -2 2 -10q0 -16 2 -51t2 -54v-18l-2 -61v-37q-2 -20 -2 -36t2 -28l-2 -2q1 -4 1 -12q0 -26 -5 -92l2 -4 q0 -27 -2 -54v-12q0 -32 -8 -86v-27q-2 -6 0 -8q4 -10 -2 -14q0 -49 -5 -141q-2 -34 -2 -94t2 -146q6 -10 7 -20l-2 -7q4 -18 18 -53q-2 -4 0 -6h2q6 -6 2 -8l6 -6q16 -16 27 -13q10 4 14 17q23 27 70 80q6 8 13 16t5 14q12 12 12 25q14 10 31 41q6 0 10 10v4q4 8 9 8 q2 8 12 21.5t12 21.5q14 16 29 50q10 0 6 6q0 14 7 16t7 8l2 4q0 10 7 13l12 18q8 8 8 17q12 16 27 49l12 30q6 0 8 7q2 14 19 38q6 2 6 13l2 4q0 12 10 12q8 16 18 49q4 12 25 33q4 12 2 16q8 10 14 31q4 8 17 27q2 2 2 11t6 9q2 10 9 28.5t30 51.5q0 2 -3 4t-7 8 q10 -4 14 9q0 2 2 4q6 14 14 39q0 6 4.5 14t12.5 18q0 8 7 23.5t7 23.5q12 27 27 82q4 25 24 37t45 -4q6 -4 15 -20q-2 -20 -11 -60l-18 -69q2 -4 -2 -11.5t-4 -9.5q2 -12 -5 -32.5t-7 -28.5l-11 -6q0 -2 1 -7q0 -15 -5 -59q-4 -33 -12 -94q-4 -51 -12 -84q2 -10 2 -24 q0 -21 -4 -52q0 -25 8 -43q-6 -10 2 -22l2 -7q4 -12 2 -20q6 -25 22 -72q0 -2 5 -14q2 -8 -2 -12q2 -4 8 -13.5t6 -12.5t6 -28q10 -14 35 -41q4 -8 16 -20q20 -20 70 -45l2 -6q14 -6 98 -17q41 6 119 29q8 4 12 2q14 0 16.5 4t24.5 15q4 0 10 6q1 -13 3 -17q0 -12 -4.5 -15 t-16.5 -7h-2l-4 -4q-29 -12 -90 -33q-31 -4 -96 -14q-20 6 -54 10q-16 0 -26 6l-11 6h-4q-4 2 -6 2q-16 4 -49 23q-8 2 -61 55q-4 10 -18.5 25.5t-31.5 54.5q-4 4 -26 61q-4 10 -12 35q-4 4 -5 19l-2 10q0 4 -2 8q-2 25 -10 70v57q-2 4 -2 12l2 4q0 12 -4 17q2 20 8 61 q0 59 12 115q-6 4 0 10l3 2q2 2 -3 8q6 6 7 17v16l-13 -18l2 -9q-27 -47 -43 -90q-6 -6 -26 -53l-13 -18q-6 -14 -18 -45q-6 -14 -25 -41q-20 -35 -55 -107q-8 -18 -33 -57q0 -6 -5 -14.5t-5 -14.5q-6 0 -7 -4t-1 -10q-20 -39 -72 -111q-4 -12 -32 -57q-35 -53 -109 -148 l-4 -4l-2 -2q-4 -4 -15 -8v-4q-31 -20 -51 -20q-7 0 -12 2q-25 14 -31 38q-23 51 -26 142q-2 2 -2 8l2 2v6v45q-2 31 -2 47q2 6 6 56q-4 10 -2 26q4 25 4 27q-2 12 0 35q2 27 2 34q4 12 0 23q2 10 3 31.5t3 31.5v5l-2 2q0 8 2 10v51q4 20 -4 31q4 2 8 12q-4 2 0 6q2 23 6 64 q-6 6 -2 22q2 16 0 23q-2 8 2 22q0 27 4 39q4 20 -4 56q6 29 0 45l2 8q2 12 0 20q0 33 -2 47q-2 6 0 9v8q0 10 -4 14q2 12 2 24q0 19 -4 40q-2 10 0 26q0 20 -12 55q0 25 -8 35q4 20 -4 49q-4 12 -3 35q-8 4 -10 16.5t-4 14.5q-2 20 -18 55q0 14 -12.5 36t-12.5 34 q-10 4 -10 14l-2 6q0 8 -10 17q-2 4 -11.5 13t-9.5 20q-8 4 -10 8l-10 10q-10 10 -23 16q-4 6 -12 11l-4 2q-4 0 -8 6q-8 -2 -13 4q-51 0 -96 -82q-14 -23 -47 -66q-18 -31 -47 -98q-14 -25 -37 -80q-2 -12 -16 -30q-12 -35 -11 -50q-4 -14 -22 -41q2 -8 -6 -28 q4 -8 -13 -49q6 -4 2 -9l-4 -4v-4q-8 -29 -24 -84q0 4 -8 -20q-4 -8 -2 -18.5t-7 -37.5q-6 -59 -8 -60t0 -3v-4l2 -2l8 -6q-2 -4 -8 -47q4 -4 10 -5q-12 -20 0 -47q8 -12 19 -39l24 -26q14 -4 31 -9t19 -22q-6 0 -17 -8q-22 -9 -43.5 -9t-42.5 9l-8 2l4 2q-10 6 -43 39 q0 10 -8 31.5t-6 33.5q-6 37 -6 35z" />
<glyph unicode="V" horiz-adv-x="1507" d="M61 557q0 27 7 82q6 4 7 17.5t7 17.5q12 53 53 90q49 43 100 43h5q14 -2 36 -8q12 0 30 -10.5t24 -12.5q25 -16 62.5 -52t90.5 -136q18 -31 39 -99q10 -20 10 -26q8 -16 6.5 -19.5t4.5 -7.5t6 -8q2 -18 18 -49q6 -6 0 -21q-4 -14 8 -20q12 -23 19 -51q2 -10 12 -29 q-4 -10 0 -31q-2 -4 2 -16t4 -19.5t11.5 -27t13.5 -30.5t12 -28q4 -12 6 -36q6 -14 2 -17q29 -14 29 -61q6 -2 12 -25q-2 -6 11 -22q-6 -8 -7 -8q8 -4 12.5 -18.5t13.5 -18.5t3 -11l21 -14h6q26 0 65 14q27 18 72 70q27 20 86 96q16 23 49 64q6 10 20.5 28.5t32.5 49.5 q6 18 33 41q2 33 37 57q4 10 16 27q2 23 21 43q6 10 16 30q8 12 27 41q8 14 22 43l3 9q2 10 10 10q4 14 16 37l6 12q8 16 23 49q2 8 4 20q37 70 43 111q16 37 18 50.5t13 39.5q10 47 22 144q0 16 8 47q6 20 -2 59q-2 29 -14 84q-10 16 -16 39q0 8 -8.5 19.5t-10.5 17.5 q-10 10 -8 12q-6 2 -10 13.5t-13 13.5q-18 20 -92 47l-8 -2q-14 4 -38.5 4t-59.5 -4q-14 -2 -45 -15q-49 -16 -135 -96q-6 -8 -23 -24q0 -8 -11.5 -17.5t-8.5 -19.5q-10 -8 -17.5 -27.5t-15.5 -28.5q2 -6 -6.5 -15t-1.5 -19q-6 -4 -8.5 -19.5t-12.5 -19.5l6 -19 q4 -12 -6 -16q-2 -8 -10 -27q8 -4 2 -12t2 -12q4 -16 -2 -52q0 -14 10 -41q4 -18 12.5 -53t38.5 -63q4 -6 11 -19q-4 -6 -17 -18q-6 -4 -22 2q-35 33 -47 74l-9 20q-4 12 0 21q-16 12 -12 53q-6 4 -7 21.5t-3 21.5q-2 18 2 51t5 44t7 29.5t23 55.5q25 59 69 115q31 37 62 65 q16 12 47 33q45 31 145 59q29 8 99 9q20 0 55 -15q10 0 19.5 -8t17.5 -8q2 -4 24 -18q14 -8 11 -25q8 -20 32 -61q-4 -6 2.5 -10.5t6.5 -8.5q18 -63 22 -151q-4 -21 0 -31q0 -57 -20 -156q-4 -25 -23 -74q-8 -27 -25 -86q-8 -37 -71 -176q-20 -39 -60 -112q-23 -43 -73 -125 q0 -10 -10.5 -22.5t-10.5 -18.5q-16 -33 -88 -127q-4 -14 -22 -35q0 -6 -9.5 -10t-10.5 -10.5t-73 -94.5q-98 -123 -223 -153q-4 2 -25.5 1t-23.5 14t-16 46q0 4 -4.5 9t-4.5 8q0 14 -10 38q2 6 -5 15.5t-7 15.5q-2 16 -19 45q0 8 -7 21.5t-9 22.5t-6 32q0 6 -23 51 q2 8 -2 21.5t-4 20.5t-6 28.5t-20 68.5q0 12 -6 15q6 2 -7 24q-8 14 -22 56q-8 6 -11 23.5t-6 21.5q-12 20 -28 67q0 16 -31 60q-14 31 -45 86q-20 39 -100 108q-18 10 -58 27q-14 -2 -28.5 -5t-20.5 -16q-25 -59 -33 -102q4 -35 9 -70q4 -41 22 -59q41 -43 90 -57 q16 0 17 -4l-2 -7q-27 -18 -84 -39h-7q-50 0 -77 25q-14 14 -35 51q-16 51 -17 78z" />
<glyph unicode="W" horiz-adv-x="2181" d="M-35 635v61q6 39 29 115q8 8 8 18.5t4 12.5l19 39q10 6 10 14v6h2q25 43 37 57q23 31 51 46q18 31 57 42t76 19q70 0 121 -64q59 -74 90 -188q6 -2 6 -4v-4q0 -8 4 -10q2 -23 17 -70q10 -59 32 -178q2 -35 11 -107v-39q0 -25 4 -36q0 -90 -2 -134q-8 -4 -6 -12 q4 -16 4 -14v2q-2 0 -2 -123q-6 -8 -2 -18l2 -7q2 -4 -5 -10q2 -10 4.5 -32.5t4.5 -32.5h16q27 53 84 157q-2 6 0 11q6 10 6 18q12 27 35 78q16 6 16 26v7q0 6 7 10q0 2 6 26q8 12 11 23.5t13 34t25 74.5q6 23 24 65q4 20 8.5 31.5t16.5 13.5q12 12 41 29l10 6q14 10 27 10 q4 0 4 -2q-4 -12 -4 -18q-6 -18 -21 -60v-39q-4 -25 -4 -43q4 -6 4 -18q-4 -25 4 -35q2 -14 25 -98q2 -4 10 -15.5t6 -19.5q37 -63 45 -76q29 -43 62 -63q43 -27 129 -84q14 -8 47 -22.5t109 -30.5q20 -6 61 -3q20 -8 49 -2q39 8 47 9q37 14 113 39q33 14 96 49l-2 2l-2 -2 l4 -2q0 2 2 4h-4v-4q37 25 109 67q18 16 55 41q27 29 82 76q4 16 29 37q8 14 32 37q25 33 66 102l2 2l-8 4l-2 -4l6 -4l2 2q12 33 41 96q2 6 10 25.5t8 30.5q16 47 21 143q-4 31 -4 94q-8 29 -33 119q0 12 -9.5 27.5t-9.5 21.5q-14 20 -39 66q-16 8 -31.5 30.5t-20.5 29.5 t-23 30q-2 2 -6 10q-82 82 -150 107q-10 -2 -26.5 11t-30.5 13q-25 6 -72 23q-18 0 -55 12q-16 0 -74 -10q-41 -12 -66 -15q-178 -80 -253 -198q-8 -2 -17 -15l-4 -8q-2 -6 -18 -12l8 -8l2 4h-2l-2 -2q-6 -4 -5 -13.5t-10 -19.5l-6 -6q-18 -14 -14 -31q-6 -33 -16 -104 l-13 -35q6 -14 -10 -39q-2 0 -6 -4l-4 -2h-2q0 -2 -2 -2q-2 -2 -8.5 4t-2.5 26q4 27 2 33q-1 4 -1 9q0 21 12 69q0 2 6 11.5t4 19.5q8 10 12 33l2 2l-8 2l-2 -4l8 -3v3q117 217 281 280q4 4 6 4l4 4q4 0 12 8q6 2 33 13q20 8 37.5 10t50.5 18q43 6 86 7q92 0 172 -31 q27 -12 84 -33q90 -66 121 -110q61 -57 109 -158q10 -16 19 -33.5t7 -36.5q25 -45 29 -108q4 -14 4 -72v-68q-4 -39 -25 -118v-5l-2 -2l-2 -2q-4 0 -6 -6q0 -18 -20 -53q-14 -27 -41 -84q2 -8 -8.5 -18.5t-12.5 -16.5q-10 -14 -30 -49q-100 -123 -244 -229q-18 -14 -60 -35 q-16 -16 -65 -41q-90 -45 -111 -53q-63 -27 -118 -33q-39 -14 -146 -14h-4v-9h6v9q-47 4 -141 28q-111 29 -166 80q-4 0 -16 8q0 2 -11 6q-31 23 -80 76l-18 19q-18 25 -39 67q-29 68 -33 74q-12 8 -16 -8q0 -2 -2 -6q-10 -8 -10 -31q-2 -8 -17.5 -27.5t-15.5 -36.5 q-6 -8 -6 -18v-6q0 -6 -8 -12q-12 -33 -33 -66q0 -16 -16.5 -41t-18.5 -39q-31 -66 -57 -96v-4q-16 -27 -33 -39q-4 -8 -29 -37q-4 -4 -8 -4h-6q-4 2 -6 2q-20 0 -29 -6q-2 0 -6 4v4q0 96 12 141q4 14 -2 42t-2 40q10 25 2 43q0 47 6 142q-4 12 0 36q4 25 -2 39q5 18 5 41 q0 12 -1 25q-10 61 -10 63q-4 20 2 50q-10 2 -10 8q4 18 2 22q-10 10 -12 33q-4 35 -6.5 39t-2.5 8q0 -4 3 10q0 16 -9 25q-12 53 -49 172q-10 18 -16 37q-20 41 -72 112q-45 45 -82 46q-31 0 -84 -48q-2 -14 -16.5 -36.5t-17.5 -31.5t-12 -26.5t-10 -29t-18 -60.5 q0 -2 3 -2v-2v-2l-3 -2q-4 -4 -2 -12q0 -43 2 -64q-2 -8 9 -49q2 -4 2 -16q47 -90 100 -111q6 -10 33 -25q20 -10 16 -28q2 -18 -35 -29v-4l2 2l-2 2v-2l-2 2l-2 -2l4 -2v4q-14 4 -23 6t-32 6q-10 -4 -27 4l-8 5q-8 6 -22 6q-14 14 -51 35q-25 31 -43 83q-16 20 -17 60z" />
<glyph unicode="X" horiz-adv-x="1050" d="M-379 -580q-4 7 -4 13q0 9 8 18q10 8 25 29l31 18q10 8 30 8q29 33 78 107q4 4 37 47q-4 6 0 12q8 10 29 31q10 23 63 100h8q0 10 23 52q2 4 6 18q8 2 8 12q0 2 2 4q8 16 33 50q2 4 11 13t9 19l10 7q9 6 7 14q8 10 16 31q6 10 20.5 28.5t30.5 61.5l9 8q6 6 6 12 q8 8 30 49q4 8 13 17q-2 6 0 8q4 0 6 5t8 15q0 8 10 13q12 14 27 49q8 6 11 19.5t14 19.5q25 49 75 145l6 19q4 8 5 14q12 14 45 69q12 16 14 29q0 4 10 18.5t6 24.5q-2 16 -22 45q-2 8 -8 17l-2 4q-10 10 -11 18q-14 10 -22 29q-14 31 -17 33q-6 29 -26 41q-6 6 -25 47 q-12 29 -35 39q-20 25 -45 67q-2 18 -26 51q2 39 -29 95q-2 12 16.5 20t22.5 21q10 2 30.5 16t32.5 6q8 -8 37 -66q18 -39 64 -114q-2 -12 9 -22.5t14 -16.5t12 -23q4 -2 6 -12q2 0 2 -3t6 -7q0 -2 1 -7t9 -14v-6h4q2 -2 5 -6l4.5 -6t1.5 -8h2q-2 -2 2 -8h4l-2 2v-5 q-6 -6 4 -6h2l-2 2v-2q0 -2 2 -2v-2l2 -2q4 -8 4 -10q-4 -33 8 -47q8 -29 33 -86h10q6 10 17 35q2 6 8 14q14 14 20 31q6 10 23 30q-4 8 2 14.5t6 10.5q8 2 14 12l2 2v2q2 2 4 5.5t4 5.5v2q6 6 7.5 11t7.5 15l4 4v5q2 2 12 22q6 12 19 35q4 4 4 10q10 4 12 13.5t6 13.5 q31 41 76 129q10 2 20 22q20 20 20.5 30.5t12.5 18.5l4 7q16 12 11 28q18 8 45 33q10 0 36 18q4 2 13 7q0 8 4 10t7 3t5 1q12 -4 21 8l4 2q16 0 39 -18q0 -4 10 -17.5t6 -19.5q-2 -10 -2 -30.5t-6 -29.5q6 -14 1 -33.5t-1 -29.5q-2 -12 -8.5 -38t-18.5 -36q-6 -2 -31 -12 q-14 -6 -28 2q-4 0 -7 4t-5.5 7t-6.5 4t-22 8q20 -10 24 -9q4 2 9 9q-4 6 -5 20q0 8 -4 12q4 8 4 13l3 4q0 2 2 12q-10 2 -15 12l-4 4q-6 6 -12 9q-31 -14 -64 -58q-23 -39 -77 -112q-25 -33 -68 -103q-14 -4 -22.5 -25.5t-11.5 -26.5t-9 -11l-4 -4q-8 -8 -8 -17 q-12 -8 -23 -26q-12 -25 -18 -31q-14 -20 -43 -66q-10 -29 -8 -39q4 -2 5 -5l2 -6t1 -5q14 -25 32 -80q10 -16 33 -47q16 -29 53 -82q2 -10 17 -35q14 -16 16 -32q4 -6 0 -13q37 -27 72 -84q12 -8 27 -26q6 -8 22 -25q33 -57 84 -102q12 -8 27 -31q10 -14 41 -41 q16 -29 34 -33q16 -23 46 -65q-2 -19 -33 -31q-14 2 -28.5 4t-19.5 15.5t-22 13.5l-6 2q-6 0 -8 8t-5 14t-14 4q-14 14 -37 48q-12 16 -45 40l-2 3v2q-4 8 -8 8l-2 2v-2q-2 4 -8 4l2 -12q8 8 8 12v4q-2 6 -4 10q-10 4 -29 33q-4 6 -14 17.5t-35 37.5q0 8 -8 13.5t-4 11.5 q-8 8 -35 47q-4 8 -9 12t-9 13l-2 8q0 2 -1 4t-3 2q0 8 -7 10l-4 2q-4 8 -12 17h-2l-2 2q-16 35 -61 96q-6 14 -17 24l-8 7q-2 10 -10 23t-27 36q0 6 -10 16v2v2q-8 27 -25 31q-12 -2 -19 -16.5t-13 -18.5q-18 -35 -68 -98q-16 -35 -64 -102q0 -8 -9 -20.5t-11 -22.5 q-8 -6 -23 -33q-4 -10 -26 -29q2 -8 -2 -12l-4 -4q-10 -6 -6 -17q-14 -16 -33 -57q-14 -10 -25.5 -37.5t-25.5 -38.5q-2 -4 -3 -10v-8q0 -2 -9 -4t-9 -13.5t-2 -13.5q-6 -12 -25 -18q-10 -20 -24 -62q-12 -2 -17 -22q-2 -6 -10 -8q-2 -14 -12 -27l-6 -6q-8 -12 -8 -21 q-8 -4 -13 -16l-2 -6q-6 -6 -10 -8q-8 -16 -33 -50q4 -6 -5 -14t-10 -13t-5 -24q-12 -16 -39 -47l2 -4l-2 4q-12 -8 -20.5 -29.5t-18.5 -25.5l-14 -29l-13 -24q-10 -6 -12 -15l-4 -4q-2 -8 -14 -18q-4 -10 -18.5 -25.5t-16.5 -25.5q-12 -6 -31 -33q-10 -20 -57 -31 q-10 4 -27 16zM852 1087l6 -4l14 -2l-14 6h-6z" />
<glyph unicode="Y" horiz-adv-x="1316" d="M-166 -575q6 12 14 63q8 31 21 92q10 25 31 70q8 14 22 49q20 27 31 55q4 6 16 23q35 59 109 147q96 113 241 221q2 0 11 9q20 14 59 39q23 20 92 61q4 0 10.5 1t6.5 7q102 61 166 84q23 0 22 -8q-4 -6 -24 -16q-41 -27 -74 -37q-14 -10 -49 -31q-4 -10 -21 -14 q-23 -6 -29 -8.5t-8 -10.5q-35 -18 -98 -67h-8q-29 -18 -80 -64q-16 -10 -43 -39l-16 -6q-90 -78 -189 -203q-4 -10 -22 -26q-70 -109 -97 -166q-10 -35 -28 -68q-2 -4 0 -16q-2 -8 -9 -29q0 -8 -7 -30.5t-7 -36.5q4 12 4 -21q-12 -39 -8 -61q4 -16 0 -23q8 -14 10 -42 t6 -38q0 -16 15 -47q8 -25 20 -72q10 -20 37 -59q4 -14 23 -35q8 -18 36 -43q6 -6 19 -20q6 -4 14 -13q92 -80 191 -110q6 0 18 -7t36 -8t32 -8q16 0 41.5 -4t40.5 -4q25 -4 32 0q106 0 127 2q10 6 34 10.5t34 10.5q96 20 143 47q39 23 45 22q92 59 140 125q18 20 55 62 q57 98 57 100q33 59 45 107q0 8 13 32q8 18 4 31q6 14 12 41t12 88q8 18 11 53q4 43 6 56q-6 20 -4 49l4 49q-10 80 -10.5 103.5t-8.5 76.5q4 10 -2 26.5t-4 26.5q0 2 -2 13v16q0 12 -12 14q0 14 -13 37q-2 10 -16 39q-10 23 -10 39q-12 61 -12 62q-16 20 -25 75 q-14 8 -14 31q-6 2 -6 11t-3 12q-2 20 -22 55q-4 16 -21 41q2 10 -9 24.5t-9 26.5t-14 33q-18 45 -58 129q-6 23 -30 59q-18 63 -64 139q-4 2 -20 -14q0 -2 -47 -84q-8 -16 -33 -41l-4 -14q-25 -23 -68 -80q-6 -8 -24.5 -23.5t-26.5 -23.5q-35 -31 -100 -64q-43 0 -48 2 q-8 -1 -16 -1q-44 0 -88 49q-2 12 -20 30q-2 8 -10.5 21.5t-10.5 26t-4 38.5q-10 20 -10 54q-2 23 -13 63q0 8 3.5 21.5t1.5 21.5q2 16 -5 43q0 6 -5 23.5t-3 27.5t-2 23q-4 43 -4 129q1 13 1 33t-1 47q6 4 1 10t-1 10q6 43 21 76q2 16 16 28.5t27.5 20.5t19.5 4 q8 10 17.5 12t23.5 2q20 -2 23 -2l14 -20q31 -70 31 -100q0 -8 -17 -13q-18 12 -16 13q-2 0 -2 -5.5t-4 -3.5q-12 4 -28.5 16.5t-25.5 14.5q-4 -2 -2 -10t2 -10q0 -4 -10 -4q-6 -6 -6 -23q6 -10 2 -14q-4 -2 -4 -5.5v-13.5q-10 -33 2 -61q-12 -8 -6 -49q0 -18 -2 -54 q2 -10 0 -32q0 -25 10 -76q-4 0 -4 -17q0 -10 8 -28q3 -17 3 -44q0 -14 -1 -30q6 -35 29 -102l-8 -13q12 -4 26.5 -27.5t28.5 -27.5q6 -2 27 -14q14 -10 26 -10q6 -1 12 -1q37 0 72 33l66 70q8 14 26 37q6 12 35 51q-2 6 4 12t6 8q8 18 33 50q6 23 29 55q4 29 16 45 q2 10 3 29.5t3 29.5q0 18 -6 56l-4 8q0 8 10.5 16t12.5 15q26 31 68 31q8 0 16 -1q10 -2 12 -14t4 -16q-6 -16 -16 -54q-4 -12 0 -30q6 -23 9 -31t4 -27.5t9 -27.5q12 -23 27 -72q14 -31 35 -94q8 -37 9 -39t7 -12q12 -18 31 -74q0 4 -4 -6q20 -25 20 -39q12 -31 39 -88 q10 -25 25 -76q-6 -4 -2 -10q4 -8 2 -13q6 -2 14 -30q-4 -4 2 -10.5t6 -8.5q8 -16 17 -53q0 -8 6 -25q6 -6 5 -16t5 -16.5t6 -22.5t10 -22q-2 -8 2 -23.5t4 -22.5q8 -8 10.5 -28.5t6.5 -28.5l-2 -6q16 -41 16 -70v-6q0 -6 2 -16q4 -29 17 -80q-4 -4 0 -8q2 -6 -2 -8 q2 -8 2 -88q0 -44 4 -132q-2 -6 -8 -53v3q-1 0 -9 -68q0 -20 -14 -58q-2 -16 -23 -82q-6 0 -8 -8l-2 -8q0 -29 -18 -47q-2 -12 -39 -98q-2 -8 -10 -17q2 -8 -7.5 -13t-9.5 -13.5t-14 -26.5l4 -4q-14 -8 -39 -43q-14 -18 -45 -57q-23 -18 -59 -60q-20 -10 -53 -38.5 t-52.5 -40t-62.5 -33.5q-8 0 -37 -15q-12 2 -23 -8q-96 -37 -262 -45h-8q-12 0 -31 4h-35t-84 12q-82 18 -81 19q-10 10 -25 10q-117 53 -203 154.5t-110 222.5q-2 12 -9 31q-14 49 -14 170z" />
<glyph unicode="Z" horiz-adv-x="1425" d="M-2 -141q-2 3 -2 7q0 6 6 13l2 6q45 27 62 27q6 -12 20 -17.5t27.5 -8.5l31.5 -7q25 4 72 17q6 -2 15.5 2t13.5 4q12 2 55 20q10 2 25 15q33 12 75 43q33 18 95 63q2 0 6 4l6 4q6 4 10 10q53 33 105 93q37 25 53 41t49 55q25 25 76 69q4 6 14 17l6 6l8 8q18 25 41 47 q6 10 21.5 25.5t24 25t25.5 31t25.5 32.5t26.5 34q8 12 13 16l8 8l4 9q14 16 20 36q23 18 17 33q0 2 -2 2q4 0 -9 -2q-8 8 -25.5 12.5t-23.5 6.5t-18 10t-23 6q-29 14 -39 14q-23 12 -67 39q-27 8 -49 35q-6 0 -11 4l-4 4q-2 6 -12 6q-43 35 -84 70q-16 14 -18 15t-8 12 l-7 10q-10 2 -24 12q-8 2 -13 12q-14 18 -18 21.5t-10 9.5t-8 9t-29 36q-4 0 -9 8.5t-12 8.5q-16 18 -47 59q-6 2 -9 9t-9 7q-4 10 -14 15q-2 6 -9.5 15t-11.5 13q-10 12 -35 31q-4 10 -18 21q-4 8 -17.5 18t-17.5 18q-18 16 -55 48q-6 0 -19 12q-8 2 -23.5 9t-23.5 9 q-2 -2 -6 -2l-8 -2q-8 0 -10 -6q-18 -39 -19 -76l-2 -2q4 -16 -2 -30q-2 -12 4 -37q0 -29 17 -78q20 -39 52 -66.5t58 -15.5q14 4 39 14q-2 4 8 15q20 0 23 -2q-8 -23 -25 -29q-25 -39 -65 -45q-12 -12 -45 -8h-19q-4 10 -20 10q-4 2 -15 8q-25 18 -26 21q-12 12 -15 26 q-25 27 -32 62q0 10 -6 28v10l-3 3q-4 8 3 16q-3 20 -3 44q0 37 7 87q4 10 14 29q10 33 43 47h4v4h137v-4q10 -6 37 -17q2 -8 14.5 -16t28.5 -31q10 -8 58 -55q2 -2 10 -12l4 -2l2 -4l6 -7q29 -27 43 -49q16 -12 18 -24q4 0 13 -11l2 -4q14 -16 39 -47q12 -10 32 -33l23 -23 q23 -24 66 -63q8 -6 22 -24q23 -16 66 -49l12 -17q-4 0 8 -6v-2q2 0 4 -2q51 -33 160 -88l8 -4q57 -12 111 -35q20 4 57 0q4 -8 2 -14q-2 -12 -20 -21l-7 -4q-8 -6 -12 -14t-14 -19q-2 -10 -12 -16l-5 -4q-10 -14 -38 -43q0 -10 -11 -14l-2 -4q-8 -4 -8 -11 q-29 -37 -90 -104q-4 -4 -10 -10.5t-6 -12.5q-8 -2 -27 -20l-72 -78q-16 -12 -45 -45q-12 -8 -30 -27q-2 -4 -46 -43q-29 -27 -55 -51t-82 -72q-2 -6 -10 -10l-6 -2l-2 -3t-8 -9l-7 -2l-4 -4q-14 -6 -33.5 -25.5t-62.5 -40.5q-6 -8 -22.5 -17t-22.5 -16q-59 -33 -188 -79 q-2 0 -7.5 -3.5t-9.5 -3.5q12 -6 31 -24q10 0 18 -6l2 -2q8 -4 15 -4q33 -12 96 -37q39 -4 64 -15q4 0 20 -4q81 -20 161 -20h21q6 0 97 6q6 -4 18 0q14 6 20.5 6t26 6t31.5 4q23 4 69 17q8 0 21 8q39 12 115 41q12 2 36 10l25 12q10 8 23 11q6 6 12 6l4 2q6 0 16 10 q27 12 76 41q10 6 33 16q6 6 21.5 14.5t23.5 16.5q2 -2 6 2v2q25 25 57 39q6 14 27 19q2 6 10 10h2q8 2 9 12q6 0 10 8l2 2q4 4 12 4q0 -4 4 -4v-2h10v-22h-8l-2 -2v-6q-2 2 -6 8h-2q-10 -10 -34.5 -27.5t-37 -29t-45.5 -33.5q-4 -4 -16 -13q-6 0 -8 -4l-4 -4 q-18 -18 -166 -92q-2 0 -4 -2l-7 -2q-4 0 -6 -4t-5 -5t-5 -1l-8 -2q-8 -4 -12 -9q-10 -2 -31 -10q-4 2 -8 -2l-2 -2l-4 -2q-29 -10 -88 -29q-14 -6 -41 -10h2q-33 -8 -101 -29q-29 -4 -88 -10q-18 -2 -53 -6h-14q-4 -2 -11 0q-8 -4 -16 -4t-16 4q-10 2 -35 -2q-14 0 -41 4 q-12 -2 -31 0q-25 4 -31 4q-14 4 -47 2q-18 10 -35 6q-29 10 -38 7q-4 6 -13 6h-4q-4 0 -10 6q-20 4 -62 12q-8 2 -23 8t-22.5 8.5t-9.5 4.5l-2 2v2l-4 4q-20 8 -66 26q-2 0 -16 11q-4 0 -12 6t-14.5 9t-23.5 10t-26 14z" />
<glyph unicode="[" />
<glyph unicode="\" horiz-adv-x="544" d="M-160 1253q0 -8 9.5 -22t7.5 -23q39 -106 61 -161q10 -16 25 -54q4 -16 22 -47q41 -76 103 -233q16 -31 51 -90q-4 -6 2 -16.5t6 -14.5q20 -51 41 -105q25 -59 53 -98q-6 -20 14.5 -55t18.5 -53q14 -31 14 -35q12 -14 23.5 -47t21.5 -45q0 -14 25 -70q8 -16 94 -248 q6 -10 12.5 -31.5t12.5 -29.5q-2 -8 7 -21.5t5 -25.5q27 -47 43 -47q8 0 16 12q6 63 -24 145q-29 72 -55 142q-6 25 -26 65.5t-50 124.5q-6 23 -29 63q-4 18 -18.5 51t-20.5 50q4 6 -3 10t-7 6q-18 45 -57 129q-16 45 -62 137q-2 8 -12 28t-10 32q-31 59 -80 174 q-25 53 -72 162q-10 14 -31 82q-12 20 -8 26q16 4 14 19q-2 12 -6 24q-12 6 -10 21.5t-6 19.5q-6 12 -25 27q20 0 23 12q-6 4 -16 4q-2 -2 -17 -2q-4 8 -4 21q-35 12 -74 -2q-2 -6 -2 -11z" />
<glyph unicode="^" />
<glyph unicode="_" horiz-adv-x="638" d="M84 -111q10 6 27 27l49 18q14 -4 43 -14l8 -2q2 0 65 -4q39 -2 66 4q18 -6 72 4q6 8 16 6l14 -2q37 0 105 2q8 6 12 -6q-10 -31 -53 -47q-12 -6 -33 -2q-27 4 -33 4q-10 8 -28 6q-39 -4 -33 -4q-14 -6 -47 -4t-48.5 -1t-43.5 -7q-41 4 -62 2q-31 -2 -90 8q-4 2 -6 12z " />
<glyph unicode="`" horiz-adv-x="704" d="M197 725q61 39 112 31q29 -57 31 -88q8 -12 20.5 -35t20.5 -45q10 -8 21.5 -29.5t23.5 -28.5q0 -6 8 -18t8 -18q0 -4 -2.5 -9.5t-29.5 -17.5q-29 8 -57.5 19.5t-30.5 39.5q-23 18 -43 52q-16 27 -31 53t-49 65q-2 2 -2 29z" />
<glyph unicode="a" horiz-adv-x="669" d="M25 61q0 20 45 125q12 43 110 99q7 1 13 1q53 0 77 -46q6 -2 13 -2q10 0 26.5 10t22.5 10q10 0 18 -16q-10 -18 -21.5 -37t-2.5 -41q0 -10 6 -20.5t6 -18.5q12 -12 33 -41q18 -20 39 -33l47 -6q25 2 67 16q25 10 78 29q8 10 30.5 19.5t31.5 17.5q8 0 8 -6q-4 -16 -27 -31 q-14 -6 -39 -18q-139 -72 -211 -72q-47 0 -100 35q-14 18 -53 47q-16 -16 -54 -41q-10 -12 -35.5 -20.5t-33.5 -14.5q-17 -7 -34 -7l-48 15q-12 23 -12 47zM109 129q-2 -16 -2 -28q0 -32 14 -46q5 -2 10 -1q14 0 29 12q16 31 45 55q0 2 8 20q3 6 3 11.5t-3 9.5 q-27 10 -33 33l-12 18q-4 5 -8 5q-6 0 -10 -7q-10 -12 -21.5 -40t-19.5 -42z" />
<glyph unicode="b" horiz-adv-x="720" d="M41 221q6 33 6 101q0 6 6 30q6 18 0 31q6 55 29 160q8 6 6 14t5 22.5t7 20.5q35 104 88 117q4 6 15 6q12 -2 12 -10h16q2 -10 -11 -24.5t-15 -22.5q-2 0 -6 -6.5t-11 -6.5q0 -18 -13 -53t-13 -51.5t-15 -40.5q0 -29 -12 -82q-6 -14 -2 -51q-4 -12 -3 -43t-7 -45v-49 q0 -45 6 -63.5t10 -59.5q4 -23 29 -64q0 -6 14 -24q23 -8 29 -7l27 27q0 20 12 33q0 95 2 95v-1q2 12 -6 37q4 10 -12.5 17.5t-18.5 11.5q-8 4 -4 26q20 8 61 31q31 18 47 6q18 -27 57.5 -30t74.5 -5q8 4 16 4q10 0 18 -4q72 8 90 11q51 8 87 22q18 0 53 11.5t49 13.5 q3 -10 3 -15q0 -3 -1 -4q-4 0 -11 -7t-14 -9q-33 -8 -94 -39q-41 -10 -123 -25q-18 -6 -162 -22q-20 2 -22 -23q0 -33 -2 -37q-2 -14 -12 -47q-6 -14 -23 -47q-31 -33 -61 -65q-32 -28 -65 -28q-8 0 -15 1q-57 10 -70 57q-43 74 -51 205z" />
<glyph unicode="c" horiz-adv-x="600" d="M8 133q2 18 12 51q16 41 41 49q6 8 29 23q8 4 21 14q2 0 51 25q31 16 55 14q17 7 29 7q10 0 18 -5q8 -4 23 -14q31 -33 24 -47q4 -6 -18 -29q-8 -6 -19 -6q8 0 -47 16q-8 14 -47 21q-20 0 -53 -25q-6 -6 -14.5 -23.5t-14.5 -23.5v-47q6 -43 66 -67q20 -2 51 -23 q12 -1 23 -1q63 0 120 19q4 2 115 52q16 6 43 24q12 0 24.5 11.5t17.5 13.5t20.5 12t25.5 10q4 -8 4 -14q0 -12 -18.5 -22.5t-22.5 -14.5q-37 -20 -116 -61q-10 -10 -25 -11q-39 -14 -119 -53q-75 -10 -125 -10q-45 0 -71 8q-20 8 -44 16.5t-30 26.5q-20 12 -23.5 37 t-5.5 47z" />
<glyph unicode="d" horiz-adv-x="497" d="M-500 774q-2 -2 13 -2q41 59 114 82q18 12 76 23q23 1 40 1q30 0 44 -4q9 5 20 5q13 0 27 -7q23 -4 70 -8q25 -6 94 -33q25 -10 76 -30q70 -33 166 -135q33 -35 63 -105q12 -4 16.5 -21.5t12.5 -19.5q6 -14 16 -41.5t42 -34t61 -10.5q14 2 61 -4q31 -2 92 -10q14 0 41 -4 q1 -4 1 -6q0 -8 -9 -9q-94 -3 -156 -3t-92 3q-8 -8 6 -49q14 -61 15 -119q0 -115 -52 -188q-61 -90 -178 -90q-20 0 -41 4q-4 -2 -10 5t-9 7t-16 13q-61 31 -77 133q2 14 4 47q6 18 8 39q18 80 55 90q4 2 14.5 13t18.5 7q4 6 20 13q18 2 33 -15t15 -43q0 -9 -2 -20 q-23 -39 -54 -45q-16 10 -16 -6q-5 -23 -5 -45q0 -34 13 -64q-2 -12 11.5 -28.5t15.5 -26.5q32 -32 73 -32q7 0 13 1q49 12 82 125q13 47 13 96q0 36 -7 72q-12 41 -33 117q-2 0 -119 18q-123 18 -207 39q-10 4 -28 2q-14 10 -48 16.5t-49 18.5q2 0 -75 14q-37 23 -54 23 q-47 31 -90 47q-25 18 -73 49q-6 14 -29 33q-5 18 -23 48q-10 17 -10 31q0 12 6 23zM-436 766q2 -49 45 -88q-2 -10 9 -18.5t13 -15.5t45 -30q29 -14 86 -49q68 -37 138 -49q8 0 25.5 -9t29.5 -5q39 -14 113 -27t221 -29q-10 31 -39 89q-10 16 -25 49q-2 8 -17 25.5 t-13 31.5q-10 4 -21.5 21.5t-23.5 21.5q-57 57 -144 107q-18 10 -57 22q-14 2 -92 29h-29q-51 7 -78 7q-11 0 -18 -1q-80 -10 -99 -17q-55 -18 -69 -65z" />
<glyph unicode="e" horiz-adv-x="489" d="M8 102q4 20 0 27q4 12 14.5 34.5t12.5 35.5q4 6 18 43q25 43 115 73q10 10 27 11q20 0 55 -17l2 -14q0 -4 2 -18.5t2 -22.5q-2 -10 -10 -18q-14 -16 -47 -46q-29 -20 -90 -51q-6 -6 -5 -16q4 -16 5 -14q2 -18 19 -32t31.5 -23t39.5 -17q8 0 116 16q10 8 72 31q2 2 37 20 q6 2 19.5 12.5t21.5 10.5q4 0 10 -4q-2 -14 -20.5 -24.5t-22.5 -16.5q-16 -6 -92 -47q-55 -31 -96 -35q-14 -12 -41 -12h-41q-25 2 -47 6q-29 4 -43 18q-29 16 -39 27q-23 18 -23 39q-4 5 -4 12q0 6 2 12zM117 188q8 0 30 17l21 21q9 9 9 19q0 3 -1 7q2 10 -18 14 q-20 -10 -37 -45q-4 -8 -4 -33z" />
<glyph unicode="f" horiz-adv-x="548" d="M4 8q4 10 20.5 20.5t20.5 18.5q2 0 14.5 11.5t22.5 7.5q4 -2 15.5 -11.5t17.5 -9.5q31 -16 45 8q-2 14 4 47q4 27 2 43q2 35 14 103q4 16 2 53q-2 6 4 20q4 12 -4 23q16 25 4 59q4 12 5.5 37t5.5 35q2 16 -2 43q0 12 6 16q-1 4 -1 12q0 24 5 91q4 10 -2 29q-4 37 -2 45 q0 31 -6 90q6 10 -5 22q-4 4 0 8q4 6 5 11q-6 10 -5 24q4 20 3 25q-12 55 -13 129q0 -4 -12 69q-2 14 -12 48q8 12 34 34q4 2 18.5 11.5t22.5 9.5t17 -10q-2 -6 3 -17.5t3 -17.5q1 -40 1 -75q0 -72 -5 -128q-2 -6 -2 -20q4 -23 2 -52q-6 -39 -6 -45q-4 -12 -4 -32 q2 -10 -7 -29q6 -29 0 -37q0 4 5 -16q2 -12 -7 -19q4 -4 0 -14q4 -20 -2 -57t-4 -56q-6 -8 -3 -26.5t1 -28.5t-6 -44t-2 -54q-6 -16 -10 -76q4 -10 -4 -29q2 -20 -4.5 -63t-6.5 -64q2 -6 -4 -16q4 -6 -1 -19.5t-2 -23.5t-3 -35q-2 -10 4 -35q16 0 99 27l141 63q37 25 119 64 q6 -3 6 -6q0 -2 -2 -4q-23 -27 -55 -37q-12 -12 -99 -62q-12 -10 -47 -22l-6 -4q-37 -16 -109 -58q-12 2 -28.5 -6t-24.5 -10q-8 -8 -7 -28.5t-5 -28.5q0 -14 -3 -47t-3 -52q-8 -20 -4 -53q0 -14 -6 -41q-8 -55 -19 -172q-2 -43 -8 -70q2 -34 2 -69q0 -82 -10 -166 q-2 -20 -4 -44t-19 -32q-2 -1 -5 -1q-5 0 -9 6q-6 9 -12 5q-18 16 -23 39q2 35 8 111q-2 14 2 49q-2 14 4 31v53q0 33 -2 25q0 10 -3 32.5t-1 32.5q1 12 1 28q0 32 -3 81q-2 14 0 45q-2 66 -10 174q0 10 -6 33l-13 47q-6 6 -16 24zM109 -27q3 -21 3 -48q0 -14 -1 -29 q-1 -20 -1 -34q0 -29 3 -38q2 -51 6 -111q0 61 14 105q12 51 8 61l13 105q-4 6 -12 6q-5 0 -11 -2q-16 -6 -22 -15z" />
<glyph unicode="g" horiz-adv-x="428" d="M-272 -856q4 70 24 100q-4 33 12 51q-2 6 4.5 16.5t9.5 20t15 37.5q8 4 12 -6q-2 -16 -17 -48t-13 -52q-4 -10 -13 -29q3 -37 3 -58q0 -11 -1 -18q-4 -29 -2 -30q-2 12 -2 -31q12 -14 9 -33q6 -12 12 -41q4 -8 7 -24.5t7 -22.5q4 -12 17 -31q12 -10 32 -37q16 -14 50 -32 l16 -11q29 -10 88 -32q28 -7 70 -7q27 0 61 3q10 6 37 6q10 4 21.5 14t33.5 21q16 10 35 38q10 16 35 45l6 13q12 33 43 96q8 16 39 143q0 20 6 58q6 20 4 63v14q0 32 6 82v11q0 30 -8 82q-2 -18 -2 49l-4 10q6 6 0 33q-2 16 -10 49q6 12 0 35q-6 20 -2 30q-14 25 -11 43 q-14 12 -14 52q-4 0 -8 14q-4 6 -9 25.5t-8.5 26.5t-9.5 16.5t-4 17.5q-12 20 -29 66q-33 51 -49 94q-16 0 -14 2q-59 -53 -127 -84h-13q-55 0 -70 32q-9 21 -9 37q0 14 6 25l12 43q8 10 19 35q23 29 71 65q16 10 48 29q21 5 34 5q6 0 11 -1l12 -4q0 -6 5 -25.5t5 -28.5 t16 -5q8 6 31 10q10 2 21 -8q2 -12 10 -35q2 -14 12 -43q18 -35 41 -113q2 -10 6 -28q0 -2 6 -13q4 -6 0 -12q10 -14 17 -41q4 -33 10 -43q0 -4 5 -17.5t5 -24.5t11 -34q4 -16 4 -47q2 -8 8 -22q-4 -6 2 -19q4 -12 -6 -16q12 -18 14 -55q2 -45 6 -58q6 -47 2 -55q6 -6 2 -16 l-4 -5q10 -4 2 -16v-16q0 -27 4 -68q-6 -33 -4 -37q-4 -16 -2 -47l-6 -47q-4 -27 0 -45q-8 -4 -9 -17.5t-3 -15.5q-4 -25 -23 -82q2 -16 -20 -65q-6 -27 -35 -72q2 -4 -4 -8t-6 -6q-12 -18 -37 -58l-39 -39q-4 -2 -29.5 -24.5t-86.5 -50.5q-40 -20 -89 -20q-25 0 -51 5 q-74 14 -139 52q-84 49 -111 141q0 8 -6 24.5t-6 24.5l-8 18v107zM76 88q2 -10 12 -29q6 -7 21 -7q6 0 14 1q37 16 51 68q8 8 8 22q-4 31 -4 23q-6 0 -28 16q-4 2 -9.5 10.5t-9.5 8.5q-2 0 -6 -2v-4q-6 -4 -31 -39q-4 -4 0 -15q-10 -6 -13 -22.5t-5 -30.5z" />
<glyph unicode="h" horiz-adv-x="655" d="M12 508q16 2 39 20q12 0 33 -4q14 -68 14 -108v-10l-2 -50q-8 -2 -6 -6q1 -19 1 -36q0 -35 -5 -64q6 -45 0 -53q4 -10 4 -70q0 -8 4 -23.5t5 -18.5t5 -22q4 -10 17 -6q23 35 65 105q12 25 39 65q10 6 16.5 24.5t13.5 23t34 16.5q20 10 33 10q8 0 16 -4q-2 -18 -2 -51 q4 -12 -6 -31l12 -80q6 -49 31 -76q-4 -8 10 -14q18 -27 72 -31q9 -1 18 -1q34 0 66 12q35 18 112 36q7 -2 11 -12q0 4 -13 -8q-6 2 -10 -4t-8 -6l-58 -29q-10 -4 -30 -16q-83 -23 -132 -23h-8h-5q-22 0 -58 17q-31 8 -37 28q-12 2 -14 15.5t-13 13.5q-12 12 -19 40.5 t-17 41.5q-10 -4 -19.5 -20.5t-15.5 -22.5q-6 -12 -31 -31q-2 -12 -15.5 -22.5t-25.5 -20.5q-18 -6 -55 -20q-2 2 -17.5 5t-15.5 15q-16 4 -18 23q-6 29 -7 28q0 67 -2 67v-1q2 20 0 55q0 55 -2 59q2 8 4.5 21.5t4.5 19.5q-2 20 -2 129q2 20 -9 60q-4 10 -4 24q0 9 2 21z " />
<glyph unicode="i" horiz-adv-x="600" d="M20 180q5 79 5 107v8q4 14 27.5 21.5t29.5 15.5q4 -4 12 -4q4 14 29 18q8 -2 8 -12q2 -16 2 -19q-16 -47 -16 -94q0 -78 43 -133q45 -29 51 -29q36 -21 65 -21q8 0 15 1q41 12 123 33q53 27 155 90q13 4 17 -8q-25 -37 -125 -93q-123 -70 -228 -79h-8q-16 0 -41 6 q-41 0 -61 18q-14 -4 -25.5 13.5t-19.5 19.5q-52 57 -52 115q0 6 1 12zM141 674q25 35 58 39q4 -4 8 -4t10 3t8 3q8 0 20.5 -23.5t18.5 -29.5q1 -2 1 -5q0 -7 -7 -15q-10 -12 -10 -17q-34 -17 -50 -17h-5q-16 14 -32 29.5t-20 36.5z" />
<glyph unicode="j" horiz-adv-x="294" d="M-336 -631q2 39 21 94q10 33 36 101q16 43 43 80q6 4 21 2h2l14 8q-2 -10 -14 -33q-8 -6 -9 -11t-18 -34q0 -10 -14 -29v-10l-2 -2v-2l2 -4q-6 -6 -12 -15.5t-10 -13.5q2 -10 -11 -37v-18q0 -12 -4 -18q0 -25 -10 -60q-4 -16 0 -45q0 -8 7 -29.5t5 -33.5q10 -29 8 -41 q0 -2 7.5 -9.5t8.5 -12.5t5 -12t6 -9q10 -16 10 -23q8 -16 29 -43l14 -2q8 -20 21 -18q35 -31 69 -37q4 -4 9 -4l4 -2q6 0 14 -4h8v8q6 -2 17 -6l4 -5h2q55 0 47 -2q2 0 57 7q12 6 29 10l18 12q10 4 15 12q6 0 13 9.5t11 11.5q16 18 43 61q16 25 39 82q25 66 31 131 q2 4 4 15.5t4 17.5v-1q2 0 2 63q0 12 -2 18q8 20 -2 59q-2 10 -4 37q-2 4 -2 12l2 5q0 2 -2 6q0 14 -6 47q0 -2 -6 57q0 8 -3.5 25.5t-1 26t-4.5 22.5q-2 4 -2 14q2 4 -4 8l-6 19q-4 12 -5 16t-5 17v2h-8v12l-4 8l-2 2v6q0 8 -7.5 25.5t-7.5 28.5q-2 4 -5 14t-4 14t-3 8 l-2 7q-4 12 -4 16q2 2 2 6l-2 2q-6 4 -6 8q-8 20 -21 62q-4 14 -18 39q0 10 -6 18l-5 6q-2 2 -6 11q-8 23 -26 61l-2 2l-2 4l-7 6q10 35 43 35q14 2 21.5 -10t13.5 -25q12 -33 31 -82q6 -12 12 -39q4 -6 4 -16v-2l4 -4q-4 -8 -4 -10t4.5 -6.5t8.5 -14.5q-2 -6 4 -12 q0 -2 3 -7t7 -18l2 -10q0 -2 3 -12t5 -35q12 -20 13 -31q-2 -10 -3 -8q0 -2 4.5 -9t2.5 -15q10 -31 8 -39l2 -2l2 -5q2 -2 4 -10q4 -20 16 -61q6 -6 7 -17l-3 -4q0 -12 9 -20l-4 -4v-4l2 -4q10 -47 10 -84q6 -23 6 -46q2 -13 4 -38v-7q-2 -4 -2 -6q-2 -6 0 -8q0 -43 -6 -125 q4 -8 -2 -14q-8 -90 -43 -176q-8 -23 -29 -64q-6 -16 -51 -69l-4 -2q-18 -35 -94 -72q-52 -25 -111 -25q-38 0 -80 11q-12 2 -35 14q-6 0 -18 8l-4 2q-8 4 -12 4q-20 12 -50 41q-6 8 -10 8q-8 10 -20 31l-12 21q-11 20 -37 81q-4 8 -17 103q-2 14 -2 29q0 29 0 28zM10 504 q6 2 15 2q2 0 2 4q8 10 23.5 12t23.5 10h3q34 0 44 -22q-8 -23 -35 -27q-5 -15 -22 -15q-5 0 -11 1q-2 2 -6 2l-4 4q-12 6 -23 4l-6 4q-6 6 -6 13q0 4 2 8z" />
<glyph unicode="k" horiz-adv-x="833" d="M43 264v11q0 21 6 42q-3 38 -3 57q0 10 1 15q2 39 2 117q1 12 1 30t-1 42q10 2 22.5 12t20.5 12l8 4h3q4 0 6 -4v-12q-2 -16 0 -53q-4 -18 0 -60q-4 -18 -7 -57v-47q4 -14 0 -41q-4 -29 -3 -40t-1 -36q2 2 2 -12q-2 -6 1 -17.5t3 -17.5q4 -2 5.5 3t3.5 5q6 10 37 41 q29 23 96 49q33 8 49 0q28 -19 28 -45q0 -5 -1 -10q-10 -29 -29 -62q-16 -18 -60 -53q33 -47 109 -84q8 -10 29.5 -13t29 -3t22.5 -5t21 -5q14 -1 30 -1q114 0 300 52l12 6q-2 0 13 4l20 10q9 -3 9 -7q0 -2 -3 -5q-2 -8 -14 -12t-17.5 -9.5t-48.5 -25.5q-14 -4 -47 -10 q-10 -2 -32 -11q-12 0 -35 -8t-37 -8q-23 -4 -66 -14h-10q-28 0 -72 -8q12 0 -36 8q-4 -2 -15 0h-8q-28 0 -63 12q-14 4 -45 10q-16 0 -38 16.5t-31 18.5t-38 31q-20 20 -41 14q-2 -10 -3 -26.5t-15 -38.5q-20 -20 -25.5 -20.5t-24.5 -0.5q0 10 -10 21q0 6 -3 19t-5 19v23 v-3q-2 0 -2 181zM143 152q8 0 20.5 6t14.5 6q18 -6 21 -6q10 0 27.5 27.5t17.5 39.5q1 5 1 9q0 22 -20 22q-8 0 -24 -4q-4 -4 -31 -41q-12 -16 -27 -59z" />
<glyph unicode="l" horiz-adv-x="724" d="M25 217v12q0 22 6 35q0 57 -2 51q-1 7 -1 14q0 23 5 54q8 51 9 66.5t7 46.5q0 25 8 43q6 2 24.5 17t31.5 15q8 -10 20 -18q-4 -12 -4 -37q-27 -176 -27 -217q0 -27 2 -51q-4 -10 2 -35q6 -23 0 -35q18 -37 19 -43q41 -55 72 -84q37 -14 110 -31h10q68 0 150 25 q74 27 149 53q18 10 59.5 26.5t53.5 6.5q-10 -10 -90 -47q-47 -27 -152 -61q-10 -8 -100 -39q-66 -12 -118 -12q-34 0 -62 5q-23 4 -66 27q-14 -2 -29.5 13.5t-19.5 18.5t-17.5 12t-13.5 22q-8 6 -32 55v41q0 -4 -4 51z" />
<glyph unicode="m" horiz-adv-x="765" d="M10 246q16 16 49 33q10 4 13 2q10 -14 11 -40t3 -48q-4 -12 4 -43q2 -10 6 -33q0 -35 21 -51q10 16 30 43q2 16 19 45q4 8 8 12l4 6q0 2 2 4v2q6 14 19 39q2 2 4 7t6 9q14 6 43 23q8 -4 15 5t14 7q0 -10 6 -16l4 -6q6 -8 6 -21q0 -31 3 -81t32 -60q12 2 30 29 q18 18 48 59q8 6 18 37q8 18 29 51q23 14 65 29l8 -8q-10 -20 -20 -42t-8 -40q-6 -18 -6 -37q0 -35 22 -70q35 -43 100 -47q18 4 54 4q61 18 94 37h2q-4 -20 -18 -29q-4 -4 -31 -16q-79 -36 -157 -36l-23 1q-16 4 -52 17q-16 8 -49 34q-4 16 -26 43l-9 -4q-16 -4 -16 -16 q-23 -16 -47.5 -33.5t-48.5 -13.5q-8 6 -29 4q-10 14 -35 37q-4 4 -4 26q0 14 -14 19q-18 -39 -47 -66q-4 -4 -14.5 -11t-16.5 -17q-16 -8 -53 -21q-35 4 -49 41q0 12 -2 35.5t-2 34.5q-8 10 -9 28q-2 27 -2 31q-4 23 -4 72z" />
<glyph unicode="n" horiz-adv-x="905" d="M12 231q0 4 4 10.5t9 12.5q37 27 71 27q10 0 13 -7q0 -25 4 -73q-12 -14 -2 -33l8 -8q6 -10 -2 -23l12 -31q4 -23 25 -16q14 14 57 98q12 20 24.5 43t32.5 31q10 0 47 23q10 6 18 6q10 0 15 -10q-2 -5 -2 -16q0 -25 10 -81q14 -25 35 -78q27 -23 90 -55q31 -6 90 -22 q18 -2 39 -2q68 0 166 24q12 6 49 10q31 2 47 17q29 12 31 10q2 -4 4 -10l-2 -2q-29 -14 -82 -43q2 0 -26 -8q-14 -4 -43 -15q-18 -8 -39 -6q-33 -10 -103 -24h-11q-38 0 -169 8q-25 2 -63 24q-31 10 -50 45q-14 29 -47 101q-6 -20 -55 -84q-8 -10 -12 -23v2 q-35 -43 -62 -43h-2q-9 -18 -36 -18q-13 0 -29 4q-2 10 -8.5 17t-6.5 18q-25 14 -28 65q-4 18 -9.5 33.5t-9.5 60.5q-3 25 -3 35q0 5 1 6z" />
<glyph unicode="o" horiz-adv-x="610" d="M8 78q0 8 6 50t6 54q0 8 -2 11q12 14 37 40q4 14 33 35q6 4 15.5 16.5t58.5 26.5q20 -2 53 -23.5t57 -21.5q2 -2 15 -2h2q9 -1 21 -1q29 0 71 7q31 4 90 13q49 8 160 26q6 0 12 -4q-4 -16 -12 -18l-25 -13q-61 -12 -198 -43q-18 -4 -58 -12q-8 -8 -21.5 -9t-31.5 -1 q-39 -4 -39 -37q0 -23 -20 -63q-4 -18 -21 -43q-23 -31 -29 -41q-12 -10 -36 -29q-34 -21 -65 -21h-5h-3q-5 1 -17 7q-14 8 -21 8q-12 12 -25 41q-4 6 -8 47zM90 160q6 -25 7 -42.5t5 -45.5q18 -23 27 -23q8 12 41 84q18 41 18 53q0 23 -24 33q-11 6 -21 6q-13 0 -23 -8 q-20 -14 -21 -32.5t-9 -24.5z" />
<glyph unicode="p" horiz-adv-x="745" d="M-27 -537q-2 12 -2 26q0 22 4 50q6 59 7 76q4 10 6 35.5t6 38.5v16q2 12 2 19q0 18 9 56t9 56q2 57 9 170q2 24 2 87t-2 167q-2 6 2 21q16 12 32 18q12 -2 31 6q3 3 5 3l7 -5v-29q0 -35 -6 -106q1 -7 1 -16q0 -19 -3 -48q6 12 25 25q12 27 39 84q20 49 100 92q18 7 33 7 q32 0 55 -27q18 -29 18 -54q0 -13 -4 -24q0 -8 -4 -25q-8 -47 -78 -104q-6 0 -10 -2q14 -16 45 -21q25 -4 51 -6q13 -1 27 -1q51 0 123 11q129 18 143 21l60 20q37 8 37 9q-6 -23 -23 -29q-6 -4 -59 -29q-20 0 -45 -10q-31 -10 -41 -12q-74 -18 -123 -21l-104 -4h1 q-20 -1 -38 -1q-82 0 -125 15q-10 0 -30 5.5t-28 5.5q-14 -4 -14 -17q-31 -117 -43 -194q0 -25 -12 -76v-17q0 -31 -5 -77q-10 -70 -10 -96.5t-4 -83.5q-14 -10 -27.5 -20.5t-27.5 -6.5q-3 -5 -8 -5q-3 0 -6 3q0 8 -7 24zM160 104q10 -2 26 -14q15 -5 27 -5q20 0 31 15 q17 23 37 78q1 2 1 6q0 14 -10 52q-2 16 -30 20q-45 -57 -82 -152z" />
<glyph unicode="q" horiz-adv-x="638" d="M20 31q-1 7 -1 15q0 17 6 36q16 43 16 47q12 18 31 59q25 29 36 43.5t33 26.5q14 8 39 29q14 4 43 8q39 -4 49 -33l13 -18q16 6 45 0q-2 -10 0 -33q0 -23 -2 -33q-4 -18 0 -55q2 -18 -1 -58t-14 -122q6 -2 7.5 -13.5t11.5 -7.5q12 -3 28 -3q22 0 52 5q18 0 84 15 q8 0 18 2q31 4 115 32q21 6 33 4q2 -6 -17 -24q-6 0 -13 -6t-17.5 -6t-31 -12.5t-34.5 -12.5q-23 -8 -72 -16q-12 -2 -39 -13q-12 -4 -39.5 -9t-85.5 -19q-6 -18 -2 -54q4 -6 0 -14t-2 -12q-2 -12 -2 -33q0 -31 -8 -92v-7q0 -22 -10 -57v-75q-2 -39 -13 -115 q-2 -63 -10 -193q2 -6 -2 -14q4 -20 -6 -53q-2 -4 -2 -16.5t-10 -14.5q-6 2 -15 12q0 10 1 30t-1 30q-8 10 -6 49q3 17 3 46q0 14 -1 32q6 6 3 18t1 19q2 25 2 43t-2 28q2 41 13 121q1 8 1 20q0 23 -3 58q8 25 4 61q-2 14 6 41l-2 19l8 119q-2 14 -22.5 25t-22.5 24 q16 8 39 37q8 8 8 24q2 25 2 27q0 23 -6 63v64q-4 4 -6 4q-4 0 -10.5 -8.5t-10.5 -10.5q-18 -20 -65 -59q-14 -6 -37 -31q-20 -10 -68 -24q-27 6 -39 41zM90 51q2 -4 6 -4q6 0 8 4q10 -4 23.5 6.5t15.5 10.5q27 18 29 36q8 0 18.5 11.5t16.5 13.5q0 10 14.5 18.5t14.5 18.5 q0 2 -17 57q-8 14 -26 19h-7q-13 0 -22 -6q-10 -9 -60 -72q-2 -10 -12 -31q-9 -33 -9 -54q0 -18 7 -28z" />
<glyph unicode="r" horiz-adv-x="602" d="M35 248q4 12 21.5 19t23.5 14.5t24 7.5q6 -4 14.5 -19.5t16.5 -15.5q6 0 15 8q18 -2 83 -16q55 2 166 8q76 16 226 39q4 6 18 7t19 5q10 0 16 -10q-14 -25 -54 -25h-12q-14 -10 -44.5 -17t-43.5 -13q-53 -18 -217 -41q-39 -2 -114 -17q-6 -10 -3 -45q-2 -33 -18 -94 q-10 0 -14 -20q-41 -27 -60 -27q-8 0 -16 5t-8 48q-14 55 -19 154q-4 16 -20 45z" />
<glyph unicode="s" horiz-adv-x="436" d="M55 197q12 29 47 79q27 16 78 52q9 2 16 2q12 0 13 -8q2 -12 4 -35q4 -2 0 -6v-5v-2q-29 -23 -57 -22q-12 -20 -12 -33q0 -10 34 -26q53 -12 78 -17.5t39 -15.5q8 0 16 -13q-4 -4 0 -4q2 0 4 -4q8 -16 9 -30q0 -31 -43 -76q-23 -20 -78 -47q-35 -21 -68 -21q-10 0 -20 2 q-16 8 -35 16.5t-21 26.5q14 18 37 53q25 14 45 -6q4 -4 2 -6v-2q-2 -6 0 -8q13 -10 36 -10q18 0 42 6q2 6 11.5 17.5t9.5 19.5q4 6 -2 32q-6 12 -41 17q-6 0 -17 6q-66 2 -123 41q-5 19 -5 25z" />
<glyph unicode="t" horiz-adv-x="915" d="M27 260q8 10 24 29q4 27 19 78q-4 8 0 22q6 16 6 21q2 18 47 41h4q16 0 29 -29v-29q-8 -41 -8.5 -40t-4.5 -19q-2 -12 4 -21q53 6 95 15q184 35 331 88q25 0 25 -6q-2 -10 -18.5 -16.5t-20.5 -8.5q-33 -12 -100 -39q-49 -20 -250 -67q-20 -6 -68 -15q-6 -8 -6 -28 q2 -23 0 -31q4 -18 4 -51q8 -25 33 -66l-2 -2q41 -47 86 -53q40 -12 83 -12q56 0 118 20q156 51 370 184q6 -2 10.5 4.5t8.5 6.5q29 12 33 10q8 10 12 6q4 0 8 -2q-10 -8 -25 -29q-45 -29 -139 -80q-8 0 -16 -12q-16 -10 -49 -27q-141 -76 -248 -102q-82 -20 -146 -20 q-28 0 -53 4q-16 0 -49 16q-10 2 -30.5 16.5t-59.5 40.5q2 12 -12 29q0 6 -2 6h-4v29h-9v39h-12q-2 12 -2 29q0 24 4 57q-8 4 -20 14z" />
<glyph unicode="u" horiz-adv-x="917" d="M16 211q-8 9 -8 20q0 12 10 25q29 29 54 29h6q6 -8 18 -27q0 -105 -1 -105l-1 3q4 -57 35 -93q37 -16 59 -16q10 0 17 4q29 33 88 92q12 23 31 64l51 26q6 -4 26 -4q14 0 16.5 -11t51.5 -73q25 -18 102 -65q25 -10 78 -25q47 -10 90 -10q90 0 183 45q-2 -10 0 -24 q-14 -12 -56 -27q-33 -18 -180 -43h-11q-33 0 -77 10q-74 16 -86 19q-2 0 -23 14q-12 8 -26 6q-4 0 -15.5 9t-19.5 7q-8 8 -28.5 21.5t-25.5 22t-24 14.5q-10 -2 -22 -13q-18 -18 -23 -20q-82 -94 -186 -102q-47 16 -51 20q-29 14 -35 43q-24 37 -24 95q0 31 7 69z" />
<glyph unicode="v" horiz-adv-x="630" d="M8 256q6 2 17.5 15.5t17.5 13.5t10 -6q12 0 29 -11q12 -25 22 -80q14 -37 46 -110q14 -20 51 -49q14 10 14 14q0 14 8 20q12 23 27 119q-8 8 0 21l4 6q-16 27 -39 41q-4 -2 -10 0q-10 4 -12 4q-4 2 0 14q14 12 29.5 24.5t29.5 12.5q2 8 29 8q14 -16 47 -20q25 -4 51 -8 q16 6 43 -2q63 2 160 18q2 2 30 12q18 4 58 19q3 1 5 1q4 -1 6 -5q3 -8 7 -13q-4 -6 -45 -22q-6 2 -13 -3t-12 -5q-37 -14 -116 -35q-6 0 -23 -8h-7q-24 0 -60 -11q-12 0 -41 -5t-43 -5q-10 -6 -11 -26q-4 -27 -8 -33t0 -10q0 6 -8 -46q-18 -55 -18 -49q-8 -12 -31 -37 q-6 -8 -59 -51q-6 -2 -12 -2q-17 1 -33 13q-22 16 -42 30q-31 45 -36 76q0 10 -9 25q-2 2 -3 8t-5 6q0 10 -7 28.5t-7 28.5q-4 4 -7 18.5t-9 18.5q2 4 -3.5 8t-5.5 6q-7 7 -7 16q0 3 1 7z" />
<glyph unicode="w" horiz-adv-x="1036" d="M-4 260l55 45l15 6l8 -2q-4 0 8 -2q94 -23 111 -131q2 -2 6 -26q0 -2 4 -27q0 -10 6 -37h8q39 49 78 109q8 10 10 22l4 4q23 14 68 31q8 8 12 2q-2 -8 6 -27q0 -35 2 -73.5t13.5 -64.5t25.5 -32q8 -16 33 -24q20 -2 37 20q23 33 29 37q20 29 20 78q-12 33 -20 47 q-18 12 -48 45q18 4 50 25q8 0 12 2l2 2q10 4 14 2q16 -10 41 -41q78 -49 264 -49q12 0 35 4t33 4q2 0 94 12q2 0 2 -18q-2 0 -16 -10q-109 -23 -277 -23h-51q-31 4 -55 -2q-25 -92 -107 -139q-53 -41 -96 -41h-4q-8 -4 -22.5 3t-22.5 7q-59 47 -66 115l-10 16 q-39 -55 -55 -74q-33 -37 -70 -55q-25 -18 -37 -18h-2q-20 4 -16 26q6 41 6 43v62q-4 27 -8 56.5t-21 47.5q-2 6 -12 15.5t-14 15.5q-30 17 -55 17q-14 0 -27 -5z" />
<glyph unicode="x" horiz-adv-x="333" d="M-43 -82q4 14 24.5 38t24.5 38q12 6 23 26q4 10 16 25q20 27 55 82l-4 8q-25 23 -84 53q-2 2 -12 9v4h-6q0 8 -12 10h-2q6 6 18 16q27 18 78 37q27 -18 78 -61q23 4 48 33.5t46 31.5q4 6 45 29q20 0 22 -12q8 -5 8 -15q0 -4 -1 -8q-2 -8 -9 -26q-10 -8 -28.5 -25.5 t-34.5 -9.5q-20 -2 -45 -33q4 -12 59 -68q4 -4 11.5 -12t9.5 -12l18 -25q-6 -16 -14 -33.5t-27 -23.5q-25 -2 -43 25.5t-24.5 32.5t-22.5 16l-12 6q-8 4 -13 8q-20 -6 -37.5 -26.5t-31.5 -39.5q-41 -68 -82 -94q-12 0 -33 -6q-2 0 -6 2z" />
<glyph unicode="y" horiz-adv-x="509" d="M-555 -717q8 4 9 19.5t7 19.5q0 -2 7 74q10 47 43 139h4q-12 -59 -11 -67q-8 -4 -9 -18.5t-7 -35t-6 -29t-6 -18.5q0 -2 4 -31q-4 -68 -4 -89v-9v-45q-12 -14 8 -39q-6 -8 0 -22q6 -12 2 -21q2 -14 16 -39q2 -4 2 -12q4 -29 23 -39q10 -14 27 -45q10 -4 16 -20.5 t14 -20.5q8 -18 33 -47q10 -6 28.5 -23.5t26.5 -23.5q18 -23 56 -41q53 -27 59 -31q14 2 45 -8q14 0 47 -6q14 -4 39 2q51 -10 62 -4q14 -2 34 0q25 4 32 4t65 6q35 14 104 35q14 8 43 24q109 63 180 185v2q39 63 60 143q4 20 19 65.5t18.5 67t7.5 76.5q1 10 1 22 q0 23 -3 52q-2 25 -13 65q-6 35 -18 78q-6 31 -29 88q-4 18 -24 58q-2 8 -9.5 26.5t-9.5 28.5q-27 20 -26 63q2 8 -7.5 23.5t-9.5 21.5q-12 12 -28.5 58.5t-18.5 48.5q-14 27 -33 80q-4 0 -6 8t-8 10q2 8 -12 23q-8 -10 -29 -31q0 -6 -9 -12t-7 -15q-16 -14 -54 -47 q-4 0 -8 -5t-8 -5q-33 -21 -59 -21q-12 0 -23 5q-6 4 -18 10q-14 14 -17.5 37.5t-5.5 46.5q-4 18 4 53l2 78q-2 2 4 16l5 8q4 2 16 21q10 12 20 10l21 -4q8 -14 2 -45q-6 -33 0 -47q-6 -12 -2 -35q2 -27 2 -35q6 -33 29 -55q25 0 26 2q25 25 58 78q8 20 26 55q0 25 -2 27 q2 6 7 16t19.5 19.5t16.5 17.5q6 0 18.5 7t18.5 7q8 0 14 -8q0 -18 6 -57q18 -41 25 -66q8 -37 10 -41l-4 -4q8 -10 39 -84q-1 -2 -1 -5q0 -17 24 -64q8 -27 26 -74q12 -33 37 -90q12 -37 37 -117q4 -31 27 -113l8 -94v-47q0 -10 -8 -80q-6 -51 -21 -100q-6 -16 -16 -57 q-4 -4 -19 -52q-6 -18 -26 -59q-8 -20 -31 -61q-10 -2 -12 -11.5t-11 -11.5l3 -10q-6 2 -11 -6q-8 -14 -10 -15q-12 -12 -33.5 -37.5t-70.5 -64.5h-5q-35 -41 -102 -76q-8 2 -21.5 -6t-21.5 -8q-6 -8 -23.5 -12.5t-23.5 -10.5q-18 -2 -57 -12q-12 -4 -37 -4q-35 -4 -54 -4 q-12 0 -16 2q-10 -3 -24 -3q-20 0 -48 5q-12 -1 -25 -1q-62 0 -124 25q-86 35 -152 113q0 6 -9 11t-9 8q-25 35 -61 106q-2 4 -11 25q-8 14 -6 24q-12 18 -20 64q-8 2 -2 10q-14 39 -14.5 66.5t-4.5 80.5q2 14 -8 37z" />
<glyph unicode="z" horiz-adv-x="593" d="M12 25q0 27 13 28q2 2 12 12.5t20 6.5q8 8 24.5 11t22.5 9q25 33 60 107q-4 10 -7 21t-14 11q-6 2 -22 2q-27 0 -84 -6q-8 0 -19 11q8 25 56 43q16 2 49 10q13 3 29 3q27 0 59 -9l14 -13q6 -4 19 -26q0 -20 -19 -56q-2 -18 -20 -36q-6 -16 -30.5 -39t-31.5 -35 q8 -12 54 -27q37 -6 75 -6q109 0 230 47q32 16 100 43q0 -31 -14 -31q-59 -41 -258 -100q-78 -14 -134 -14q-43 0 -73 8h-5q-10 0 -26 7q-20 9 -31 9q-4 0 -10 -2q-20 10 -39 11z" />
<glyph unicode="{" />
<glyph unicode="|" horiz-adv-x="264" d="M80 -168q6 -61 26 -61q7 0 15 6q29 55 33 143q4 143 6 152q4 25 -2 71q0 45 6 136q-6 10 -2 32q4 23 0 35q2 18 2 55q-2 35 0 54q8 4 4 8q-4 8 -4 12q0 47 -4 139q8 90 -4 150q-2 23 4 65q-4 66 -6 189q-2 162 -2 180q-6 16 4 86q-4 25 4 27q16 -2 19 11t3 26q-4 6 -4 12 q0 4 4 12t4 12t-2 11.5t-12 31.5q16 -12 25 3q-4 4 -9.5 6t-19.5 8q-2 8 4 20q-27 23 -70 27q-10 -8 -6 -28.5t-2 -28.5q-6 -88 -6 -172q4 -18 0 -58q0 -16 4 -55q6 -84 2 -254q4 -35 12 -102q0 -12 -4 -31q-4 -180 7 -223q-12 -16 -7.5 -56.5t-3.5 -56.5v-39q6 -18 4 -51 q-2 -37 0 -51q-4 -8 -4 -74q0 -43 -10 -264q-2 -23 0 -68q-6 -6 -3 -21.5t-5 -25.5z" />
<glyph unicode="}" />
<glyph unicode="~" />
<glyph unicode="&#xa0;" />
<glyph unicode="&#xa1;" horiz-adv-x="288" d="M80 729q2 -4 14 -9t10 -18q10 -2 31 -19t31 -17q12 0 22 16q-8 43 -65 72q-2 0 -19 4q-12 2 -18 0q-6 -4 -6 -29zM96 313q6 -74 6 -88v-174q12 -10 29 -37q4 -2 29 -18q14 -8 26 -4q19 0 23 8q0 18 -6 59t-6 62q10 2 0 16q0 23 -7 64q6 16 -8 39q0 -6 4 20q2 12 -6 16.5 t-6 10.5q4 10 4 12q14 31 -4 51q-8 4 -6 4q8 4 8 15l-2 18q6 12 0 37q-6 -2 -18.5 7t-18.5 9q-8 0 -14 -4t-9 -19.5t-16 -15.5q-6 -35 -2 -88z" />
<glyph unicode="&#xa2;" horiz-adv-x="567" d="M41 125q-18 74 2 119q0 10 4 14l2 4q4 14 6 19.5t7.5 19.5t13.5 21q27 41 74 71q10 6 30 17q4 2 10 8q-4 2 17 10q12 6 37 14v2v119q23 23 51 35q10 0 16 -8q-8 -25 -16 -78q2 -8 -4 -25v-8q0 -2 -2 -6v-14q-2 -4 2 -8q14 -2 37 -13q0 -2 2 -4v-4q2 -4 0 -10 q-8 -2 -11 -10l-2 -4q-6 -10 -20 -7q-2 -2 -6 -16v-6q0 -8 -3 -15.5t-7.5 -36t-3 -40t-3.5 -23.5l-2 -6q-2 -6 0 -12q-4 -20 0 -39q0 -27 -4 -39v-92q-2 -16 -2 -51q16 2 45 0q98 25 185 73v8q10 0 27.5 10.5t25.5 10.5q6 -12 -10 -23q-37 -31 -158 -84q-53 -23 -109 -34v-7 q0 -2 -1 -5t-3 -3v-23v-69q0 -16 -2 -45q2 -8 0 -22t-2 -21q2 -14 -2 -39q2 -12 2 -59v-21q0 -2 2 -6q-6 -6 -4 -16t-8 -13q0 10 -4 33q2 2 2 15q-2 12 0 43q-4 10 2 32q-2 8 0 17q0 8 -6 12l2 35q-4 2 -4 8v10q0 -4 2 8q2 0 -2 5v6l2 2v2q4 2 -2 4q-2 6 2 18q2 6 -2 11v26 q0 8 -10 23q-6 43 -7 39q-16 -2 -47 12q-10 2 -30 14q-6 0 -14.5 8.5l-10.5 10.5t-10 6h-4q-4 4 -15 14q-31 16 -45 53q-2 8 -12 23zM94 199q2 -23 2 -29q4 -14 10 -31q10 -16 33 -45q14 -12 41 -33q6 -2 13.5 -9t12.5 -9t17.5 -9t20.5 -7q0 23 2 63q-2 2 -2 6t-2 6q0 2 2 4 v3q2 0 2 2q-6 0 -6 6l-2 4q0 6 -7 8q2 12 2 35q-2 10 -2 33q0 6 2 18v31l5 45q-6 12 -2 35q2 23 2 65l-5 10q-12 0 -23 -5t-35.5 -21.5t-57.5 -73.5q0 -6 -8.5 -20.5t-6.5 -24.5q-8 -10 -8 -27q-2 -10 0 -30z" />
<glyph unicode="&#xa3;" horiz-adv-x="821" d="M66 12q2 37 2 39q-2 14 18 39q6 0 15.5 7t15.5 7q8 10 26 23q6 2 13.5 -3t13.5 -1q18 12 4 20q-4 4 2 17q6 10 -2 14q0 8 6 19q4 14 0 43q4 20 15 59q6 10 0 31q6 8 4 22t6 23q-10 6 -4 15t-2 13q6 12 0 35q-23 0 -64 12l-37 7q-8 8 0 18q8 23 54 31q10 0 24 -7.5 t23 -7.5l6 7q-2 25 2 69q-4 12 -2 33q4 31 4 32t4 50q2 29 -4 45q8 16 9 50t7 50q2 43 21 181q-2 2 4 12q0 39 12 61q-2 10 3 28.5t5 24.5q6 23 19 64q10 55 51 74q18 10 55 32q8 2 19 3q27 0 78 -35q12 -18 38 -56q2 -4 12.5 -18t10.5 -23q12 -31 41 -94q2 -14 16 -39 q4 -27 15 -82q10 -113 4 -133q2 -37 -17 -55q0 -14 -18 -33q-39 -12 -51 2q8 41 4 121v37q-2 6 0 18q-8 33 -17 78v23q-6 16 -18 45q-4 16 -25 45q-2 25 -22 45q0 14 -23 41q2 6 -4 11t-8 9q-20 35 -57 31q-6 -16 -19 -49q-20 -59 -26 -115q2 -4 -4.5 -11t-6.5 -9q0 -4 5 -6 q0 -14 -13 -41q4 -8 -2 -27q4 -10 -2 -24.5t-5 -18.5t-7 -20q-4 -10 4 -15q0 -10 -6 -27.5t-3 -28.5t-9 -30q10 -43 -9 -53q6 -8 6 -18q-6 -6 -6 -15q2 -12 0 -16q4 -10 -6 -45q4 -29 -8 -88q0 -8 -4 -25q-8 -4 -7 -16.5t-5 -14.5q6 -4 -0.5 -11t0.5 -13v-17q27 -10 65 -8 q92 4 72 4q27 0 82 4q14 4 45 2q10 0 98 11q57 8 96 4q4 2 27 -2q8 -16 8 -13q-12 0 -33 -8q-23 0 -68.5 -6t-70.5 -6q-16 -2 -45 -6q-37 -2 -108 -19q-18 -2 -54 0q-14 -6 -114 -16q-8 -2 -6 -15.5t-3 -17.5q4 -6 -2 -14t-6 -10q2 -4 4 -6q2 -12 -2 -35t-4 -31 q0 -57 -2 -49q-8 -43 -6 -56.5t-12 -33.5q0 -16 -4 -22.5t-2 -16.5q4 -16 4 -18.5t8 -9.5t8 -13q12 -6 39 -9t74 -32q12 0 33.5 -6t33.5 -6q14 -10 58 -11q154 -14 256 25q59 23 55 22q25 20 43 15l2 -6q-4 -18 -28.5 -25.5t-30.5 -13.5q-10 4 -20.5 -5.5t-16.5 -7.5 q-14 -6 -39 -18q-12 -6 -41 -8q-53 -16 -168 -29q-6 0 -27 4q-16 4 -24 0q-39 8 -82 2q-2 8 -41 17q-20 6 -66 20q-12 6 -45 6q-6 -23 -14 -47t-29 -35q-12 -6 -26 0q-20 8 -25 9q-14 14 -18 34q-4 14 -2 37z" />
<glyph unicode="&#xa4;" />
<glyph unicode="&#xa5;" />
<glyph unicode="&#xa7;" />
<glyph unicode="&#xa8;" horiz-adv-x="659" d="M127 528q55 53 125 62l6 -8q-4 -20 -39 -38t-37 -44q-4 4 -29.5 6t-25.5 22zM360 600l2 8q8 2 33 18.5t41 16.5q10 0 21 -4q14 -10 32 -37q4 -27 -57 -45q-2 0 -35 16q-27 4 -37 27z" />
<glyph unicode="&#xa9;" />
<glyph unicode="&#xaa;" />
<glyph unicode="&#xab;" horiz-adv-x="389" d="M20 98q-2 20 19.5 42t26.5 34q6 20 34 49q4 12 23 19l27 12q4 2 22 -8q6 -8 6 -31q-23 -6 -35 -25.5t-24 -39.5q0 -18 14 -44q20 -35 23 -38q-4 -16 6 -17q2 -14 21.5 -31.5t19.5 -27.5q0 -9 -6 -17q-10 -20 -54 -36q-10 0 -30 8q-10 18 -31 59q-6 12 -25 31q4 8 -4 15 t-6 14q-6 4 -12 16t-15 16zM162 121q-4 14 14.5 33.5t23.5 22.5t15 30q10 16 39 43q16 27 65 26l5 -4q0 -37 -35 -51q-6 -20 -10 -20q-2 -12 -21 -27q6 -18 27 -53q2 -14 23.5 -34t25.5 -32q0 -12 -17.5 -24.5t-21.5 -22.5l-45 4q-12 8 -26.5 38t-61.5 71z" />
<glyph unicode="&#xac;" />
<glyph unicode="&#xad;" horiz-adv-x="657" d="M172 162q-2 4 0 8q4 6 19.5 9t15.5 16q14 10 28.5 20t28.5 6q12 -8 33 -6q23 4 33 0q14 6 41 2q88 18 125 14q0 -8 2 -24q-43 -37 -76 -37q-12 0 -23 4q-37 -2 -110 -10q-33 -12 -72 -4q-4 -6 -41 -6q0 2 -4 8z" />
<glyph unicode="&#xae;" />
<glyph unicode="&#xaf;" />
<glyph unicode="&#xb0;" />
<glyph unicode="&#xb1;" />
<glyph unicode="&#xb4;" horiz-adv-x="686" d="M98 420q-2 8 17 22q90 49 170 127q111 106 215 166q22 -4 22 -22q0 -25 -24 -45q-37 -31 -39 -35q-20 -6 -41 -27.5t-41.5 -38t-54.5 -57.5q-37 -29 -107 -94q-12 0 -35.5 -12.5t-36.5 -12.5q-12 0 -22 8q-2 2 -13.5 6.5t-9.5 14.5z" />
<glyph unicode="&#xb6;" />
<glyph unicode="&#xb7;" />
<glyph unicode="&#xb8;" horiz-adv-x="460" d="M51 111v43q0 4 2 8v8q0 12 6 20q0 6 3.5 9.5t3.5 9.5q6 14 18 27q0 2 18 20q8 6 23.5 19.5t52.5 25.5q2 2 7 2h8.5t8.5 3t7 3q4 2 35 -10q4 -2 26 -18v-2q2 -2 5.5 -8.5t5.5 -10.5q-2 -4 -4.5 -14t-10.5 -19q2 0 -10 -4q-8 -2 -12 4q2 8 0 25l-6 18q-6 6 -17.5 13.5 t-23.5 7.5q-2 4 -15 0q-8 -2 -24 -8l-23 -13q0 -4 -8 -8t-10 -7t-5 -8t-5.5 -6t-6.5 -8h-2q0 -2 -4 -5t-3 -6t-2 -7t-8 -10t-5 -9t-2 -8.5t-8 -15.5v-12v-19q0 -4 -5 -12q0 -10 7 -29q0 -2 2 -8t2 -10q4 -12 8 -17.5t12 -17.5t33 -29q8 -2 22 -10q39 -10 50 -8q37 2 106 23 q12 4 33.5 14.5t64.5 28.5q0 -2 -2 -5.5t-4 -5.5t-26 -14q-2 -2 -10.5 -5t-13.5 -6t-23 -10q-4 0 -10.5 -2t-14.5 -5t-12 -4t-11 -5q-27 -6 -84 -14q10 -12 11 -37q-6 0 -6 -2q2 -4 0 -6h-5q2 -2 -2 -6q-2 -10 -8 -19l-10 -10q0 -4 -5 -7t-7 -5q-8 -8 -31 -21q-2 -4 -18 -4 q-2 2 0 6q8 6 24.5 17.5t16.5 17.5l12 18q0 2 4 8.5t4 12.5v4q0 8 -1 11t-19 18q-23 0 -23 10l8 4q-6 4 -20 14q-4 0 -25 17q-4 6 -11 17t-9 14.5t-13 29.5q0 6 -6 19z" />
<glyph unicode="&#xba;" />
<glyph unicode="&#xbb;" horiz-adv-x="923" d="M74 -195q0 8 2 23.5t14 40.5t12 41q0 6 -2 14q2 10 9 33q0 4 7 16.5t8 20.5t7 20q-4 12 4 35t8 29q4 31 29 84q2 -18 2 47q-20 20 -31 16q-12 4 -37 15q-16 0 -16 12q0 4 16 20q8 -2 31 15l41 -2q12 -16 33.5 -24.5t42.5 -14.5q4 6 10 4q6 -4 10 -10q6 -7 0 -15 q-14 -4 -14 -20.5t-6 -20.5t-9 -18t-9.5 -18.5t-4.5 -10.5l5 -10q-2 -14 -23 -43q0 2 -14 -55q-8 -35 -25 -70q-10 -10 -10 -8q2 -4 -1 -14.5t-3 -14.5q-6 -27 -31 -76q-6 -6 -2 -10l4 -6q0 -4 -6 -6q-16 -12 -16 -25q-2 -2 -8.5 -11t-12.5 -9q-4 0 -9 2t-5 24zM160 -244 q10 41 30 70q14 37 35 113q2 6 8.5 26.5t7.5 35.5t17 42q0 8 10.5 23.5t7.5 25.5q14 37 37 111q2 8 6.5 23.5t20.5 41.5q-2 14 6 21q0 6 -6 12q-55 0 -66 2q-4 8 11 19q10 2 31.5 15t35.5 13q8 0 31 -8t35 -4l20 -10q0 8 -12 -35q-8 -27 -33 -78q0 -2 -9 -18.5t-7 -26.5 q-6 -16 -25 -49q-8 -31 -26 -37q4 -29 -13 -43q0 -6 -7 -19.5t-10 -22.5t-13.5 -26.5t-24.5 -54.5q-10 -23 -25 -65q-12 -12 -12 -27q-18 -29 -43 -92q-6 -2 -8 -11.5t-10 -9.5q8 16 0 43z" />
<glyph unicode="&#xbf;" horiz-adv-x="319" d="M12 68q0 -18 15 -23q6 -2 14 -13.5t15 -16.5t30 -6t33 -11q18 -4 55 -10q10 -4 82 12q16 -2 24.5 9t16.5 22q0 20 -14 45q-18 33 -21 41q-4 16 -24 37q-12 18 -45 57q-2 6 -25 43q-18 27 -18 45q0 16 10 29q4 8 14 10t14 6q25 -4 74 0q6 -6 23 4q2 3 -2 17 q-43 23 -123 34q-35 10 -88 -12q-20 -12 -25 -37q10 -23 25 -67q12 -20 43 -60q2 -6 47 -73q29 -45 28 -82q-4 -6 -9 -11.5t-13 -1.5q14 -2 -29 -2q-16 0 -20 15q10 16 -15 30q-6 6 -14 6q-6 0 -21.5 -6t-25.5 -4q-10 -4 -31 -26zM92 743q-4 -14 14.5 -25t23.5 -14.5 t23.5 -9.5t26.5 -6q15 0 23 12q-16 51 -78 54q-35 2 -33 -11z" />
<glyph unicode="&#xc0;" />
<glyph unicode="&#xc1;" />
<glyph unicode="&#xc2;" />
<glyph unicode="&#xc3;" />
<glyph unicode="&#xc4;" horiz-adv-x="1093" d="M-530 -203q0 8 10 113l-4 2l6 6v2q2 2 2 4q2 20 21.5 35.5t37.5 30.5h2q2 -6 11 -15q0 -2 -7 -8q6 -10 7 -14q-12 -12 -5 -31q0 -51 -10 -76q6 -6 4 -12q-2 -10 -2 -8l-4 -8l4 -56q-2 -23 0 -57q4 -43 3 -53t3 -27q0 -12 -8 -18q10 -45 33 -127q-10 -16 0 -31 q10 -10 10 -18q4 -27 27 -72q6 -12 14 -21l2 -4l4 -2q0 -4 4 -10q45 -35 97 -24q51 51 131 190q16 27 43 82q8 6 18 27q2 14 6 24q12 29 45 84q0 8 9 16l4 5q25 49 67 147q4 2 19 16q4 4 14 13q-10 10 -4 30v13q27 41 27 73q27 49 67 150q10 8 10 24.5t2 22.5q14 23 28.5 71 t25.5 66q12 10 4 25l28 121q18 49 19 86q31 141 0 260q0 35 -21 80q2 4 11 8q8 4 32 0q8 8 11 29q2 4 4 4q4 0 16 -9.5t23 -5.5l4 -4q4 -39 31 -115q43 -281 40 -358q4 -4 5 -8q0 -4 -5 -10q-10 -18 0 -33q6 -14 6.5 -54t12.5 -63q2 -6 2 -20v-23q0 -33 27 -47q160 0 192 4 q158 4 248 31q41 6 194 59h9q0 -14 -17 -18q-18 -10 -61 -21q-10 -2 -33 -16q-41 -8 -29 -8q-33 -18 -61 -19q-137 -37 -160 -37q-12 -8 -47 -8q-2 0 -8 -1t-10 -3q-10 4 -25.5 -2t-21.5 -6q-8 0 -17 4q-18 -14 -90 -22q-14 0 -31 -7h-2q-12 4 -16 5q-23 6 -23 -17 q0 -47 25 -74q16 -29 35 -92q8 -14 8 -26v-25q-12 -8 -39 -20q-20 -10 -39 4q-6 31 -41 84q-29 35 -72 114q-12 4 -12 23q-41 18 -78 53q-27 -6 -38 -26.5t-21 -41.5q-2 -10 -16 -24q0 -16 -17 -49q-23 -23 -18 -41q-20 -37 -49 -117q-10 -10 -18.5 -33.5t-24.5 -36.5 q2 -8 -9 -36q-4 -8 -4 -13q-14 -16 -26 -57q-4 -12 -17 -37q-12 -12 -25.5 -45t-29.5 -43q-27 -68 -80 -156q-92 -152 -215 -168q-16 -2 -47 29q-6 6 -18 14q-43 55 -43 117l-5 2h-2v6q0 12 -8 17q0 23 -8 30t-18 56q0 4 -4 20q6 16 -3 47q-2 8 -2 19q-41 55 -30 125 q-8 33 -6 65zM205 1067q18 12 35.5 25.5t42.5 13.5q20 0 51 -8q4 -8 4 -17q0 -18 -35 -26q-18 -4 -41 -21q-12 -10 -41 0q-23 8 -16 33zM289 279q23 0 47 -15q33 -14 53 -14q6 30 2 57q0 23 -6 49q-2 4 -18 80q-2 10 -15 47l-16 -28q2 -12 -2 -17q-6 -20 -29 -59 q4 -16 -2 -34.5t-11 -35t-3 -30.5zM410 1055q6 -51 59 -56q8 20 27 50q23 8 26 30l-2 6q-10 0 -31.5 8.5t-33.5 8.5t-25 -8q-20 -35 -20 -39z" />
<glyph unicode="&#xc5;" horiz-adv-x="1093" d="M-530 -203q0 8 10 113l-4 2l6 6v2q2 2 2 4q2 20 21.5 35.5t37.5 30.5h2q2 -6 11 -15q0 -2 -7 -8q6 -10 7 -14q-12 -12 -5 -31q0 -51 -10 -76q6 -6 4 -12q-2 -10 -2 -8l-4 -8l4 -56q-2 -23 0 -57q4 -43 3 -53t3 -27q0 -12 -8 -18q10 -45 33 -127q-10 -16 0 -31 q10 -10 10 -18q4 -27 27 -72q6 -12 14 -21l2 -4l4 -2q0 -4 4 -10q45 -35 97 -24q51 51 131 190q16 27 43 82q8 6 18 27q2 14 6 24q12 29 45 84q0 8 9 16l4 5q25 49 67 147q4 2 19 16q4 4 14 13q-10 10 -4 30v13q27 41 27 73q27 49 67 150q10 8 10 24.5t2 22.5q14 23 28.5 71 t25.5 66q8 8 6 21l-2 4q2 0 6 2q8 43 22 119q6 6 11 24q2 4 22 2q-12 37 -14 60q27 154 0 260q0 35 -21 80q2 4 11.5 6t13.5 4q14 0 18 -2q8 8 11 29q2 4 4 4q4 0 16 -9.5t23 -5.5l4 -4q4 -39 31 -115q43 -281 40 -358q4 -4 5 -8q0 -4 -5 -10q-10 -18 0 -33q6 -14 6.5 -54 t12.5 -63q2 -6 2 -20v-23q0 -33 27 -47q160 0 192 4q158 4 248 31q41 6 194 59h9q0 -14 -17 -18q-18 -10 -61 -21q-10 -2 -33 -16q-41 -8 -29 -8q-33 -18 -61 -19q-137 -37 -160 -37q-12 -8 -47 -8q-2 0 -8 -1t-10 -3q-10 4 -25.5 -2t-21.5 -6q-8 0 -17 4q-18 -14 -90 -22 q-14 0 -31 -7h-2q-12 4 -16 5q-23 6 -23 -17q0 -47 25 -74q16 -29 35 -92q8 -14 8 -26v-25q-12 -8 -39 -20q-20 -10 -39 4q-6 31 -41 84q-29 35 -72 114q-12 4 -12 23q-41 18 -78 53q-27 -6 -38 -26.5t-21 -41.5q-2 -10 -16 -24q0 -16 -17 -49q-23 -23 -18 -41 q-20 -37 -49 -117q-10 -10 -18.5 -33.5t-24.5 -36.5q2 -8 -9 -36q-4 -8 -4 -13q-14 -16 -26 -57q-4 -12 -17 -37q-12 -12 -25.5 -45t-29.5 -43q-27 -68 -80 -156q-92 -152 -215 -168q-16 -2 -47 29q-6 6 -18 14q-43 55 -43 117l-5 2h-2v6q0 12 -8 17q0 23 -8 30t-18 56 q0 4 -4 20q6 16 -3 47q-2 8 -2 19q-41 55 -30 125q-8 33 -6 65zM219 1137q-16 82 12 125q20 16 43 33.5t45 21.5l105 49q20 4 51 2l39 -41q6 -18 6 -37q0 -59 -67 -139q-31 -29 -105 -66q-4 -2 -22 5q-16 4 -21.5 -1.5t-11.5 -5.5q-6 2 -17 2l-34 23q2 14 -19 27q-2 0 -4 2z M289 279q23 0 47 -15q33 -14 53 -14q6 30 2 57q0 23 -6 49q-2 4 -18 80q-2 10 -15 47l-16 -28q2 -12 -2 -17l-4 -6q-6 -6 -6 -18q-2 -2 -9 -19q-2 -8 -10 -16q4 -16 -2 -34.5t-11 -35t-3 -30.5zM319 1225q8 -18 9 -27q4 -27 6 -35q8 -14 26 -22q18 10 29 29.5t21 37.5l-2 4 q20 12 2 35q-2 4 -6.5 9.5t-6.5 9.5q-25 4 -49 -27q-4 -6 -29 -14z" />
<glyph unicode="&#xc6;" />
<glyph unicode="&#xc7;" />
<glyph unicode="&#xc8;" />
<glyph unicode="&#xc9;" />
<glyph unicode="&#xca;" />
<glyph unicode="&#xcb;" />
<glyph unicode="&#xcc;" />
<glyph unicode="&#xcd;" />
<glyph unicode="&#xce;" />
<glyph unicode="&#xcf;" />
<glyph unicode="&#xd1;" />
<glyph unicode="&#xd2;" />
<glyph unicode="&#xd3;" />
<glyph unicode="&#xd4;" />
<glyph unicode="&#xd5;" />
<glyph unicode="&#xd6;" horiz-adv-x="1185" d="M39 424q2 18 1 59t3 62q2 49 12 73q-2 10 2 50q-4 4 0 14q4 12 4 14q6 27 23 78q10 10 2 14q12 10 25.5 45t33.5 46q4 2 21 -15q-6 -20 -29 -63q-12 -49 -28 -154q-4 -12 -9 -86v-2v-12v-109q-2 -12 13 -35l-7 -6q10 -45 25 -137q14 -43 51 -127q8 -10 33 -57 q20 -37 45 -53q37 -39 162 -115q111 -25 147 -21q18 -2 47 4q37 8 50 9q80 25 147 84q27 23 68 71q12 12 12 15l22 20q0 8 10.5 21.5t15.5 15.5t5 27q2 6 16.5 13t12.5 17q14 18 33 62q12 27 34 82q20 35 27 69q6 23 25 64q-2 6 4 18q6 8 0 17q6 20 6 60t6 60q2 2 2 7 q0 4 -4 11t-4 11t6 6q2 18 -6 57.5t-4 59.5q10 0 10 10q-10 2 -23 43q-8 33 -40 88q-2 4 -9.5 14.5t-7.5 18.5q-6 6 -14 20.5t-11.5 20.5t-15.5 15.5t-14 11.5q-25 14 -72 43q-25 16 -82 34q-20 8 -116 15q-2 0 -95 -25q-57 -39 -127 -135q0 -12 -10 -12q0 -12 -13.5 -29.5 t-15.5 -30t-18 -32.5q2 -4 2 -7q0 -4 -9 -9t-9 -11q4 -6 4 -14t-8.5 -25.5t-8.5 -28t-12 -28.5q-4 -37 -23 -111q4 -8 -3 -18.5t-7 -14.5t4 -10q6 -14 -4 -39q-6 -10 -2 -33q4 -25 2 -36q4 -14 0 -47q-4 -31 4 -50q-6 -6 0 -14q4 -10 2 -16q0 -2 -6 -7.5t-4 -9.5q6 -4 7 -13 t7 -13q4 -31 -14 -56q-2 2 -5 11.5t-13 9.5q-12 10 -16.5 35.5t-12.5 35.5q-10 70 0 93q-6 8 -3 21t-3 20q-2 12 6 36q-4 6 -4 23v53q2 20 10 60q0 8 12 49q14 49 29 98q18 59 43 94q41 88 92 140q14 12 39 43q41 47 115 73q16 12 51 16.5t47 10.5q158 12 283 -100 q82 -74 121 -218q6 -12 16 -59q0 -6 6 -37q4 -23 0 -39l4 -10q0 -70 -10 -162q0 -20 -3 -29.5t-11 -31t-8 -31.5l-17 -49q-12 -29 -31 -92q-6 -20 -32 -51q-6 -29 -27 -50q4 -8 -4 -13t-9 -8t-44 -69q-12 -2 -18.5 -17t-12.5 -20q-16 -16 -51 -55q-63 -66 -142 -110 q-8 0 -19 -11.5t-21 -9.5q-18 -8 -58 -27q-86 -20 -129 -14q-45 -4 -74 4q-35 2 -98 29q-84 35 -166 143q-119 156 -141 412zM449 1337l50 36t60 18q31 0 76 -11q6 -12 6 -22q0 -25 -49 -37q-20 0 -43 -14q-8 -35 -76 -17q-35 10 -24 47zM778 1339q7 -14 25 -41 q20 -12 51 -10q27 2 37 10q37 14 49 74l-4 10q-12 0 -43 12.5t-49 12.5q-20 0 -37 -12q-31 -43 -29 -56z" />
<glyph unicode="&#xd8;" horiz-adv-x="993" d="M-416 -965q-2 10 9.5 24.5t11.5 25.5q8 16 33 53q92 178 176 317q12 25 36 74q14 18 35 65q18 23 19 35q33 39 69 125q16 29 52 88q-2 10 11 20.5t11 22.5q12 12 15.5 49t17.5 50q8 14 8 30q0 14 -9 46t-7 49q-12 45 -17 102q-2 41 0 106q2 88 2 105q0 39 4 57 q0 51 23 150q-4 18 2 51q8 18 8 59q6 25 23 72q2 27 14 68q14 51 19 67q2 8 6 23q-4 14 8 37.5t10 37.5q12 47 47 127q12 29 21.5 61t48.5 93q8 23 14 31q8 16 27 24q8 18 39 11q2 0 26 -11q14 -4 17 -18q4 -27 -6 -66q-8 2 -12.5 14.5t-14.5 14.5q-25 -4 -49 -37 q0 -8 -11.5 -20.5t-11.5 -22.5q-12 -10 -15 -30.5t-13 -28.5q-14 -47 -31 -82q4 -6 -6 -17q-6 -33 -33 -94q2 -8 -3 -20t-5 -19q-16 -61 -53 -182q-20 -88 -46 -264q0 -31 -6 -94q6 0 6 10q-2 14 0 16q8 6 5 21q10 16 10 37q14 12 17 44.5t9 43.5q6 31 29 86q-2 25 19 63 q-2 4 6 15q0 12 10 32.5t12 24.5q-4 6 3 16.5t7 14.5q20 49 70 145q20 51 70 154q111 127 247 147q92 -10 132 -80q25 -25 32 -43q14 14 33 47q4 8 21 27q12 12 12 25q43 76 164 251q23 33 55 48q13 -1 23 -15q0 -20 -21 -45l-31 -39q-2 -6 -13 -17t-13 -20q-10 -20 -43 -61 q-14 -20 -43 -66q-37 -37 -60 -88q-16 -10 -30.5 -38.5t-24.5 -36.5q-4 -18 13.5 -49t17.5 -50q16 -78 17 -85t3 -36q4 -70 15 -206q0 -16 -5.5 -45t-5.5 -44q-2 -25 -10 -77q0 -6 -4 -21q-6 -41 -29 -125q-16 -41 -24 -66.5t-23 -78.5q-16 -18 -30.5 -61.5t-28.5 -59.5 q-4 -20 -21.5 -44t-33.5 -46q-4 -8 -15 -29q-10 0 -12 -16.5t-8 -20.5q-27 -18 -37 -26q2 -16 -13.5 -30.5t-29.5 -27.5q-4 0 -12.5 -9t-10.5 -9q-63 -51 -69 -57q-45 -29 -84 -35q-16 -14 -90 -15q-70 27 -93 52q-31 33 -69 112l-2 4q-8 -2 -13.5 -13t-13.5 -11 q-37 -66 -106 -195q-8 -25 -39 -65q-20 -47 -78 -127q-14 -23 -35 -70q-14 -25 -37 -69q-8 -16 -28 -50q-31 -49 -37 -73q-14 -8 -15 -23q-20 -29 -51 -90q-8 -4 -12 -19.5t-14 -17.5q0 -2 -5.5 -4t-3.5 -8t-8 -16.5t-8 -18.5q-6 -16 -23 -29q-4 -4 -6 2zM94 248 q2 -29 6 -55q2 -8 9 -70q4 -43 22 -66q-8 -8 -4 -12h6q-2 10 11.5 26.5t15.5 22.5l-8 2q0 4 4 7t4 6l4 -13q6 0 2 8q10 4 17 19.5t10 17.5q0 16 36 68q2 10 15 27q12 35 28 51q0 12 14.5 28.5t12.5 28.5q0 6 8 15.5t6 15.5q39 51 39 80q0 4 6.5 8t5 11t17 14.5t18.5 22.5 t13 38q18 33 20 37q23 16 42.5 63t35.5 64q6 27 29 69q37 66 108 201q2 12 19 29q4 8 26 39q19 25 19 45q-33 43 -111 112h-14q-8 6 -27 4l-29 -4q-8 -12 -38.5 -28.5t-39 -36t-38 -57t-68.5 -130.5q-23 -6 -14 -20q-12 -33 -51 -88q-6 -23 -31 -66q2 -4 2 -8q0 -6 -8 -16 t-4 -19q-8 -25 -33 -69q-14 -53 -29 -88q-8 -41 -18 -66q-12 -37 -33 -117q2 -18 -15.5 -49t-13.5 -49q-8 -23 -4 -53zM150 6q51 -154 137 -182q8 -6 23.5 -5t21.5 -3q82 0 145 78q25 29 72 83q6 12 26 35q35 57 95 176q18 33 22 58q18 29 33 82q14 63 25 86q0 23 14 55 q-4 51 14 84v51q8 38 8 58q4 37 0 106q4 35 -4 90q-12 72 -14 88l-6 10q-33 8 -54.5 -23.5t-41.5 -60.5l-7 -2q-16 -16 -36 -55q-27 -41 -84 -125q-20 -31 -56 -98q-18 -33 -65 -100q-14 -33 -53 -97q2 -8 -6.5 -12t-10.5 -8q-4 -23 -24 -56q-27 -39 -35 -54t-24.5 -48 t-28.5 -47q-31 -55 -86 -164z" />
<glyph unicode="&#xd9;" />
<glyph unicode="&#xda;" />
<glyph unicode="&#xdb;" />
<glyph unicode="&#xdc;" horiz-adv-x="1550" d="M68 530q4 10 0 37q2 10 6 27q4 10 8 30.5t6 29t7 24.5t5 24q12 37 37 111q6 12 15 37q4 0 5 4t5 8q-2 6 2 14.5t4 12.5q14 10 10 18q6 20 25 51q10 20 22 54q6 10 15 28q2 10 14 25q0 10 11 24.5t11 22.5q8 2 9 8v4q4 8 10 11q-2 12 10 16q4 23 25 37q6 16 28.5 40.5 t31.5 36t34 29.5q6 2 31 15q16 8 28 8q10 0 20.5 -2t35.5 -19l12 -2q12 -12 45 -32q4 -12 14 -19q14 -23 41 -69l25 -62q4 -10 10 -31.5t8 -31.5q4 -29 13 -86q6 -92 8 -76q2 -2 2 -13v-4q-2 -2 2 -8q0 -14 2 -46t2 -48v-18l-2 -56v-32q-4 -33 0 -56l-2 -2q2 -16 -4 -94 l2 -4q0 -25 -2 -47q2 -31 -8 -88v-25q-2 -6 0 -8q4 -8 -2 -12q0 -43 -5 -129q-4 -61 0 -213q6 -10 7 -19l-2 -8q4 -16 18 -47q-4 -4 0 -4l2 -2q6 -2 2 -6l6 -7q18 -12 27 -10q10 4 14 15q23 25 70 71l14 15q6 6 4 14q12 10 12 20q14 12 31 37q6 2 10 10v5q2 6 6.5 11 t14.5 16t12 18q14 16 29 45q8 0 7 9t6 10t7 7l2 4q0 8 4.5 12.5t13.5 15.5t9 15q12 14 27 45q8 16 12 27q6 0 8 6q2 14 19 35q6 2 6 10l2 4q0 12 10 13q8 14 18 43q4 10 25 28q4 12 2 15q6 10 14.5 28.5t16.5 24.5q2 2 2 10t6 8q2 10 9 25.5t30 46.5q0 2 -2 2l-8 8 q12 -4 14 8q0 2 2 5q6 12 14 34q2 2 2 6.5t3.5 9.5t11.5 13q0 8 7 22.5t7 20.5q12 23 27 74q2 18 24 33q25 10 45 -5q6 -4 15 -18q-2 -18 -11 -51q-4 -16 -18 -64q2 -4 -2 -11t-4 -9q2 -12 -4 -27q-8 -20 -8 -26l-11 -7q2 -6 -4 -59q-4 -29 -12 -86q-4 -43 -12 -74 q4 -23 -2 -69q0 -20 8 -37q-4 -8 2 -23l2 -4q4 -12 2 -18q6 -23 22 -66q0 -2 5 -12q2 -6 -2 -10q2 -4 8 -12.5t7 -14.5t8 -19.5t32 -39.5q4 -6 16 -17q20 -18 70 -41l2 -6q8 -2 98 -14q76 8 119 24q4 4 14.5 2t14.5 5l24 12q4 0 10 6q1 -10 3 -16q0 -12 -21 -19h-2l-4 -4 q-29 -12 -90 -29q-14 -2 -96 -12q-20 4 -54 8q-16 0 -26 7l-11 4q-2 0 -10 4q-16 4 -49 18q-12 4 -61 51q-4 8 -18.5 22.5t-31.5 49.5q-6 6 -26 53q-6 14 -12 33q-4 4 -5 16l-2 9q0 6 -2 8q-2 23 -10 63v51q-2 4 -2 11l2 4q0 12 -4 14q2 18 8 55q0 53 12 103q-6 4 0 10l3 2 q2 2 -3 6q6 10 7 17v14q-4 -4 -13 -16l2 -7q-27 -43 -43 -81q-8 -8 -26 -48q-8 -12 -13 -16q-6 -14 -18 -43q-6 -12 -25 -35q-20 -33 -55 -98q-2 -6 -33 -51q0 -4 -5 -11.5t-5 -13.5q-6 0 -7 -3t-1 -9q-20 -35 -72 -100q-4 -14 -32 -54q-68 -92 -109 -131l-4 -4h-2 q-8 -8 -15 -8v-4q-39 -27 -63 -17q-25 14 -31 33q-23 45 -26 129q-2 2 -2 8l2 2v5v43q-2 27 -2 41q2 4 6 49q-4 8 -2 24q4 20 4 23q-2 12 0 33q2 25 2 30q2 12 0 21q2 20 6 55v6l-2 2q0 6 2 8v46q4 20 -4 28q4 4 8 10q-4 2 0 7q2 20 6 57q-6 6 -2 20q2 14 0 21q-2 6 2 20 q0 23 4 33q4 20 -4 51q6 25 0 41l2 6q4 10 0 21q0 29 -2 41q-2 6 0 8v6q0 8 -4 12q6 27 -2 60q-2 8 0 24q0 18 -12 50q0 20 -8 30q4 16 -4 45q-4 10 -3 31q-8 4 -10 14.5t-4 12.5q-2 18 -18 49q0 12 -12.5 31.5t-12.5 31.5q-10 4 -10 15l-2 4q0 6 -10 16q-2 2 -11.5 10.5 t-9.5 16.5q-4 2 -10 8l-10 10q-6 6 -23 15q-4 6 -12 10h-4q-4 2 -8 6q-8 -2 -13 4q-49 0 -96 -74q-14 -20 -47 -59q-18 -29 -47 -88q-14 -23 -37 -72q-2 -10 -16 -28q-12 -31 -11 -43q-4 -12 -22 -37q2 -8 -6 -27q4 -8 -13 -45q6 -2 2 -6l-4 -4v-4q-8 -25 -24 -76l-8 -17 q-4 -8 -2 -18t-7 -33q-6 -53 -8 -54t0 -3v-2q0 -2 2 -2v-2l8 -4q-2 -2 -8 -43q2 -2 10 -2q-12 -20 0 -45q8 -10 19 -33l24 -25q14 -4 31 -8t19 -18q-6 0 -17 -11q-53 -12 -86 2h-8l4 5q-16 8 -43 34q0 8 -8 27.5t-6 32.5q-6 31 -6 30zM817 1337q25 18 50.5 36t60.5 18 q31 0 76 -11q6 -12 6 -22q0 -25 -49 -37q-20 0 -43 -14q-8 -35 -76 -17q-35 10 -25 47zM1147 1339q6 -14 24 -41q20 -12 52 -10q27 2 37 10q37 14 49 74l-4 10q-12 0 -43 12.5t-50 12.5q-20 0 -36 -12q-31 -43 -29 -56z" />
<glyph unicode="&#xdf;" horiz-adv-x="571" d="M51 268q8 10 78 47q6 0 10 -8v-20q0 -16 21 -29q16 18 35 76q2 8 8 22q12 6 12 25l-2 6v4q10 29 33 70q8 12 21.5 45t56.5 96q2 14 12 26.5t20 24.5q14 4 35 25l10 10q8 0 21 -4q25 0 24 0q33 -23 39 -41q4 -23 -2 -57q-6 -45 -6 -57.5t-6 -34t-6 -31.5q-10 -29 -41 -82 q2 -6 2 -8l-2 -2q-6 -6 -8 -13.5t-8 -15.5q-10 -18 10 -29q31 0 90 -20q2 0 39 -19q18 -20 18 -51q0 -42 -39 -112q0 -10 -13 -19.5t-17 -17.5l-37 -27q-31 -14 -97 -35q-8 0 -79 11q-8 2 -27 2q-8 6 -28.5 6t-22.5 10q0 10 11 14t30 31q8 4 26 12q16 6 25 0 q27 -20 60.5 -23t66.5 -7q51 23 51 112q-4 12 -18 35q-6 4 -19.5 14.5t-21.5 12.5t-27 2q-8 0 -18 8q-18 2 -52 -6q-27 -6 -38 0l-5 4q2 6 25 16q16 12 20.5 25.5t24.5 42.5q16 47 53 145q-6 12 2 21v35q0 18 5 26q-4 16 -8.5 34.5t-24.5 20.5q-10 -14 -24.5 -34.5 t-14.5 -36.5q-20 -20 -27 -47q-4 -4 -8 -15v-4l-2 -2l-1 -2t-4 -6t-10.5 -21.5t-9.5 -25.5t-11 -24.5t-9 -26.5q-6 -4 -10 -19q0 -4 -9 -10q2 -10 -10 -43q-4 -8 -6 -11t-6 -18v-6q0 -6 -5 -11t-13.5 -22.5t-4.5 -29.5q-6 -53 -20 -105q2 -2 -4 -37q-2 -4 -1 -15t-3 -34.5 t-4 -33v-25.5q0 -6 -11 -21q4 -41 5 -82q0 -41 -5 -79v-142q0 -18 -10 -53q4 -12 -4 -53q0 -12 2 -19q-4 -6 -4 -18q0 -49 2 -43q-14 -12 -29 -23q-18 -16 -28 -6q-6 2 -17 2q-8 51 0 72q0 68 6 98q-2 8 0 39q0 6 2.5 20.5t2.5 22.5q-10 78 2 199q0 14 4 43q0 86 2 129 q2 12 -2 41q2 12 -4 33q-4 14 0 26q0 12 -4.5 36t-2.5 34q-4 6 -4 18q-8 57 -8 43z" />
<glyph unicode="&#xe0;" />
<glyph unicode="&#xe1;" />
<glyph unicode="&#xe2;" />
<glyph unicode="&#xe3;" />
<glyph unicode="&#xe4;" horiz-adv-x="649" d="M4 61q0 20 45 125q12 43 111 99q63 6 90 -45q6 -2 12 -2q10 0 26.5 10t22.5 10q10 0 19 -16q-10 -18 -21.5 -37t-3.5 -41q0 -10 6 -20.5t6 -18.5q12 -12 33 -41q18 -20 39 -33l47 -6q25 2 68 16q25 10 78 29q8 10 30.5 19.5t30.5 17.5q8 0 8 -6q-4 -16 -26 -31 q-14 -6 -39 -18q-139 -72 -211 -72q-47 0 -101 35q-14 18 -53 47q-16 -16 -53 -41q-10 -12 -36 -20.5t-34 -14.5q-41 -18 -82 8q-12 23 -12 47zM88 129q-8 -55 12 -74q18 -6 39 11q16 31 45 55q0 2 9 20q6 13 0 21q-27 10 -33 33l-13 18q-8 10 -17 -2t-21.5 -40t-20.5 -42z M106 348q47 25 99 23q10 -20 -8.5 -27.5t-36.5 -12t-41 -22.5q-4 8 4 10q2 0 -2 3q-18 8 -15 26zM231 338q2 -18 43 -23q8 6 22.5 14.5t18.5 26.5l-2 4q-8 0 -24.5 6.5t-24.5 6.5q-10 0 -18 -6z" />
<glyph unicode="&#xe5;" />
<glyph unicode="&#xe6;" horiz-adv-x="933" d="M39 84h6q0 14 8 37q-2 10 7.5 21.5t9.5 17.5q10 18 32 51q6 14 27 29.5t25 21.5q25 14 51 28.5t47 14.5q23 0 39 -16q4 -6 14 -17q23 18 43 11q18 -12 21.5 -37t5.5 -49q8 -14 17 -29.5t9 -32t13 -49.5l8 -47l-4 -15q-4 -16 -15 -16q-39 -27 -61 -18q-18 10 -27.5 50 t-29.5 50q-6 -12 -47 -53q2 -10 -9.5 -12t-13.5 -7q-35 -23 -80 -22q-27 0 -50.5 11t-45.5 77zM147 111q-4 -18 29 -45q8 -2 12.5 8t8.5 12q45 90 41 119q-4 4 -17.5 9t-19.5 7q-23 -8 -27 -33q-12 -14 -27 -77zM434 121q0 12 4 24q-2 25 25 93q16 20 108 84q57 8 88 -9 l13 -10q0 -2 12 -14l16 4q10 4 19 -2q12 -12 6 -29q-4 -8 -18 -24q-10 -8 -33 -37q6 0 -19 -8q2 -8 -2 -11l-10 -6q-20 -6 -51 -31q-6 -2 -21 -2l-28 -20q-12 4 -17 -4q0 -14 9 -37q-2 -6 6 -16.5t11 -13.5t4 -11t3 -10q14 -18 78 -54q23 -8 29 -6v-4q84 -8 235 82 q57 45 182 133q9 -8 13 -8q0 -6 -10.5 -12t-12.5 -10q-18 -25 -45 -39q-18 -12 -47 -40t-98 -63q-72 -45 -119 -55q-18 -12 -105 -27q-31 -2 -92 15q-8 4 -57 37q-16 18 -39 61q-37 37 -37 80zM524 182q0 -6 2 -14l17 8q16 2 35.5 17.5t29.5 19.5q0 8 -11 17.5t-13 15.5 q-4 0 -12.5 6t-12.5 6q-6 0 -9 -5t-14.5 -30.5t-11.5 -40.5z" />
<glyph unicode="&#xe8;" />
<glyph unicode="&#xe9;" />
<glyph unicode="&#xea;" />
<glyph unicode="&#xeb;" />
<glyph unicode="&#xec;" />
<glyph unicode="&#xed;" />
<glyph unicode="&#xef;" />
<glyph unicode="&#xf1;" />
<glyph unicode="&#xf2;" />
<glyph unicode="&#xf3;" />
<glyph unicode="&#xf4;" />
<glyph unicode="&#xf6;" horiz-adv-x="610" d="M8 78q0 8 6 50t6 54q0 8 -2 11q12 14 37 40q4 14 33 35q6 4 15.5 16.5t58.5 26.5q20 -2 53 -23.5t57 -21.5q2 -2 15 -2h2q33 -4 92 6q31 4 90 13q49 8 160 26q6 0 12 -4q-4 -16 -12 -18l-25 -13q-61 -12 -198 -43q-18 -4 -58 -12q-8 -8 -21.5 -9t-31.5 -1q-39 -4 -39 -37 q0 -23 -20 -63q-4 -18 -21 -43q-23 -31 -29 -41q-12 -10 -36 -29q-37 -23 -70 -21q-6 -2 -20.5 6.5t-20.5 8.5q-12 12 -25 41q-4 6 -8 47zM90 160q6 -25 7 -42.5t5 -45.5q18 -23 27 -23q8 12 41 84q18 41 18 53q0 23 -24 33q-23 12 -43.5 -2t-21.5 -32.5t-9 -24.5zM117 369 q51 27 61 26q14 0 37 -4q13 -25 -22 -33q-10 0 -23 -6q-4 -20 -39 -10q-18 8 -14 27zM242 358q4 -39 43 -43q8 16 20 37q16 6 21 25l-2 4q-8 0 -24.5 6t-25.5 6q-10 0 -18 -6z" />
<glyph unicode="&#xf7;" />
<glyph unicode="&#xf8;" horiz-adv-x="456" d="M-133 -377q-4 -8 0 -12l16 16q0 6 9.5 15.5t9.5 17.5q20 35 63 98q10 18 33 58q12 16 37 53q8 4 12 18.5t14 18.5q0 4 7.5 13t10.5 18.5t19 25.5q8 6 19 29q12 10 37 6q41 -4 43 -4q25 10 71 29q31 18 47 47q10 16 29 47q6 41 0 47q8 6 8 39l-20 65q-8 2 -15.5 14.5 t-13.5 14.5q14 23 37 68q4 10 17.5 30.5t25.5 24.5q16 23 41 74q2 8 18.5 22t12.5 29q16 16 22 37q14 16 31 53l-6 10q-31 2 -49.5 -27.5t-34.5 -58.5q4 -8 -6.5 -17.5t-10.5 -12.5t-28 -42v-6q-16 -35 -56 -102q-10 -27 -47 -70q-6 0 -45 10l-35 -8q-4 2 -11 10.5t-13 4.5 q-59 -20 -82 -54q-4 -27 -25 -79q-4 -39 9 -111q-4 -10 8 -23.5t12 -19.5q-10 -20 -37 -62q-10 -14 -29.5 -47.5t-54.5 -107.5q-8 -12 -22 -35q2 -6 0 -10q-4 -8 -4 -10q2 -4 2 -9q0 -4 -7.5 -13t-7.5 -15q-10 -18 -32 -56q-16 -20 -13 -32q-4 -2 -7 -4.5t-9 -14.5zM131 203 q0 8 8 20.5t6 22.5q8 6 21 4l18 -4l9 -6q12 0 8 -9q-6 -14 -4 -16q-18 -35 -62 -98q2 31 -4 86zM166 70q8 16 33 45q0 8 8 16t8 14q8 0 8 15q8 14 33 30q10 -4 13 -19.5t5 -29.5q-8 -20 -22 -69q-8 -14 -37 -33q-14 4 -27 10q-18 6 -22 21z" />
<glyph unicode="&#xfb;" />
<glyph unicode="&#xfc;" horiz-adv-x="917" d="M16 211q-16 20 2 45q33 33 60 29q6 -8 18 -27q0 -121 -2 -102q4 -57 35 -93q55 -23 76 -12q29 33 88 92q12 23 31 64l51 26q6 -4 26 -4q14 0 16.5 -11t51.5 -73q25 -18 102 -65q25 -10 78 -25q47 -10 90 -10q90 0 183 45q-2 -10 0 -24q-14 -12 -56 -27q-33 -18 -180 -43 q-37 -2 -88 10q-74 16 -86 19q-2 0 -23 14q-12 8 -26 6q-4 0 -15.5 9t-19.5 7q-8 8 -28.5 21.5t-25.5 22t-24 14.5q-10 -2 -22 -13q-18 -18 -23 -20q-82 -94 -186 -102q-47 16 -51 20q-29 14 -35 43q-37 57 -17 164zM123 338q53 31 108 20q4 -6 5 -12q0 -10 -43 -24 q-6 -2 -13 -5l-6 -2q-23 -10 -37 -6q-18 8 -14 29zM260 322q2 -20 47 -25q8 6 23 18q18 6 24 23l-2 6q-8 0 -26.5 8t-28.5 8t-18 -6q-21 -20 -19 -32z" />
<glyph unicode="&#xff;" />
<glyph unicode="&#x152;" />
<glyph unicode="&#x153;" horiz-adv-x="643" d="M20 121l3 33q6 8 8 26.5t10 26.5q8 23 33 53q10 16 40.5 28.5t39.5 18.5q8 -2 26 -4q47 10 92 -47q16 -27 23 -55q12 27 27.5 54.5t39.5 37.5q10 4 33 18q14 8 43 19l33 4q23 0 57 -17q4 -25 -2 -57q4 -10 -3 -20.5t-13 -18.5q-31 -39 -55 -43q-14 -6 -37 -20l-4 -6 q-12 0 -39 6q-4 -12 0 -33q8 -29 8 -35q4 -12 16 -35q47 -51 127 -51q166 0 363 131l24 17q0 -31 -4 -33q-25 -18 -75 -49q-63 -33 -109 -41q-2 -6 -13.5 -9.5t-13.5 -7.5q-20 -4 -55 -20q-29 -6 -88 -19q-18 -2 -57 -6q-213 12 -213 160l-2 2q-18 -55 -54 -90 q-12 -8 -36 -33q-51 -23 -78 -22q-16 0 -31 6q-8 -4 -17.5 3t-13.5 7q-4 14 -24 35q-14 37 -9 86zM102 123q4 -23 7 -45q12 -39 36 -41q8 8 29 20q0 14 11.5 38t7.5 40q12 20 -9 78q-6 10 -20 27q-6 2 -29 -15q-2 -4 -14 -30q-10 -18 -10 -31q-10 -16 -9 -41zM377 176l47 31 q6 8 6 24q0 2 4 27q2 14 -12 14q-25 -25 -37 -59q-6 -12 -8 -37z" />
<glyph unicode="&#x178;" />
<glyph unicode="&#x2c6;" horiz-adv-x="350" d="M55 328q-2 6 5.5 13t10.5 14t17 18q27 41 56.5 61.5t39.5 18.5l6 -9q8 -12 25 -34q8 -6 25 -21q8 0 8 -8q-8 -20 -25 -21q-8 0 -22 -12q-12 -2 -23 12q-18 18 -18 19q-20 6 -23 0q-12 -12 -12 -14q-12 -16 -47 -37q-4 -6 -23 0z" />
<glyph unicode="&#x2dc;" horiz-adv-x="360" d="M37 377q6 23 51 47q16 12 39 12l12 -6q6 -8 15 -27l16 -14q10 -8 20 -4q29 0 58 23q2 0 22 10q9 0 11 -6q-10 -10 -29 -27q-8 0 -25 -12q-6 0 -16 -7.5t-16 -7.5q-20 -6 -27 -4q-8 2 -29 2q-16 8 -14 9q-8 2 -17.5 17t-17.5 15q-6 0 -13 -5t-22 -19q-6 0 -18 4z" />
<glyph unicode="&#x2000;" horiz-adv-x="779" />
<glyph unicode="&#x2001;" horiz-adv-x="1559" />
<glyph unicode="&#x2002;" horiz-adv-x="779" />
<glyph unicode="&#x2003;" horiz-adv-x="1559" />
<glyph unicode="&#x2004;" horiz-adv-x="519" />
<glyph unicode="&#x2005;" horiz-adv-x="389" />
<glyph unicode="&#x2006;" horiz-adv-x="259" />
<glyph unicode="&#x2007;" horiz-adv-x="259" />
<glyph unicode="&#x2008;" horiz-adv-x="194" />
<glyph unicode="&#x2009;" horiz-adv-x="311" />
<glyph unicode="&#x200a;" horiz-adv-x="86" />
<glyph unicode="&#x2010;" horiz-adv-x="657" d="M172 162q-2 4 0 8q4 6 19.5 9t15.5 16q14 10 28.5 20t28.5 6q12 -8 33 -6q23 4 33 0q14 6 41 2q88 18 125 14q0 -8 2 -24q-43 -37 -76 -37q-12 0 -23 4q-37 -2 -110 -10q-33 -12 -72 -4q-4 -6 -41 -6q0 2 -4 8z" />
<glyph unicode="&#x2011;" horiz-adv-x="657" d="M172 162q-2 4 0 8q4 6 19.5 9t15.5 16q14 10 28.5 20t28.5 6q12 -8 33 -6q23 4 33 0q14 6 41 2q88 18 125 14q0 -8 2 -24q-43 -37 -76 -37q-12 0 -23 4q-37 -2 -110 -10q-33 -12 -72 -4q-4 -6 -41 -6q0 2 -4 8z" />
<glyph unicode="&#x2012;" horiz-adv-x="657" d="M172 162q-2 4 0 8q4 6 19.5 9t15.5 16q14 10 28.5 20t28.5 6q12 -8 33 -6q23 4 33 0q14 6 41 2q88 18 125 14q0 -8 2 -24q-43 -37 -76 -37q-12 0 -23 4q-37 -2 -110 -10q-33 -12 -72 -4q-4 -6 -41 -6q0 2 -4 8z" />
<glyph unicode="&#x2013;" />
<glyph unicode="&#x2014;" />
<glyph unicode="&#x2018;" horiz-adv-x="155" d="M41 1163q-6 29 6 70q4 6 7 17.5t3 17.5t17 28q18 0 22 -1t8 -9q0 -4 -10 -55q-6 -33 2 -53q-14 -25 -22 -23q-8 -8 -15 -8q-16 0 -14 6q-4 -8 -4 10z" />
<glyph unicode="&#x2019;" horiz-adv-x="155" d="M41 1157q0 4 10 55q6 33 -2 54q14 25 25 22q8 8 12 8q16 0 14 -6q4 8 4 -10q6 -29 -6 -70q-2 -4 -5 -15t-4 -19.5t-15 -28.5q-20 0 -24.5 1t-8.5 9z" />
<glyph unicode="&#x201a;" horiz-adv-x="141" d="M35 -78q0 4 10 55q6 33 -2 54q14 25 23 22q8 8 12 8q18 0 16 -6q4 8 4 -10q6 -29 -6 -70q-2 -12 -14 -32q4 -8 -12 -31q-18 0 -22.5 1t-8.5 9z" />
<glyph unicode="&#x201c;" horiz-adv-x="194" d="M41 1163q-6 29 6 70q4 6 7 17.5t3 17.5t17 28q18 0 22 -1t8 -9q0 -4 -10 -55q-6 -33 2 -53q-14 -25 -22 -23q-8 -8 -15 -8q-16 0 -14 6q-4 -8 -4 10zM119 1161q-8 33 4 105q0 12 8 32q0 12 16 62q4 14 23 33h6q2 -4 3 -17.5t1 -19.5q-20 -74 -28 -127q-4 -23 0 -41 q4 -10 0 -31q-10 -10 -15 -10q-14 -2 -18 14z" />
<glyph unicode="&#x201d;" horiz-adv-x="194" d="M41 1184q20 72 29 127v41q-4 10 0 30q10 10 14 11q14 1 18 -15q8 -37 -4 -104q0 -12 -8 -33q0 -12 -16 -61q-4 -12 -23 -33h-6q0 6 -1 19.5t-3 17.5zM117 1253q0 4 10 56q6 33 -2 53q14 25 22 22q8 8 13 9q18 0 16 -7q4 8 4 -10q6 -29 -6 -69q-2 -10 -14 -33 q4 -8 -13 -31q-18 0 -22 1t-8 9z" />
<glyph unicode="&#x201e;" horiz-adv-x="194" d="M20 -147q20 72 29 127q0 41 0 40q-4 10 0 31q10 10 14 10q15 2 19 -14q8 -37 -4 -104q0 -12 -8 -33q0 -12 -17 -62q-4 -14 -22 -32h-6q0 4 -1 17t-4 20zM96 -78q0 4 10 55q6 33 -2 54q14 25 23 22q8 8 12 8q18 0 17 -6q4 8 4 -10q6 -29 -6 -70q-2 -12 -15 -32 q4 -8 -12 -31q-18 0 -22.5 1t-8.5 9z" />
<glyph unicode="&#x2022;" />
<glyph unicode="&#x2026;" horiz-adv-x="854" d="M-4 35q14 4 37 18q10 -6 35 -12q12 -4 18 -10q0 -7 6 -17q-4 -20 -22 -26q-25 -8 -33 -6q-35 31 -33 43q0 2 -8 10zM301 25q0 14 14 22q20 0 25 8q41 0 50 -15.5t5 -25.5q-16 -2 -47 -18q-8 -6 -39 14q-8 16 -8 15zM555 25q2 14 20 16q27 2 31 6h31q9 -14 29 -39 q-2 -4 -9.5 -7t-27 -10t-29.5 -7q-12 0 -20 6l-13 20q-8 0 -12 15z" />
<glyph unicode="&#x202f;" horiz-adv-x="311" />
<glyph unicode="&#x2039;" />
<glyph unicode="&#x203a;" />
<glyph unicode="&#x205f;" horiz-adv-x="389" />
<glyph unicode="&#x2122;" />
<glyph unicode="&#xe000;" horiz-adv-x="296" d="M0 0v297h297v-297h-297z" />
</font>
</defs>
</svg>
